<?xml version="1.0" encoding="utf-8"?>
<!-- Generator: Adobe Illustrator 25.2.0, SVG Export Plug-In . SVG Version: 6.00 Build 0)  -->
<svg version="1.1" id="Seenit-logo" xmlns="http://www.w3.org/2000/svg" xmlns:xlink="http://www.w3.org/1999/xlink" x="0px"
	 y="0px" viewBox="0 0 141 39" style="enable-background:new 0 0 141 39;" xml:space="preserve">
<style type="text/css">
	.st0{clip-path:url(#SVGID_2_);}
	.st1{clip-path:url(#SVGID_4_);fill:#243F4F;}
	.st2{clip-path:url(#SVGID_6_);}
	.st3{clip-path:url(#SVGID_8_);fill:#243F4F;}
	.st4{clip-path:url(#SVGID_10_);enable-background:new    ;}
	.st5{clip-path:url(#SVGID_12_);}
	.st6{clip-path:url(#SVGID_14_);}
	.st7{clip-path:url(#SVGID_16_);fill:#243F4F;}
	.st8{clip-path:url(#SVGID_18_);}
	.st9{clip-path:url(#SVGID_20_);fill:#243F4F;}
	.st10{clip-path:url(#SVGID_22_);}
	.st11{clip-path:url(#SVGID_24_);fill:#243F4F;}
	.st12{clip-path:url(#SVGID_26_);}
	.st13{clip-path:url(#SVGID_28_);fill:#243F4F;}
	.st14{clip-path:url(#SVGID_30_);}
	.st15{clip-path:url(#SVGID_32_);fill:#243F4F;}
	.st16{clip-path:url(#SVGID_34_);}
	.st17{clip-path:url(#SVGID_36_);fill:#243F4F;}
	.st18{clip-path:url(#SVGID_38_);}
	.st19{clip-path:url(#SVGID_40_);fill:#243F4F;}
	.st20{clip-path:url(#SVGID_42_);}
	.st21{clip-path:url(#SVGID_44_);fill:#243F4F;}
</style>
<g>
	<defs>
		<polygon id="SVGID_1_" points="0,12 0,26.6 11.5,26.6 11.5,23.8 3.3,23.8 3.3,20.7 10.4,20.7 10.4,17.8 3.3,17.8 3.3,14.9 
			11.4,14.9 11.4,12 		"/>
	</defs>
	<clipPath id="SVGID_2_">
		<use xlink:href="#SVGID_1_"  style="overflow:visible;"/>
	</clipPath>
	<g class="st0">
		<defs>
			<rect id="SVGID_3_" x="-83.6" y="-5.9" width="918.7" height="3110.9"/>
		</defs>
		<clipPath id="SVGID_4_">
			<use xlink:href="#SVGID_3_"  style="overflow:visible;"/>
		</clipPath>
		<rect x="-3.2" y="8.8" class="st1" width="17.9" height="21.1"/>
	</g>
</g>
<g>
	<defs>
		<path id="SVGID_5_" d="M13.4,12h5.7c1.1,0,2.2,0.2,3.1,0.6c0.9,0.4,1.8,0.9,2.4,1.5c0.7,0.7,1.2,1.4,1.6,2.3
			c0.4,0.9,0.6,1.8,0.6,2.9v0c0,1-0.2,2-0.6,2.9c-0.4,0.9-0.9,1.7-1.6,2.3c-0.7,0.7-1.5,1.2-2.4,1.6c-0.9,0.4-2,0.6-3.1,0.6h-5.7V12
			z M19.1,23.7c0.6,0,1.2-0.1,1.8-0.3c0.5-0.2,1-0.5,1.4-0.9c0.4-0.4,0.7-0.9,0.9-1.4c0.2-0.5,0.3-1.1,0.3-1.8v0
			c0-0.6-0.1-1.2-0.3-1.8c-0.2-0.5-0.5-1-0.9-1.4c-0.4-0.4-0.8-0.7-1.4-0.9c-0.5-0.2-1.1-0.3-1.8-0.3h-2.5v8.9H19.1z"/>
	</defs>
	<clipPath id="SVGID_6_">
		<use xlink:href="#SVGID_5_"  style="overflow:visible;"/>
	</clipPath>
	<g class="st2">
		<defs>
			<rect id="SVGID_7_" x="-83.6" y="-6.5" width="918.7" height="3110.9"/>
		</defs>
		<clipPath id="SVGID_8_">
			<use xlink:href="#SVGID_7_"  style="overflow:visible;"/>
		</clipPath>
		<rect x="10.2" y="8.8" class="st3" width="19.8" height="21.1"/>
	</g>
</g>
<g>
	<defs>
		<rect id="SVGID_9_" x="33.2" y="11.4" width="12" height="15.3"/>
	</defs>
	<clipPath id="SVGID_10_">
		<use xlink:href="#SVGID_9_"  style="overflow:visible;"/>
	</clipPath>
	<g class="st4">
		<g>
			<defs>
				<rect id="SVGID_11_" x="33.2" y="11.3" width="12.1" height="15.3"/>
			</defs>
			<clipPath id="SVGID_12_">
				<use xlink:href="#SVGID_11_"  style="overflow:visible;"/>
			</clipPath>
			<g class="st5">
				<defs>
					<path id="SVGID_13_" d="M35.2,22c0.7,0.6,1.4,1,2.1,1.3c0.7,0.3,1.5,0.5,2.4,0.5c0.7,0,1.2-0.1,1.6-0.4c0.4-0.2,0.6-0.6,0.6-1
						v0c0-0.2,0-0.4-0.1-0.6c-0.1-0.2-0.2-0.3-0.5-0.5c-0.2-0.1-0.5-0.3-0.9-0.4c-0.4-0.1-0.9-0.3-1.6-0.5c-0.8-0.2-1.4-0.4-2.1-0.6
						c-0.6-0.2-1.1-0.5-1.6-0.8c-0.4-0.3-0.8-0.7-1-1.2c-0.2-0.5-0.4-1.1-0.4-1.8v0c0-0.7,0.1-1.3,0.4-1.8c0.3-0.5,0.6-1,1.1-1.4
						c0.5-0.4,1-0.7,1.7-0.9c0.6-0.2,1.4-0.3,2.1-0.3c1.1,0,2.1,0.2,3.1,0.5c0.9,0.3,1.8,0.8,2.6,1.4L43,15.7
						c-0.7-0.5-1.3-0.8-2-1.1c-0.6-0.3-1.3-0.4-1.9-0.4c-0.7,0-1.1,0.1-1.5,0.4c-0.3,0.2-0.5,0.6-0.5,0.9v0c0,0.2,0,0.5,0.1,0.6
						c0.1,0.2,0.3,0.3,0.5,0.5c0.2,0.1,0.6,0.3,1,0.4c0.4,0.1,1,0.3,1.6,0.5c0.8,0.2,1.4,0.4,2,0.7c0.6,0.2,1.1,0.5,1.5,0.9
						c0.4,0.3,0.7,0.8,0.9,1.2c0.2,0.5,0.3,1,0.3,1.7v0c0,0.7-0.1,1.4-0.4,2c-0.3,0.6-0.7,1.1-1.1,1.4c-0.5,0.4-1.1,0.7-1.7,0.9
						c-0.7,0.2-1.4,0.3-2.2,0.3c-1.2,0-2.3-0.2-3.4-0.6c-1.1-0.4-2.1-1-3-1.8L35.2,22z"/>
				</defs>
				<clipPath id="SVGID_14_">
					<use xlink:href="#SVGID_13_"  style="overflow:visible;"/>
				</clipPath>
				<g class="st6">
					<defs>
						<rect id="SVGID_15_" x="33.2" y="11.3" width="12.1" height="15.3"/>
					</defs>
					<clipPath id="SVGID_16_">
						<use xlink:href="#SVGID_15_"  style="overflow:visible;"/>
					</clipPath>
					<rect x="30" y="8.2" class="st7" width="18.4" height="21.6"/>
				</g>
			</g>
		</g>
	</g>
</g>
<g>
	<defs>
		<polygon id="SVGID_17_" points="45.9,12 58.1,12 58.1,14.9 53.6,14.9 53.6,26.6 50.4,26.6 50.4,14.9 45.9,14.9 		"/>
	</defs>
	<clipPath id="SVGID_18_">
		<use xlink:href="#SVGID_17_"  style="overflow:visible;"/>
	</clipPath>
	<g class="st8">
		<defs>
			<rect id="SVGID_19_" x="-83.6" y="-6.5" width="918.7" height="3110.9"/>
		</defs>
		<clipPath id="SVGID_20_">
			<use xlink:href="#SVGID_19_"  style="overflow:visible;"/>
		</clipPath>
		<rect x="42.7" y="8.8" class="st9" width="18.5" height="21.1"/>
	</g>
</g>
<g>
	<defs>
		<polygon id="SVGID_21_" points="60,12 71.3,12 71.3,14.8 63.3,14.8 63.3,17.8 70.4,17.8 70.4,20.7 63.3,20.7 63.3,23.8 71.5,23.8 
			71.5,26.6 60,26.6 		"/>
	</defs>
	<clipPath id="SVGID_22_">
		<use xlink:href="#SVGID_21_"  style="overflow:visible;"/>
	</clipPath>
	<g class="st10">
		<defs>
			<rect id="SVGID_23_" x="-83.6" y="-6.5" width="918.7" height="3110.9"/>
		</defs>
		<clipPath id="SVGID_24_">
			<use xlink:href="#SVGID_23_"  style="overflow:visible;"/>
		</clipPath>
		<rect x="56.8" y="8.8" class="st11" width="17.9" height="21.1"/>
	</g>
</g>
<g>
	<defs>
		<polygon id="SVGID_25_" points="73.4,12 76.4,12 83.5,21 83.5,12 86.8,12 86.8,26.6 84,26.6 76.6,17.3 76.6,26.6 73.4,26.6 		"/>
	</defs>
	<clipPath id="SVGID_26_">
		<use xlink:href="#SVGID_25_"  style="overflow:visible;"/>
	</clipPath>
	<g class="st12">
		<defs>
			<rect id="SVGID_27_" x="-83.6" y="-6.5" width="918.7" height="3110.9"/>
		</defs>
		<clipPath id="SVGID_28_">
			<use xlink:href="#SVGID_27_"  style="overflow:visible;"/>
		</clipPath>
		<rect x="70.2" y="8.8" class="st13" width="19.8" height="21.1"/>
	</g>
</g>
<g>
	<defs>
		<polygon id="SVGID_29_" points="89.3,12 92.4,12 99.4,21 99.4,12 102.7,12 102.7,26.6 99.9,26.6 92.6,17.3 92.6,26.6 89.3,26.6 		
			"/>
	</defs>
	<clipPath id="SVGID_30_">
		<use xlink:href="#SVGID_29_"  style="overflow:visible;"/>
	</clipPath>
	<g class="st14">
		<defs>
			<rect id="SVGID_31_" x="-83.6" y="-6.5" width="918.7" height="3110.9"/>
		</defs>
		<clipPath id="SVGID_32_">
			<use xlink:href="#SVGID_31_"  style="overflow:visible;"/>
		</clipPath>
		<rect x="86.1" y="8.8" class="st15" width="19.8" height="21.1"/>
	</g>
</g>
<g>
	<defs>
		<polygon id="SVGID_33_" points="105.9,12 117.3,12 117.3,14.9 109.2,14.9 109.2,17.8 116.3,17.8 116.3,20.7 109.2,20.7 
			109.2,23.8 117.4,23.8 117.4,26.6 105.9,26.6 		"/>
	</defs>
	<clipPath id="SVGID_34_">
		<use xlink:href="#SVGID_33_"  style="overflow:visible;"/>
	</clipPath>
	<g class="st16">
		<defs>
			<rect id="SVGID_35_" x="-83.6" y="-6.5" width="918.7" height="3110.9"/>
		</defs>
		<clipPath id="SVGID_36_">
			<use xlink:href="#SVGID_35_"  style="overflow:visible;"/>
		</clipPath>
		<rect x="102.7" y="8.8" class="st17" width="17.9" height="21.1"/>
	</g>
</g>
<g>
	<defs>
		<polygon id="SVGID_37_" points="116.8,12 128.9,12 128.9,14.9 124.4,14.9 124.4,26.6 121.2,26.6 121.2,14.9 116.8,14.9 		"/>
	</defs>
	<clipPath id="SVGID_38_">
		<use xlink:href="#SVGID_37_"  style="overflow:visible;"/>
	</clipPath>
	<g class="st18">
		<defs>
			<rect id="SVGID_39_" x="-83.6" y="-6.5" width="918.7" height="3110.9"/>
		</defs>
		<clipPath id="SVGID_40_">
			<use xlink:href="#SVGID_39_"  style="overflow:visible;"/>
		</clipPath>
		<rect x="113.6" y="8.8" class="st19" width="18.5" height="21.1"/>
	</g>
</g>
<g>
	<defs>
		<polygon id="SVGID_41_" points="128.9,12 141,12 141,14.9 136.5,14.9 136.5,26.6 133.3,26.6 133.3,14.9 128.9,14.9 		"/>
	</defs>
	<clipPath id="SVGID_42_">
		<use xlink:href="#SVGID_41_"  style="overflow:visible;"/>
	</clipPath>
	<g class="st20">
		<defs>
			<rect id="SVGID_43_" x="-83.6" y="-6.5" width="918.7" height="3110.9"/>
		</defs>
		<clipPath id="SVGID_44_">
			<use xlink:href="#SVGID_43_"  style="overflow:visible;"/>
		</clipPath>
		<rect x="125.7" y="8.8" class="st21" width="18.5" height="21.1"/>
	</g>
</g>
</svg>
