<?xml version="1.0" encoding="UTF-8"?>
<svg width="108px" height="120px" viewBox="0 0 108 120" version="1.1" xmlns="http://www.w3.org/2000/svg" xmlns:xlink="http://www.w3.org/1999/xlink">
    <title>Group</title>
    <g stroke="none" stroke-width="1" fill="none" fill-rule="evenodd">
        <g transform="translate(-772.000000, -2189.000000)">
            <g transform="translate(112.000000, 1888.000000)">
                <g transform="translate(660.000000, 301.000000)">
                    <path d="M34.5650889,59.9997 C34.5650889,49.4487 43.1180889,40.8957 53.6690889,40.8957 C64.2200889,40.8957 72.7730889,49.4487 72.7730889,59.9997 C72.7730889,70.5507 64.2200889,79.1037 53.6690889,79.1037 C43.1180889,79.1037 34.5650889,70.5507 34.5650889,59.9997" id="Fill-13" fill="#121212"></path>
                    <path d="M40.9328889,12.735 C40.9328889,5.703 46.6358889,1.49213975e-13 53.6708889,1.49213975e-13 C60.7028889,1.49213975e-13 66.4058889,5.703 66.4058889,12.735 C66.4058889,19.77 60.7028889,25.473 53.6708889,25.473 C46.6358889,25.473 40.9328889,19.77 40.9328889,12.735" id="Fill-14" fill="#121212"></path>
                    <path d="M40.9328889,107.2629 C40.9328889,100.2279 46.6358889,94.5279 53.6708889,94.5279 C60.7028889,94.5279 66.4058889,100.2279 66.4058889,107.2629 C66.4058889,114.2979 60.7028889,119.9979 53.6708889,119.9979 C46.6358889,119.9979 40.9328889,114.2979 40.9328889,107.2629" id="Fill-15" fill="#121212"></path>
                    <path d="M100.969489,47.3976 C107.062489,43.8816 109.147489,36.0906 105.631489,30.0006 C102.112489,23.9076 94.3244889,21.8226 88.2314889,25.3386 C82.1414889,28.8546 80.0534889,36.6456 83.5724889,42.7356 C87.0884889,48.8286 94.8764889,50.9136 100.969489,47.3976" id="Fill-16" fill="#121212"></path>
                    <path d="M19.1066889,94.6623 C25.1966889,91.1433 27.2846889,83.3553 23.7686889,77.2623 C20.2496889,71.1723 12.4616889,69.0843 6.36868889,72.6003 C0.278688886,76.1193 -1.80931111,83.9073 1.70968889,89.9973 C5.22568889,96.0933 13.0136889,98.1783 19.1066889,94.6623" id="Fill-17" fill="#121212"></path>
                    <path d="M88.2326889,94.6623 C94.3256889,98.1783 102.113689,96.0933 105.629689,89.9973 C109.148689,83.9073 107.060689,76.1193 100.970689,72.6003 C94.8776889,69.0843 87.0896889,71.1723 83.5706889,77.2623 C80.0546889,83.3553 82.1426889,91.1433 88.2326889,94.6623" id="Fill-18" fill="#121212"></path>
                    <path d="M6.36988889,47.3976 C12.4628889,50.9136 20.2508889,48.8286 23.7668889,42.7356 C27.2858889,36.6456 25.1978889,28.8546 19.1078889,25.3386 C13.0148889,21.8226 5.22688889,23.9076 1.70788889,30.0006 C-1.80811111,36.0906 0.279888886,43.8816 6.36988889,47.3976" id="Fill-19" fill="#121212"></path>
                </g>
            </g>
        </g>
    </g>
</svg>