<?xml version="1.0" encoding="utf-8"?>
<!-- Generator: Adobe Illustrator 22.0.1, SVG Export Plug-In . SVG Version: 6.00 Build 0)  -->
<svg version="1.1" xmlns="http://www.w3.org/2000/svg" xmlns:xlink="http://www.w3.org/1999/xlink" x="0px" y="0px"
	 viewBox="0 0 1417.3 1417.3" style="enable-background:new 0 0 1417.3 1417.3;" xml:space="preserve">
<style type="text/css">
	.st0{fill:#9A9999;}
	.st1{fill:#23B6BE;}
	.st2{fill:#EFEFEF;}
	.st3{fill:#CDCCCC;}
	.st4{fill:#02ADB5;}
	.st5{fill:#111920;}
	.st6{fill:#16222A;}
	.st7{fill:#5E656B;}
	.st8{fill:#8A9399;}
	.st9{fill:#01646A;}
	.st10{fill:#05868D;}
	.st11{fill:#F2F2F2;}
	.st12{fill:#676767;}
</style>
<g id="bucket">
	<path class="st0" d="M726.5,528.9c7.5,0,14.7-2.5,20.6-7.3c7.6-6.2,12-15.4,12-25.3c0-3-2.5-5.5-5.5-5.5s-5.5,2.5-5.5,5.5
		c0,6.5-2.9,12.6-8,16.8c-5.1,4.2-11.6,5.7-18.3,4.3c-8.1-1.7-14.7-8.3-16.4-16.4c-2-9.8,2.5-19.4,11.3-23.9
		c9.4-4.8,15.3-14,15.3-24l-1.2-212.5H722l-0.9,212.5c0,5.8-3.6,11.3-9.3,14.2c-13.2,6.8-20.1,21.2-17,35.9
		c2.6,12.3,12.6,22.3,24.9,24.9C721.9,528.7,724.2,528.9,726.5,528.9z"/>
	<path class="st1" d="M727.3,434.1l31.4-31.4c0.4-0.4,0.4-1,0-1.4l-31.4-31.4c-0.4-0.4-1-0.4-1.4,0l-31.4,31.4c-0.4,0.4-0.4,1,0,1.4
		l31.4,31.4C726.2,434.5,726.9,434.5,727.3,434.1z"/>
	<path class="st2" d="M727.3,419.6l16.9-16.9c0.4-0.4,0.4-1,0-1.4l-16.9-16.9c-0.4-0.4-1-0.4-1.4,0L709,401.3c-0.4,0.4-0.4,1,0,1.4
		l16.9,16.9C726.2,420,726.9,420,727.3,419.6z"/>
	<path class="st3" d="M659.6,632l-5.3-3.3l63.2-73.6c1.9-3,5.1-4.7,8.6-4.7s6.7,1.8,8.6,4.7l63.2,73.6l-5.3,3.3l-63.2-73.6
		c-0.7-1.1-2-1.8-3.3-1.8c-1.4,0-2.6,0.7-3.3,1.8L659.6,632z"/>
	<path class="st4" d="M769.7,733h-86.9c-3.7,0-6.8-2.6-7.6-6.2l-18.9-89.5h140l-18.9,89.5C776.5,730.4,773.3,733,769.7,733z"/>
	<rect x="712.8" y="650.9" class="st1" width="26.8" height="71.7"/>
	<polygon class="st1" points="767.9,722.6 754,722.6 754,650.9 780.9,650.9 	"/>
	<polygon class="st1" points="684.5,722.6 698.4,722.6 698.4,650.9 671.5,650.9 	"/>
	<path class="st1" d="M801.7,628.1H650.8c-1.7,0-3,1.3-3,3v8.9c0,1.7,1.3,3,3,3h150.9c1.7,0,3-1.3,3-3v-8.9
		C804.7,629.4,803.3,628.1,801.7,628.1z"/>
	<path class="st4" d="M732.7,566.3h-12.9c-1.7,0-3-1.3-3-3v-47.6c0-1.7,1.3-3,3-3h12.9c1.7,0,3,1.3,3,3v47.6
		C735.7,564.9,734.3,566.3,732.7,566.3z"/>
</g>
<g id="site">
	<g>
		<path class="st5" d="M602.5,1060.6l2.8-9.8c17.8-62.4,106.3-62.5,124.2,0l2.8,9.9L602.5,1060.6L602.5,1060.6z"/>
		<path class="st6" d="M786.9,1060.6L786.9,1060.6c-36-59.9-122.8-59.9-158.8,0l0,0H786.9z"/>
		<path class="st7" d="M696.5,1060.6L696.5,1060.6c-33.9-37.3-92.5-37.3-126.5,0l0,0H696.5z"/>
		<path class="st8" d="M615.2,1046.5c0,1.7-1.3,3-3,3s-3-1.3-3-3s1.3-3,3-3S615.2,1044.9,615.2,1046.5z"/>
		<circle class="st8" cx="624.7" cy="1040.7" r="3.9"/>
		<circle class="st8" cx="621.1" cy="1051" r="2"/>
		<circle class="st8" cx="637.7" cy="1052.2" r="4.9"/>
		<path class="st8" d="M593.2,1054.7c0,1.2-1,2.2-2.2,2.2s-2.2-1-2.2-2.2s1-2.2,2.2-2.2C592.3,1052.5,593.2,1053.5,593.2,1054.7z"/>
		<path class="st8" d="M598.3,1047.5c0,0.7-0.6,1.3-1.3,1.3s-1.3-0.6-1.3-1.3c0-0.7,0.6-1.3,1.3-1.3
			C597.8,1046.2,598.3,1046.8,598.3,1047.5z"/>
		<circle class="st8" cx="638.5" cy="1042.9" r="1.3"/>
		<path class="st7" d="M734.6,1033.6c0,2.8-2.3,5.1-5.1,5.1s-5.1-2.3-5.1-5.1c0-2.8,2.3-5.1,5.1-5.1S734.6,1030.8,734.6,1033.6z"/>
		<circle class="st7" cx="726.9" cy="1048.5" r="2.9"/>
		<circle class="st7" cx="739.9" cy="1042.4" r="3.9"/>
		<path class="st7" d="M701.4,1028.5c0,3.9-3.2,7.1-7.1,7.1c-3.9,0-7.1-3.2-7.1-7.1s3.2-7.1,7.1-7.1
			C698.3,1021.4,701.4,1024.6,701.4,1028.5z"/>
		<path class="st7" d="M706.5,1042.2c0,1.5-1.2,2.7-2.7,2.7s-2.7-1.2-2.7-2.7s1.2-2.7,2.7-2.7S706.5,1040.7,706.5,1042.2z"/>
		<path class="st7" d="M695.7,1043.4c0,2.5-2,4.5-4.5,4.5s-4.5-2-4.5-4.5s2-4.5,4.5-4.5S695.7,1040.9,695.7,1043.4z"/>
		<circle class="st7" cx="744.8" cy="1032.2" r="2"/>
		<circle class="st7" cx="640.7" cy="1025.4" r="3.9"/>
		<path class="st7" d="M643.9,1016.3c0,1-0.8,1.9-1.9,1.9c-1,0-1.9-0.8-1.9-1.9c0-1,0.8-1.9,1.9-1.9
			C643,1014.4,643.9,1015.3,643.9,1016.3z"/>
		<circle class="st7" cx="652.3" cy="1018.7" r="5.9"/>
		<path class="st3" d="M990.7,509.9c0.1,0,0.1,0,0.2,0c2.4-0.1,4.3-2.2,4.2-4.6l-2.9-59.5c-0.1-1.3-0.7-2.5-1.7-3.3
			s-2.4-1.1-3.6-0.8l-49.1,10.9v-49.8c0-1.3-0.6-2.5-1.6-3.4c-1-0.8-2.3-1.2-3.6-0.9l-50.7,9.7l-1.8-51.3c0-1.3-0.6-2.4-1.6-3.2
			c-1-0.8-2.2-1.1-3.5-1l-52.3,8.1v-49.3c0-1.3-0.6-2.5-1.6-3.4c-1-0.8-2.3-1.2-3.6-1l-50.9,8.6v-48.8c0-2.4-2-4.4-4.4-4.4
			s-4.4,2-4.4,4.4v54c0,1.3,0.6,2.5,1.6,3.4c1,0.8,2.3,1.2,3.6,1l50.9-8.6v49.2c0,1.3,0.6,2.5,1.5,3.3c1,0.8,2.3,1.2,3.5,1l52.5-8.1
			l1.8,51.5c0,1.3,0.6,2.5,1.6,3.3s2.3,1.1,3.6,0.9l50.5-9.6v50c0,1.3,0.6,2.6,1.6,3.4s2.4,1.1,3.7,0.9l49.4-10.9l2.7,54.3
			C986.4,508.1,988.4,509.9,990.7,509.9z"/>
		<path class="st3" d="M1090,910.3c2,0,3.9-1.1,4.8-2.9c1.4-2.7,0.4-6-2.3-7.4l-62.7-33.5l52.8-53c1.2-1.2,1.8-2.9,1.6-4.6
			c-0.2-1.7-1.2-3.2-2.7-4l-57.7-32.7l46.9-48.7c1.1-1.1,1.6-2.7,1.5-4.2c-0.1-1.6-0.9-3-2.2-3.9l-53.2-40.3l40.9-50.4
			c1.9-2.3,1.6-5.7-0.7-7.7l-46.9-39.4l33.4-55c1.6-2.6,0.7-6-1.8-7.5c-2.6-1.6-6-0.8-7.5,1.8l-35.8,59c-1.4,2.3-0.9,5.3,1.2,7.1
			l46.4,38.9l-41.1,50.7c-0.9,1.2-1.4,2.6-1.2,4.1s1,2.8,2.1,3.7l52.8,40l-47.5,49.3c-1.2,1.2-1.7,2.9-1.5,4.6
			c0.2,1.7,1.3,3.1,2.7,4l57.6,32.6l-53,53.1c-1.2,1.2-1.8,3-1.5,4.7s1.3,3.2,2.8,4l69.2,37C1088.3,910,1089.2,910.3,1090,910.3z"/>
		<rect x="723.3" y="204.3" class="st0" width="6.6" height="45.2"/>
		
			<rect x="909.7" y="113.7" transform="matrix(0.6174 -0.7867 0.7867 0.6174 73.4614 852.3659)" class="st6" width="6.6" height="473.9"/>
		
			<rect x="1114.2" y="496.2" transform="matrix(0.9962 -8.660503e-02 8.660503e-02 0.9962 -57.0888 99.436)" class="st6" width="6.6" height="423"/>
		<rect x="1044.5" y="491.5" class="st0" width="48" height="11"/>
		
			<rect x="1058.6" y="510.3" transform="matrix(0.9911 -0.1334 0.1334 0.9911 -85.8828 148.6375)" class="st0" width="15.4" height="409.9"/>
		
			<rect x="1003.8" y="511.8" transform="matrix(0.9981 -6.164690e-02 6.164690e-02 0.9981 -42.1723 63.7165)" class="st0" width="15.4" height="407"/>
		
			<rect x="874.3" y="189.9" transform="matrix(0.6218 -0.7831 0.7831 0.6218 50.3749 825.3828)" class="st0" width="11" height="341.3"/>
		
			<rect x="851.7" y="229.6" transform="matrix(0.6251 -0.7806 0.7806 0.6251 11.5218 817.9426)" class="st0" width="11" height="334.7"/>
		<circle class="st3" cx="1016.8" cy="497" r="39.2"/>
		<ellipse class="st0" cx="1016.9" cy="497" rx="17.9" ry="17.9"/>
		<circle class="st3" cx="726.6" cy="271.4" r="33.3"/>
		<circle class="st0" cx="726.6" cy="271.4" r="15.1"/>
		<path class="st3" d="M714.5,204.3c0,6.7,5.4,12.1,12.1,12.1c6.7,0,12.1-5.4,12.1-12.1c0-6.7-5.4-12.1-12.1-12.1
			S714.5,197.6,714.5,204.3z"/>
		<circle class="st3" cx="1099.2" cy="497" r="22.6"/>
		<circle class="st0" cx="1099.2" cy="497" r="15.5"/>
		<path class="st9" d="M981.1,832.4h-79.7c-6.9,0-12.7,5.4-13.1,12.3l-8,120.5h118l-4-120.1C994,838.1,988.2,832.4,981.1,832.4z"/>
		<rect x="909.6" y="980" class="st3" width="105.4" height="17.7"/>
		<path class="st0" d="M1099.7,1056.9H819.8c-17.3,0-31.3-14-31.3-31.3l0,0c0-17.3,14-31.3,31.3-31.3h279.9
			c17.3,0,31.3,14,31.3,31.3l0,0C1131,1042.9,1117,1056.9,1099.7,1056.9z"/>
		<path class="st6" d="M1099.7,1060.2H819.8c-19.1,0-34.6-15.5-34.6-34.6s15.5-34.6,34.6-34.6h279.9c19.1,0,34.6,15.5,34.6,34.6
			C1134.3,1044.7,1118.8,1060.2,1099.7,1060.2z M819.8,997.6c-15.4,0-28,12.5-28,28s12.5,28,28,28h279.9c15.4,0,28-12.5,28-28
			s-12.5-28-28-28H819.8z"/>
		<path class="st2" d="M868.5,1047.6h-15.8c-0.6,0-1-0.4-1-1v-12.7h17.8v12.7C869.5,1047.2,869,1047.6,868.5,1047.6z"/>
		<path class="st2" d="M896.8,1047.6H881c-0.6,0-1-0.4-1-1v-12.7h17.8v12.7C897.8,1047.2,897.4,1047.6,896.8,1047.6z"/>
		<path class="st2" d="M925.2,1047.6h-15.8c-0.6,0-1-0.4-1-1v-12.7h17.8v12.7C926.2,1047.2,925.7,1047.6,925.2,1047.6z"/>
		<path class="st2" d="M953.5,1047.6h-15.8c-0.6,0-1-0.4-1-1v-12.7h17.8v12.7C954.5,1047.2,954.1,1047.6,953.5,1047.6z"/>
		<path class="st2" d="M981.9,1047.6H966c-0.6,0-1-0.4-1-1v-12.7h17.8v12.7C982.9,1047.2,982.4,1047.6,981.9,1047.6z"/>
		<path class="st2" d="M1010.2,1047.6h-15.8c-0.6,0-1-0.4-1-1v-12.7h17.8v12.7C1011.2,1047.2,1010.8,1047.6,1010.2,1047.6z"/>
		<path class="st2" d="M1038.6,1047.6h-15.8c-0.6,0-1-0.4-1-1v-12.7h17.8v12.7C1039.6,1047.2,1039.1,1047.6,1038.6,1047.6z"/>
		<path class="st2" d="M1066.9,1047.6h-15.8c-0.6,0-1-0.4-1-1v-12.7h17.8v12.7C1067.9,1047.2,1067.5,1047.6,1066.9,1047.6z"/>
		<path class="st2" d="M925.2,997.7h-15.8c-0.6,0-1,0.4-1,1v17.1h17.8v-17.1C926.2,998.2,925.7,997.7,925.2,997.7z"/>
		<path class="st2" d="M1010.2,997.7h-15.8c-0.6,0-1,0.4-1,1v17.1h17.8v-17.1C1011.2,998.2,1010.8,997.7,1010.2,997.7z"/>
		<rect x="835.8" y="1014" class="st3" width="248" height="23.3"/>
		<g>
			<circle class="st3" cx="1096.2" cy="1025.6" r="19.6"/>
			<path class="st0" d="M1107.8,1025.6c0,6.4-5.2,11.6-11.6,11.6s-11.6-5.2-11.6-11.6s5.2-11.6,11.6-11.6
				C1102.6,1014,1107.8,1019.2,1107.8,1025.6z"/>
		</g>
		<g>
			<circle class="st3" cx="823.4" cy="1025.6" r="19.6"/>
			<path class="st0" d="M835,1025.6c0,6.4-5.2,11.6-11.6,11.6c-6.4,0-11.6-5.2-11.6-11.6s5.2-11.6,11.6-11.6S835,1019.2,835,1025.6z
				"/>
		</g>
		<polygon class="st0" points="998.2,965.2 996.1,901.4 882.6,929.2 880.2,965.2 		"/>
		<rect x="963" y="817.2" class="st3" width="13.7" height="22"/>
		<rect x="942.6" y="813.1" class="st3" width="11.3" height="22"/>
		<path class="st0" d="M978.9,805.1h-18.1c-0.6,0-1,0.4-1,1v11.1h20.1v-11.1C979.9,805.6,979.5,805.1,978.9,805.1z"/>
		<path class="st1" d="M1157.3,968.7H953.2v-66.5c0-1.7,1.3-3,3-3h198.1c1.7,0,3,1.3,3,3V968.7z"/>
		<path class="st0" d="M981,832.4h-79.7c-6.9,0-12.7,5.4-13.1,12.3l-0.1,1.1h106.1v-0.7C994,838.1,988.1,832.4,981,832.4z"/>
		<polygon class="st10" points="889,927.6 911.8,845.9 918.8,845.9 896.5,925.8 		"/>
		<polygon class="st10" points="922.8,919.4 905.9,923.5 927.6,845.9 943.3,845.9 		"/>
		<path class="st4" d="M1155.3,985H882.2c-1.1,0-2-0.9-2-2v-17.8h277.1V983C1157.3,984.1,1156.4,985,1155.3,985z"/>
		<g>
			<g>
				<rect x="749.8" y="960" class="st0" width="9.6" height="100.2"/>
				<rect x="833.2" y="960" class="st0" width="9.6" height="100.2"/>
			</g>
			<rect x="740.6" y="970.4" class="st11" width="111.5" height="61.9"/>
			<g>
				<polygon class="st1" points="852,1032.3 833.2,1032.3 815.9,970.4 834.7,970.4 				"/>
				<polygon class="st1" points="814.4,1032.3 795.6,1032.3 778.2,970.4 797,970.4 				"/>
				<polygon class="st1" points="776.7,1032.3 757.9,1032.3 740.6,970.4 759.4,970.4 				"/>
			</g>
			<path class="st9" d="M757.7,949.5h-6.1c-2.3,0-4.1,1.8-4.1,4.1v6.4h14.4v-6.4C761.8,951.3,759.9,949.5,757.7,949.5z"/>
			<path class="st9" d="M841.1,949.5H835c-2.3,0-4.1,1.8-4.1,4.1v6.4h14.4v-6.4C845.2,951.3,843.3,949.5,841.1,949.5z"/>
		</g>
		<g>
			<path class="st5" d="M301.2,860.2l2.8-9.8c17.8-62.4,106.3-62.5,124.2,0l2.8,9.9H301.2V860.2z"/>
			<path class="st0" d="M274,1034.6h217.8c1.1,0,2-0.9,2-2v-12.4H272v12.4C272,1033.7,272.9,1034.6,274,1034.6z"/>
			<path class="st0" d="M523.4,1005.4H655v-10.1c0-35.4-10.5-70-30.3-99.3l0,0c-11.2-16.6-29.9-26.6-50-26.6h-39.2
				c-6.7,0-12.1,5.4-12.1,12.1V1005.4z"/>
			<path class="st3" d="M259.2,1005.4h264.2v-24.1H260.2c-0.6,0-1,0.4-1,1V1005.4z"/>
			<path class="st1" d="M495.3,853.5l4.2-8.6c3.4-6.9,10.4-11.3,18.1-11.3h32.9c4.4,0,8,3.6,8,8v10.5c0,4.4-3.6,8-8,8h-16.3
				c-7.7,0-14.7,4.4-18.1,11.3l-41.6,85.4c-2,4.1-6.2,6.8-10.8,6.8H274.8c-2,0-3.8-1.5-4-3.6l-11.1-95.4c-0.3-2.4,1.6-4.5,4-4.5
				h220.8C489.1,860.3,493.3,857.6,495.3,853.5z"/>
			<rect x="288.9" y="963.7" class="st0" width="161.9" height="17.6"/>
			<path class="st2" d="M251,1020.5h413.1c1,0,1.9-0.8,1.9-1.9v-11.3c0-1-0.8-1.9-1.9-1.9H251c-1,0-1.9,0.8-1.9,1.9v11.3
				C249.1,1019.6,250,1020.5,251,1020.5z"/>
			<g>
				<g>
					<path class="st9" d="M584.1,887.9h34c2.4,2.5,4.6,5.2,6.5,8.1l0,0c12.8,19,21.6,40.1,26.4,62.3h-66.9c-2.2,0-4-1.8-4-4V892
						C580.1,889.7,581.9,887.9,584.1,887.9z"/>
				</g>
				<path class="st9" d="M538.8,958.2h26.6c0.6,0,1-0.4,1-1v-68.3c0-0.6-0.4-1-1-1h-26.6c-0.6,0-1,0.4-1,1v68.3
					C537.8,957.8,538.3,958.2,538.8,958.2z"/>
			</g>
			<polygon class="st4" points="428.4,950.5 447.5,950.5 483.7,875.1 464.6,875.1 			"/>
			<polygon class="st4" points="382.9,950.5 402,950.5 438.1,875.1 419,875.1 			"/>
			<polygon class="st4" points="337.3,950.5 356.4,950.5 392.6,875.1 373.5,875.1 			"/>
			<polygon class="st4" points="291.8,950.5 310.8,950.5 347,875.1 327.9,875.1 			"/>
			<polygon class="st4" points="280.8,917.8 301.4,875.1 282.4,875.1 276.5,887.4 			"/>
			<path class="st12" d="M551.2,976.3h-12.4c-0.5,0-0.9-0.4-0.9-0.9v-5.7c0-0.5,0.4-0.9,0.9-0.9h12.4c0.5,0,0.9,0.4,0.9,0.9v5.7
				C552.1,975.9,551.7,976.3,551.2,976.3z"/>
			<path class="st11" d="M629.5,992.2c0,2.6,2.1,4.7,4.7,4.7c2.6,0,4.7-2.1,4.7-4.7c0-2.6-2.1-4.7-4.7-4.7S629.5,989.6,629.5,992.2z
				"/>
			<g>
				<g>
					<circle class="st6" cx="401.1" cy="1025" r="38.7"/>
				</g>
				<circle class="st2" cx="401.1" cy="1025" r="23.9"/>
			</g>
			<g>
				<g>
					<circle class="st6" cx="584.4" cy="1025" r="38.7"/>
				</g>
				<circle class="st2" cx="584.4" cy="1025" r="23.9"/>
			</g>
			<g>
				<g>
					<circle class="st6" cx="316.7" cy="1025" r="38.7"/>
				</g>
				<circle class="st2" cx="316.7" cy="1025" r="23.9"/>
			</g>
			<path class="st6" d="M485.6,860.2L485.6,860.2c-36-59.9-122.8-59.9-158.8,0l0,0H485.6z"/>
			<path class="st7" d="M395.1,860.2L395.1,860.2c-33.9-37.3-92.5-37.3-126.5,0l0,0H395.1z"/>
			<polygon class="st10" points="592.8,958.2 587.5,958.2 611.6,887.9 616.9,887.9 			"/>
			<path class="st10" d="M609.1,958.2h-11.7l23.9-66.9c0,0,4.5,5.7,7.2,10.4L609.1,958.2z"/>
			<g>
				<path class="st3" d="M628.5,1020.5c-2.5-22-21.4-39.4-44.1-39.4c-22.6,0-41.4,17.5-44,39.4H628.5z"/>
			</g>
			<path class="st8" d="M313.9,846.1c0,1.7-1.3,3-3,3s-3-1.3-3-3s1.3-3,3-3C312.5,843.1,313.9,844.4,313.9,846.1z"/>
			<circle class="st8" cx="323.4" cy="840.2" r="3.9"/>
			<circle class="st8" cx="319.7" cy="850.6" r="2"/>
			<circle class="st8" cx="336.4" cy="851.8" r="4.9"/>
			<path class="st8" d="M291.9,854.3c0,1.2-1,2.2-2.2,2.2s-2.2-1-2.2-2.2s1-2.2,2.2-2.2S291.9,853.1,291.9,854.3z"/>
			<path class="st8" d="M297,847.1c0,0.7-0.6,1.3-1.3,1.3c-0.7,0-1.3-0.6-1.3-1.3s0.6-1.3,1.3-1.3S297,846.4,297,847.1z"/>
			<circle class="st8" cx="337.2" cy="842.5" r="1.3"/>
			<path class="st7" d="M433.2,833.2c0,2.8-2.3,5.1-5.1,5.1c-2.8,0-5.1-2.3-5.1-5.1s2.3-5.1,5.1-5.1
				C431,828.1,433.2,830.3,433.2,833.2z"/>
			<circle class="st7" cx="425.6" cy="848.1" r="2.9"/>
			<circle class="st7" cx="438.5" cy="842" r="3.9"/>
			<path class="st7" d="M400.1,828.1c0,3.9-3.2,7.1-7.1,7.1s-7.1-3.2-7.1-7.1c0-3.9,3.2-7.1,7.1-7.1S400.1,824.2,400.1,828.1z"/>
			<path class="st7" d="M405.2,841.8c0,1.5-1.2,2.7-2.7,2.7s-2.7-1.2-2.7-2.7s1.2-2.7,2.7-2.7C404,839,405.2,840.3,405.2,841.8z"/>
			<path class="st7" d="M394.4,843c0,2.5-2,4.5-4.5,4.5s-4.5-2-4.5-4.5s2-4.5,4.5-4.5S394.4,840.5,394.4,843z"/>
			<circle class="st7" cx="443.4" cy="831.8" r="2"/>
			<circle class="st7" cx="339.4" cy="825" r="3.9"/>
			<path class="st7" d="M342.6,815.9c0,1-0.8,1.9-1.9,1.9s-1.9-0.8-1.9-1.9c0-1,0.8-1.9,1.9-1.9S342.6,814.9,342.6,815.9z"/>
			<circle class="st7" cx="351" cy="818.3" r="5.9"/>
		</g>
	</g>
</g>
</svg>
