<?xml version="1.0" encoding="utf-8"?>
<!-- Generator: Adobe Illustrator 22.0.1, SVG Export Plug-In . SVG Version: 6.00 Build 0)  -->
<!DOCTYPE svg PUBLIC "-//W3C//DTD SVG 1.1//EN" "http://www.w3.org/Graphics/SVG/1.1/DTD/svg11.dtd" [
	<!ENTITY st0 "display:none;">
	<!ENTITY st1 "fill:#CCCCCC;">
	<!ENTITY st2 "fill:#EFEFEF;">
	<!ENTITY st3 "fill:#00BBC2;">
	<!ENTITY st4 "fill:#999999;">
	<!ENTITY st5 "fill:#FFFFFF;">
]>
<svg version="1.1" xmlns="http://www.w3.org/2000/svg" xmlns:xlink="http://www.w3.org/1999/xlink" x="0px" y="0px"
	 viewBox="0 0 500 500" style="enable-background:new 0 0 500 500;" xml:space="preserve">
<g id="phone">
	<g id="_x31_.">
		<g id="Guide" style="&st0;">
		</g>
		<g id="Icon">
		</g>
	</g>
	<g id="_x32_.">
		<g id="Guide_1_" style="&st0;">
		</g>
		<g id="telephone_1_">
			<path style="&st1;" d="M335.3,376.1c0,5-4.1,10.6-9,12.3L150,458.1c-5,1.9-9-0.8-9-5.7V108c0-5,4.1-10.6,9-12.3l181.8-66.2
				c5-1.9,9,0.8,9,5.7L335.3,376.1z"/>
			<polyline style="&st1;" points="338.4,29.8 356.5,41.3 329.2,70.6 161.7,469 143.3,457.5 			"/>
			<path style="&st2;" d="M358.7,390.7c0,5-4.1,10.6-9,12.3l-181.8,66.2c-5,1.9-9-0.8-9-5.7V119.2c0-5,4.1-10.6,9-12.3l181.8-66.2
				c5-1.9,9,0.8,9,5.7V390.7z"/>
			<polygon style="&st3;" points="352.4,362.6 165,430.8 165,146.1 352.4,77.9 			"/>
			<path style="&st4;" d="M270.3,410.8c0-6.4-5.2-9.7-11.6-7.4c-6.4,2.3-11.4,9.4-11.4,15.7s5.2,9.7,11.4,7.4
				C265.1,424.1,270.3,417.2,270.3,410.8z"/>
			<path style="&st4;" d="M264,90.7c0-2.9-2.3-4.4-5.3-3.3c-2.9,1.1-5.3,4.3-5.3,7.2s2.3,4.4,5.3,3.3C261.6,96.7,264,93.5,264,90.7z
				"/>
		</g>
	</g>
	<g id="_x33_.">
		<g id="Guide_2_" style="&st0;">
		</g>
	</g>
	<g id="_x34_.">
		<g id="Guide_3_" style="&st0;">
		</g>
	</g>
</g>
<g id="s-logo">
	<g id="Seenit_s">
		<polygon style="&st5;" points="311.6,228.8 287.1,207.5 246.4,222.2 289.9,236.8 		"/>
		<polygon style="&st5;" points="222.5,280.3 247,301.7 288,286.8 244.4,272.4 		"/>
		<polygon style="&st5;" points="224.3,259.4 292.5,282.1 310,249.7 241.8,227.1 		"/>
	</g>
</g>
</svg>
