<?xml version="1.0" encoding="utf-8"?>
<!-- Generator: Adobe Illustrator 22.0.1, SVG Export Plug-In . SVG Version: 6.00 Build 0)  -->
<!DOCTYPE svg PUBLIC "-//W3C//DTD SVG 1.1//EN" "http://www.w3.org/Graphics/SVG/1.1/DTD/svg11.dtd" [
	<!ENTITY st0 "display:none;">
	<!ENTITY st1 "fill:#CCCCCC;">
	<!ENTITY st2 "fill:#227880;">
	<!ENTITY st3 "clip-path:url(#SVGID_2_);fill:#227880;">
	<!ENTITY st4 "fill:#00BBC2;">
	<!ENTITY st5 "clip-path:url(#SVGID_5_);fill:#00BBC2;">
	<!ENTITY st6 "fill:#EFEFEF;">
	<!ENTITY st7 "clip-path:url(#SVGID_7_);fill:#227880;">
	<!ENTITY st8 "clip-path:url(#SVGID_10_);fill:#00BBC2;">
	<!ENTITY st9 "clip-path:url(#SVGID_12_);fill:#227880;">
	<!ENTITY st10 "clip-path:url(#SVGID_14_);fill:#00BBC2;">
]>
<svg version="1.1" xmlns="http://www.w3.org/2000/svg" xmlns:xlink="http://www.w3.org/1999/xlink" x="0px" y="0px"
	 viewBox="0 0 500 500" style="enable-background:new 0 0 500 500;" xml:space="preserve">
<g id="branches">
	<g id="_x31_.">
		<g id="Guide" style="&st0;">
		</g>
		<g id="Icon">
		</g>
	</g>
	<g id="_x32_.">
		<g id="Guide_1_" style="&st0;">
		</g>
	</g>
	<g id="_x33_.">
		<g id="Guide_2_" style="&st0;">
		</g>
		<g>
			<g>
				<g>
					<polygon style="&st1;" points="249.9,247.2 246.2,248.4 246.2,170.2 249.9,168.8 					"/>
				</g>
				<g>
					<polygon style="&st1;" points="374.4,204.2 107.4,301 107.4,297.3 374.4,200.4 					"/>
				</g>
				<g>
					<polygon style="&st1;" points="376.3,259.1 372.5,260.4 372.5,202.9 376.3,201.5 					"/>
				</g>
				<g>
					<polygon style="&st1;" points="109.3,355.9 105.5,357.3 105.5,299.8 109.3,298.4 					"/>
				</g>
			</g>
		</g>
	</g>
	<g id="_x34_.">
		<g id="Guide_3_" style="&st0;">
		</g>
	</g>
</g>
<g id="folder-1">
	<g>
		<g>
			<g>
				<g>
					<path id="SVGID_15_" style="&st2;" d="M62.4,362.8c-3.1,1.1-5.6,4.6-5.6,7.6v0.6c0,1.4-1.7,5.9-3.7,6.6l0,0
						c-2.8,1-5.1,4.2-5.1,7.1v27.1l-11.2,4.1c0,0-5,1.5-3.2,6.9l11.8,56.5c0,3.1,2.2,4.7,5.2,3.7l124.5-45.3
						c3.1-1.1,2.5-6.5,2.5-6.5v-93.5c0-2.9-2.3-4.3-5.2-3.3l-65.9,24c-2,0.6-3.6-2.4-3.6-3.9v-0.6c0-3.1-2.5-4.7-5.6-3.6L62.4,362.8
						z"/>
				</g>
				<g>
					<defs>
						<path id="SVGID_1_" d="M62.4,362.8c-3.1,1.1-5.6,4.6-5.6,7.6v0.6c0,1.4-1.7,5.9-3.7,6.6l0,0c-2.8,1-5.1,4.2-5.1,7.1v27.1
							l-11.2,4.1c0,0-5,1.5-3.2,6.9l11.8,56.5c0,3.1,2.2,4.7,5.2,3.7l124.5-45.3c3.1-1.1,2.5-6.5,2.5-6.5v-93.5
							c0-2.9-2.3-4.3-5.2-3.3l-65.9,24c-2,0.6-3.6-2.4-3.6-3.9v-0.6c0-3.1-2.5-4.7-5.6-3.6L62.4,362.8z"/>
					</defs>
					<clipPath id="SVGID_2_">
						<use xlink:href="#SVGID_1_"  style="overflow:visible;"/>
					</clipPath>
					<path style="&st3;" d="M31.9,373.8l146.4-53.3v115.6L31.9,489.4V373.8z"/>
				</g>
			</g>
		</g>
		<polyline style="&st2;" points="176.2,334.1 182.5,335.5 175,344.6 109.6,362 107.8,351.6 100.8,349.9 96,356 47.8,482.7 
			54,484.1 		"/>
		<g>
			<g>
				<g>
					<path id="SVGID_21_" style="&st4;" d="M68.8,364.2c-3.1,1.1-5.6,4.6-5.6,7.6v0.6c0,1.4-1.7,5.9-3.7,6.6l0,0
						c-2.8,1-5.1,4.2-5.1,7.1v27.1l-11.2,4.1c0,0-5,1.5-3.2,6.9l11.8,56.5c0,3.1,2.2,4.7,5.2,3.7l124.5-45.3
						c3.1-1.1,2.5-6.5,2.5-6.5v-93.5c0-2.9-2.3-4.3-5.2-3.3l-65.9,24c-2,0.6-3.6-2.4-3.6-3.9v-1c0-3.1-2.5-4.7-5.6-3.6L68.8,364.2z"
						/>
				</g>
				<g>
					<defs>
						<path id="SVGID_4_" d="M68.8,364.2c-3.1,1.1-5.6,4.6-5.6,7.6v0.6c0,1.4-1.7,5.9-3.7,6.6l0,0c-2.8,1-5.1,4.2-5.1,7.1v27.1
							l-11.2,4.1c0,0-5,1.5-3.2,6.9l11.8,56.5c0,3.1,2.2,4.7,5.2,3.7l124.5-45.3c3.1-1.1,2.5-6.5,2.5-6.5v-93.5
							c0-2.9-2.3-4.3-5.2-3.3l-65.9,24c-2,0.6-3.6-2.4-3.6-3.9v-1c0-3.1-2.5-4.7-5.6-3.6L68.8,364.2z"/>
					</defs>
					<clipPath id="SVGID_5_">
						<use xlink:href="#SVGID_4_"  style="overflow:visible;"/>
					</clipPath>
					<path style="&st5;" d="M38.4,375.2l146.4-53.3v115.6L38.4,490.8V375.2z"/>
				</g>
			</g>
		</g>
		<path style="&st6;" d="M60.9,390l116.9-42.5V376l0,0v61l-11.8-61.2c-1-3.2-5.1-1.5-5.1-1.5l-100,36.5V390z"/>
		<path style="&st2;" d="M43.3,417.1l114.8-41.7c0,0,4.7-1.9,6.6-1c-1.3-0.6-2.3-1.3-3.1-1.7c-2.8-1.5-8.3,0.4-8.3,0.4L45.8,412.5"
			/>
	</g>
</g>
<g id="folder-2">
	<g>
		<g>
			<g>
				<g>
					<path id="SVGID_27_" style="&st2;" d="M346.7,259.4c-3.1,1.1-5.6,4.6-5.6,7.6v0.6c0,1.4-1.7,5.9-3.7,6.6l0,0
						c-2.8,1-5.1,4.2-5.1,7.1v27.1l-11.2,4.1c0,0-5,1.5-3.2,6.9l11.8,56.5c0,3.1,2.2,4.7,5.2,3.7l124.5-45.3
						c3.1-1.1,2.5-6.5,2.5-6.5v-93.5c0-2.9-2.3-4.3-5.2-3.3l-65.9,23.7c-2,0.6-3.6-2.4-3.6-3.9v-0.6c0-3.1-2.5-4.7-5.6-3.6
						L346.7,259.4z"/>
				</g>
				<g>
					<defs>
						<path id="SVGID_6_" d="M346.7,259.4c-3.1,1.1-5.6,4.6-5.6,7.6v0.6c0,1.4-1.7,5.9-3.7,6.6l0,0c-2.8,1-5.1,4.2-5.1,7.1v27.1
							l-11.2,4.1c0,0-5,1.5-3.2,6.9l11.8,56.5c0,3.1,2.2,4.7,5.2,3.7l124.5-45.3c3.1-1.1,2.5-6.5,2.5-6.5v-93.5
							c0-2.9-2.3-4.3-5.2-3.3l-65.9,23.7c-2,0.6-3.6-2.4-3.6-3.9v-0.6c0-3.1-2.5-4.7-5.6-3.6L346.7,259.4z"/>
					</defs>
					<clipPath id="SVGID_7_">
						<use xlink:href="#SVGID_6_"  style="overflow:visible;"/>
					</clipPath>
					<path style="&st7;" d="M316.3,270.4l146.4-53.3v115.6L316.3,386V270.4z"/>
				</g>
			</g>
		</g>
		<polyline style="&st2;" points="460.5,230.8 466.7,232.1 459.3,241.2 394,258.6 392.2,248.2 385.2,246.5 380.4,252.6 332,379.3 
			338.3,380.7 		"/>
		<g>
			<g>
				<g>
					<path id="SVGID_33_" style="&st4;" d="M353.2,260.8c-3.1,1.1-5.6,4.6-5.6,7.6v0.6c0,1.4-1.7,5.9-3.7,6.6l0,0
						c-2.8,1-5.1,4.2-5.1,7.1v27.1l-11.2,4.1c0,0-5,1.5-3.2,6.9l11.8,56.5c0,3.1,2.2,4.7,5.2,3.7L466,335.7c3.1-1.1,2.5-6.5,2.5-6.5
						v-93.5c0-2.9-2.3-4.3-5.2-3.3l-65.9,24c-2,0.6-3.6-2.4-3.6-3.9v-0.6c0-3.1-2.5-4.7-5.6-3.6L353.2,260.8z"/>
				</g>
				<g>
					<defs>
						<path id="SVGID_8_" d="M353.2,260.8c-3.1,1.1-5.6,4.6-5.6,7.6v0.6c0,1.4-1.7,5.9-3.7,6.6l0,0c-2.8,1-5.1,4.2-5.1,7.1v27.1
							l-11.2,4.1c0,0-5,1.5-3.2,6.9l11.8,56.5c0,3.1,2.2,4.7,5.2,3.7L466,335.7c3.1-1.1,2.5-6.5,2.5-6.5v-93.5
							c0-2.9-2.3-4.3-5.2-3.3l-65.9,24c-2,0.6-3.6-2.4-3.6-3.9v-0.6c0-3.1-2.5-4.7-5.6-3.6L353.2,260.8z"/>
					</defs>
					<clipPath id="SVGID_10_">
						<use xlink:href="#SVGID_8_"  style="overflow:visible;"/>
					</clipPath>
					<path style="&st8;" d="M322.6,271.8L469,218.5v115.6l-146.4,53.3V271.8z"/>
				</g>
			</g>
		</g>
		<path style="&st6;" d="M345.3,286.6l116.9-42.5v28.5l0,0v61l-11.8-61.2c-1-3.2-5.1-1.5-5.1-1.5l-100,36.4V286.6z"/>
		<path style="&st2;" d="M327.6,313.7L442.4,272c0,0,4.7-1.9,6.6-1c-1.3-0.6-2.3-1.3-3.1-1.7c-2.8-1.5-8.3,0.4-8.3,0.4L330,309.1"/>
	</g>
</g>
<g id="folder-3">
	<g>
		<g>
			<g>
				<g>
					<path id="SVGID_3_" style="&st2;" d="M172.2,55.1c-3.7,1.3-6.6,5.3-6.6,9v0.8c0,1.8-1.9,7-4.5,7.9h0.1
						c-3.4,1.3-6.1,5.1-6.1,8.4v32.3l-13.4,4.8c0,0-6,1.8-3.8,8.1l14.1,67.4c0,3.7,2.5,5.7,6.2,4.3L307,144.1
						c3.7-1.3,3.1-7.8,3.1-7.8V24.7c0-3.4-2.8-5.2-6.2-3.9l-78.7,28.6c-2.4,0.8-4.3-2.9-4.3-4.7v-0.8c0-3.7-2.9-5.6-6.6-4.2
						L172.2,55.1z"/>
				</g>
				<g>
					<defs>
						<path id="SVGID_11_" d="M172.2,55.1c-3.7,1.3-6.6,5.3-6.6,9v0.8c0,1.8-1.9,7-4.5,7.9h0.1c-3.4,1.3-6.1,5.1-6.1,8.4v32.3
							l-13.4,4.8c0,0-6,1.8-3.8,8.1l14.1,67.4c0,3.7,2.5,5.7,6.2,4.3L307,144.1c3.7-1.3,3.1-7.8,3.1-7.8V24.7c0-3.4-2.8-5.2-6.2-3.9
							l-78.7,28.6c-2.4,0.8-4.3-2.9-4.3-4.7v-0.8c0-3.7-2.9-5.6-6.6-4.2L172.2,55.1z"/>
					</defs>
					<clipPath id="SVGID_12_">
						<use xlink:href="#SVGID_11_"  style="overflow:visible;"/>
					</clipPath>
					<path style="&st9;" d="M135.8,68.5L310.5,4.9v138l-174.7,63.6V68.5z"/>
				</g>
			</g>
		</g>
		<polyline style="&st2;" points="308.1,21 315.5,22.7 306.6,33.5 228.6,54.4 226.5,41.9 218.1,39.9 212.4,47.1 154.7,198.4 
			162.1,200.1 		"/>
		<g>
			<g>
				<g>
					<path id="SVGID_9_" style="&st4;" d="M179.8,56.9c-3.7,1.3-6.6,5.3-6.6,9v0.8c0,1.8-1.9,7-4.5,7.9h0.1
						c-3.4,1.3-6.1,5.1-6.1,8.4v32.3l-13.4,4.8c0,0-6,1.8-3.8,8.1l14.1,67.4c0,3.7,2.5,5.7,6.2,4.3l148.7-54.1
						c3.7-1.3,3.1-7.8,3.1-7.8V26.5c0-3.4-2.8-5.2-6.2-3.9l-78.7,28.6c-2.4,0.8-4.3-2.9-4.3-4.7v-0.6c0-3.7-2.9-5.6-6.6-4.2
						L179.8,56.9z"/>
				</g>
				<g>
					<defs>
						<path id="SVGID_13_" d="M179.8,56.9c-3.7,1.3-6.6,5.3-6.6,9v0.8c0,1.8-1.9,7-4.5,7.9h0.1c-3.4,1.3-6.1,5.1-6.1,8.4v32.3
							l-13.4,4.8c0,0-6,1.8-3.8,8.1l14.1,67.4c0,3.7,2.5,5.7,6.2,4.3l148.7-54.1c3.7-1.3,3.1-7.8,3.1-7.8V26.5
							c0-3.4-2.8-5.2-6.2-3.9l-78.7,28.6c-2.4,0.8-4.3-2.9-4.3-4.7v-0.6c0-3.7-2.9-5.6-6.6-4.2L179.8,56.9z"/>
					</defs>
					<clipPath id="SVGID_14_">
						<use xlink:href="#SVGID_13_"  style="overflow:visible;"/>
					</clipPath>
					<path style="&st10;" d="M143.4,70.1L318.2,6.5v138l-174.7,63.6V70.1z"/>
				</g>
			</g>
		</g>
		<path style="&st6;" d="M170.4,87.8l139.5-50.9v34l0,0l-0.1,72.9l-14-73c-1.1-3.8-6.1-1.8-6.1-1.8l-119.3,43.5L170.4,87.8
			L170.4,87.8z"/>
		<path style="&st2;" d="M149.4,120.1l137.2-49.9c0,0,5.6-2.2,7.9-1.3c-1.5-0.9-2.7-1.5-3.6-2c-3.3-1.9-9.9,0.5-9.9,0.5l-128.7,47.1
			"/>
	</g>
</g>
</svg>
