<?xml version="1.0" encoding="utf-8"?>
<!-- Generator: Adobe Illustrator 22.0.1, SVG Export Plug-In . SVG Version: 6.00 Build 0)  -->
<!DOCTYPE svg PUBLIC "-//W3C//DTD SVG 1.1//EN" "http://www.w3.org/Graphics/SVG/1.1/DTD/svg11.dtd" [
	<!ENTITY st0 "fill:#00ACB5;">
	<!ENTITY st1 "fill:#00BBC2;">
	<!ENTITY st2 "fill:#80DCE0;">
	<!ENTITY st3 "fill:#006369;">
]>
<svg version="1.1" id="block" xmlns="http://www.w3.org/2000/svg" xmlns:xlink="http://www.w3.org/1999/xlink" x="0px" y="0px"
	 viewBox="0 0 500 500" style="enable-background:new 0 0 500 500;" xml:space="preserve">
<g id="diversity">
</g>
<g id="innovation">
</g>
<g id="growth">
</g>
<g id="Layer_4">
	<g>
		<polygon style="&st0;" points="266.6,316.3 283.1,325.8 283.1,287.8 266.6,278.4 266.6,278.4 250,268.9 250,306.9 		"/>
		<polygon style="&st0;" points="283.1,174.2 266.6,164.7 266.6,164.8 250,155.3 250,193.2 266.6,202.6 266.6,202.6 283.1,212 		"/>
		<polygon style="&st0;" points="200.3,183.7 183.7,174.2 183.7,193.2 200.3,202.6 200.3,202.6 216.9,212 216.9,193.1 		"/>
		<polygon style="&st0;" points="233.4,297.4 233.4,259.5 216.9,250 216.9,250 200.3,240.5 200.3,278.4 216.9,287.8 216.9,288 		"/>
		<polygon style="&st0;" points="100.8,183.7 100.8,221.6 117.4,231.1 117.4,231.1 134,240.6 134,202.6 117.4,193.2 117.4,193.1 		
			"/>
		<polygon style="&st0;" points="200.3,126.8 200.3,164.7 216.9,155.3 216.9,155.3 233.4,164.8 233.4,145.9 216.9,136.3 
			216.9,136.3 		"/>
		<polygon style="&st0;" points="167.1,259.4 183.7,268.9 183.7,231.1 167.1,221.6 167.1,221.6 150.6,212.2 150.6,250 167.1,259.5 
					"/>
		<polygon style="&st0;" points="266.6,392.1 266.6,335.3 250,325.8 250,325.8 233.4,316.3 233.4,316.3 216.9,306.9 216.9,306.8 
			200.3,297.4 200.3,297.4 183.7,288 183.7,287.8 167.1,278.4 167.1,278.4 150.6,268.9 150.6,268.9 134,259.4 134,259.5 117.4,250 
			117.4,250 100.8,240.5 100.8,240.6 84.3,231.1 84.3,231.1 67.7,221.6 67.7,278.4 84.3,287.8 84.3,288 100.8,297.4 100.8,297.4 
			117.4,306.8 117.4,306.9 134,316.3 134,316.3 150.6,325.8 150.6,325.8 167.1,335.3 167.1,335.2 183.7,344.7 183.7,344.7 
			200.3,354.3 200.3,354.1 216.9,363.7 216.9,363.7 233.4,373.2 233.4,373.2 250,382.6 250,382.6 		"/>
		<polygon style="&st0;" points="299.7,240.6 283.1,231.1 283.1,250 299.7,259.5 299.7,259.4 316.3,268.9 316.3,250 299.7,240.5 		
			"/>
		<polygon style="&st0;" points="366,221.6 349.4,212.2 349.4,250 366,259.5 366,259.4 382.6,268.9 382.6,231.1 		"/>
		<polygon style="&st0;" points="316.3,193.1 299.7,183.7 299.7,221.6 316.3,212 316.3,212.2 332.9,221.6 332.9,202.6 316.3,193.2 
					"/>
		<polygon style="&st1;" points="167.1,202.6 167.1,202.6 150.6,212.2 167.1,221.6 167.1,221.6 183.7,231.1 183.7,231.1 
			200.3,221.6 200.3,221.6 216.9,212 200.3,202.6 200.3,202.6 183.7,193.2 183.7,193.1 		"/>
		<polygon style="&st1;" points="299.7,278.4 299.7,278.4 316.3,268.9 299.7,259.4 299.7,259.5 283.1,250 283.1,250 266.6,259.4 
			266.6,259.5 250,268.9 266.6,278.4 266.6,278.4 283.1,287.8 283.1,288 		"/>
		<polygon style="&st1;" points="233.4,259.5 233.4,259.4 250,250 250,250 266.6,240.6 250,231.1 250,231.1 233.4,221.6 
			233.4,221.6 216.9,231.1 216.9,231.1 200.3,240.5 216.9,250 216.9,250 		"/>
		<polygon style="&st1;" points="332.9,240.6 332.9,240.5 349.4,231.1 332.9,221.6 332.9,221.6 316.3,212.2 316.3,212 299.7,221.6 
			299.7,221.6 283.1,231.1 299.7,240.6 299.7,240.5 316.3,250 316.3,250 		"/>
		<polygon style="&st1;" points="233.4,145.9 233.4,145.7 250,136.3 250,136.3 266.6,126.8 250,117.4 250,117.3 233.4,107.9 
			233.4,107.9 216.9,117.4 216.9,117.3 200.3,126.8 216.9,136.3 216.9,136.3 		"/>
		<polygon style="&st1;" points="366,202.6 366,202.6 349.4,212.2 366,221.6 366,221.6 382.6,231.1 382.6,231.1 399.2,221.6 
			399.2,221.6 415.7,212 399.2,202.6 399.2,202.6 382.6,193.2 382.6,193.1 		"/>
		<polygon style="&st1;" points="349.4,174.2 332.9,164.7 332.9,164.8 316.3,174.2 316.3,174.2 299.7,183.7 316.3,193.1 
			316.3,193.2 332.9,202.6 332.9,202.6 349.4,193.1 349.4,193.2 366,183.7 		"/>
		<polygon style="&st1;" points="266.6,164.7 283.1,174.2 283.1,174.2 299.7,164.8 299.7,164.7 316.3,155.3 299.7,145.7 
			299.7,145.9 283.1,136.3 283.1,136.3 266.6,145.7 266.6,145.9 250,155.3 266.6,164.8 		"/>
		<polygon style="&st1;" points="200.3,183.7 216.9,193.1 216.9,193.2 233.4,183.7 233.4,183.7 250,174.2 233.4,164.7 233.4,164.8 
			216.9,155.3 216.9,155.3 200.3,164.7 200.3,164.8 183.7,174.2 		"/>
		<polygon style="&st1;" points="150.6,193.2 167.1,183.7 150.6,174.2 150.6,174.2 134,164.7 134,164.8 117.4,174.2 117.4,174.2 
			100.8,183.7 117.4,193.1 117.4,193.2 134,202.6 134,202.6 150.6,193.1 		"/>
		<polygon style="&st2;" points="283.1,231.1 299.7,221.6 299.7,202.6 283.1,212.2 283.1,212 266.6,202.6 266.6,202.6 250,193.2 
			250,231.1 266.6,240.6 266.6,259.4 283.1,250 		"/>
		<polygon style="&st2;" points="167.1,164.7 167.1,164.8 150.6,174.2 167.1,183.7 167.1,202.6 183.7,193.1 183.7,174.2 
			200.3,164.8 200.3,145.9 183.7,155.3 183.7,155.3 		"/>
		<polygon style="&st2;" points="366,259.5 349.4,250 349.4,288 366,278.4 366,278.4 382.6,268.9 366,259.4 		"/>
		<polygon style="&st2;" points="266.6,335.3 266.6,335.2 283.1,325.8 266.6,316.3 266.6,316.3 250,306.9 250,287.8 233.4,297.4 
			233.4,297.4 216.9,288 216.9,287.8 200.3,278.4 200.3,259.5 183.7,268.9 183.7,268.9 167.1,259.4 167.1,259.5 150.6,250 
			150.6,231.1 134,240.5 134,240.6 117.4,231.1 117.4,231.1 100.8,221.6 100.8,202.6 84.3,212.2 84.3,212 67.7,221.6 84.3,231.1 
			84.3,231.1 100.8,240.6 100.8,240.5 117.4,250 117.4,250 134,259.5 134,259.4 150.6,268.9 150.6,268.9 167.1,278.4 167.1,278.4 
			183.7,287.8 183.7,288 200.3,297.4 200.3,297.4 216.9,306.8 216.9,306.9 233.4,316.3 233.4,316.3 250,325.8 250,325.8 		"/>
		<polygon style="&st2;" points="415.7,250 432.3,240.6 415.7,231.1 		"/>
		<polygon style="&st3;" points="299.7,164.8 283.1,174.2 283.1,212.2 299.7,202.6 299.7,183.7 316.3,174.2 316.3,155.3 
			299.7,164.7 		"/>
		<polygon style="&st3;" points="150.6,193.1 134,202.6 134,240.5 150.6,231.1 150.6,212.2 167.1,202.6 167.1,183.7 150.6,193.2 		
			"/>
		<polygon style="&st3;" points="266.6,240.6 250,250 250,250 233.4,259.4 233.4,297.4 250,287.8 250,268.9 266.6,259.5 		"/>
		<polygon style="&st3;" points="299.7,373.2 299.7,373.2 316.3,363.7 316.3,363.7 332.9,354.3 332.9,354.1 349.4,344.7 
			349.4,344.7 366,335.3 366,335.2 382.6,325.8 382.6,325.8 399.2,316.3 399.2,316.3 415.7,306.8 415.7,306.9 432.3,297.4 
			432.3,240.6 415.7,250 415.7,212 399.2,221.6 399.2,221.6 382.6,231.1 382.6,268.9 366,278.4 366,278.4 349.4,288 349.4,231.1 
			332.9,240.5 332.9,240.6 316.3,250 316.3,268.9 299.7,278.4 299.7,278.4 283.1,288 283.1,325.8 266.6,335.2 266.6,392.1 
			283.1,382.6 283.1,382.6 		"/>
		<polygon style="&st3;" points="233.4,221.6 233.4,221.6 250,231.1 250,174.2 233.4,183.7 233.4,183.7 216.9,193.2 216.9,212 
			200.3,221.6 200.3,221.6 183.7,231.1 183.7,268.9 200.3,259.5 200.3,240.5 216.9,231.1 216.9,231.1 		"/>
		<polygon style="&st3;" points="366,202.6 366,183.7 349.4,193.2 349.4,193.1 332.9,202.6 332.9,221.6 349.4,231.1 349.4,212.2 		
			"/>
		<polygon style="&st3;" points="266.6,145.9 266.6,126.8 250,136.3 250,136.3 233.4,145.7 233.4,164.7 250,174.2 250,155.3 		"/>
	</g>
</g>
</svg>
