<?xml version="1.0" encoding="utf-8"?>
<!-- Generator: Adobe Illustrator 22.0.1, SVG Export Plug-In . SVG Version: 6.00 Build 0)  -->
<!DOCTYPE svg PUBLIC "-//W3C//DTD SVG 1.1//EN" "http://www.w3.org/Graphics/SVG/1.1/DTD/svg11.dtd" [
	<!ENTITY st0 "display:none;">
	<!ENTITY st1 "fill:#EFEFEF;">
	<!ENTITY st2 "fill:#CCCCCC;">
	<!ENTITY st3 "fill:#999999;">
	<!ENTITY st4 "fill:#2C3439;">
	<!ENTITY st5 "fill:#73CCD0;">
	<!ENTITY st6 "fill:#00BBC2;">
]>
<svg version="1.1" xmlns="http://www.w3.org/2000/svg" xmlns:xlink="http://www.w3.org/1999/xlink" x="0px" y="0px"
	 viewBox="0 0 500 500" style="enable-background:new 0 0 500 500;" xml:space="preserve">
<g id="imac">
	<g id="_x31_.">
		<g id="Guide" style="&st0;">
		</g>
		<g id="Icon">
		</g>
	</g>
	<g id="_x32_.">
		<g id="Guide_1_" style="&st0;">
		</g>
	</g>
	<g id="_x33_.">
		<g id="Guide_2_" style="&st0;">
		</g>
	</g>
	<g id="_x34_.">
		<g id="Guide_3_" style="&st0;">
		</g>
		<g>
			<polygon style="&st1;" points="341.5,412.2 206.8,461.2 165.9,440.1 300.7,391.1 			"/>
			<g>
				<g>
					<g>
						<g>
							<g>
								<path style="&st2;" d="M44.5,422.7v28.6c0,5.6,4.4,8.3,10,6.3l380.1-138.3c5.4-2,10-8,10-13.6v-28.5L44.5,422.7z"/>
								<polyline style="&st2;" points="47.7,457.5 59.9,465.9 73.2,450.7 								"/>
								<path style="&st3;" d="M444.3,276.8v-242c0-5.6-4.4-8.3-10-6.3L54.2,166.8c-5.6,2-10,8-10,13.6v242L444.3,276.8z"/>
								<polyline style="&st3;" points="44.5,422.5 56.8,431.3 81.4,422.5 53.1,405.2 								"/>
								<polyline style="&st3;" points="441.7,29.1 453.3,37.5 435.2,44 428.1,36.8 								"/>
								<path style="&st2;" d="M210.2,395.7c-4.2,18.8-8.5,37.7-12.7,56.4c39.5-14.3,78.9-28.8,118.4-43.1
									c-4.2-15.8-8.5-31.5-12.7-47.3C272.2,373.1,241.2,384.3,210.2,395.7z"/>
								<path style="&st1;" d="M56.8,431.3V460c0,5.6,4.4,8.3,10,6.3L446.9,328c5.4-2,10-8,10-13.6v-28.6L56.8,431.3z"/>
								<path style="&st4;" d="M456.8,285.8v-242c0-5.6-4.4-8.4-10-6.3L66.7,175.8c-5.6,2-10,8-10,13.6v242L456.8,285.8z"/>
								<polygon style="&st5;" points="73.2,408.9 73.2,189 440.4,55.4 440.4,275.2 								"/>
							</g>
						</g>
					</g>
					<polygon style="&st3;" points="197.7,452.1 189.4,449.9 196.3,419.1 205.8,415.7 					"/>
				</g>
			</g>
			<polygon style="&st3;" points="341.5,412.2 341.5,420.7 206.8,471.1 206.8,461.2 			"/>
			<polygon style="&st3;" points="206.8,471.1 165.9,448.7 165.9,440.1 206.8,461.2 			"/>
		</g>
	</g>
</g>
<g id="screen">
	<polygon style="&st6;" points="174.6,266 174.6,161 350.1,97 350.1,202.1 	"/>
	<polygon style="&st6;" points="345.8,256.2 345.8,217 411,193.3 411,232.5 	"/>
	<polygon style="&st6;" points="345.8,301.8 345.8,262.7 411,239 411,278.1 	"/>
	<polygon style="&st6;" points="271.7,283.3 271.7,244.2 336.9,220.5 336.9,259.6 	"/>
	<polygon style="&st6;" points="271.7,329 271.7,289.9 336.9,266.2 336.9,305.3 	"/>
	<polygon style="&st6;" points="197.7,310.5 197.7,271.4 262.8,247.7 262.8,286.8 	"/>
	<polygon style="&st6;" points="197.7,356.2 197.7,317 262.8,293.3 262.8,332.5 	"/>
	<polygon style="&st6;" points="123.6,337.6 123.6,298.5 188.8,274.8 188.8,313.9 	"/>
	<polygon style="&st6;" points="123.6,383.3 123.6,344.2 188.8,320.5 188.8,359.6 	"/>
</g>
</svg>
