<?xml version="1.0" encoding="utf-8"?>
<!-- Generator: Adobe Illustrator 22.0.1, SVG Export Plug-In . SVG Version: 6.00 Build 0)  -->
<!DOCTYPE svg PUBLIC "-//W3C//DTD SVG 1.1//EN" "http://www.w3.org/Graphics/SVG/1.1/DTD/svg11.dtd" [
	<!ENTITY st0 "fill:#152129;">
	<!ENTITY st1 "fill:#10191F;">
	<!ENTITY st2 "fill:#1E272C;">
	<!ENTITY st3 "fill:#94999D;">
	<!ENTITY st4 "fill:#5D656B;">
	<!ENTITY st5 "fill:#60686E;">
	<!ENTITY st6 "fill:none;">
	<!ENTITY st7 "fill:#00BBC2;">
	<!ENTITY st8 "fill:#80DCE0;">
]>
<svg version="1.1" xmlns="http://www.w3.org/2000/svg" xmlns:xlink="http://www.w3.org/1999/xlink" x="0px" y="0px"
	 viewBox="0 0 500 500" style="enable-background:new 0 0 500 500;" xml:space="preserve">
<g id="pot">
	<g id="diversity">
		<g>
			<g>
				<path style="&st0;" d="M176.3,446.6c0.4,0.4,0.9,0.7,1.4,1.2C177.3,447.5,176.8,447.1,176.3,446.6z"/>
				<path style="&st0;" d="M337.4,436.2c0.6-0.7,0.9-1.3,1.4-2C338.4,434.9,338,435.5,337.4,436.2z"/>
				<path style="&st0;" d="M328.7,444.9c0.6-0.4,1-1,1.6-1.4C329.7,444,329.3,444.5,328.7,444.9z"/>
				<path style="&st0;" d="M323.2,449.1c0.6-0.4,1.2-0.9,1.6-1.2C324.4,448.2,323.8,448.7,323.2,449.1z"/>
				<path style="&st0;" d="M340.7,431.6c0.4-0.7,0.7-1.3,1-2C341.4,430.3,341.2,430.9,340.7,431.6z"/>
				<path style="&st0;" d="M179.9,453.2c3.3,2.6,7.4,5.1,12,7.5c-1.7-0.9-3.3-1.9-4.9-2.7C183.8,455.9,181.6,454.6,179.9,453.2z"/>
				<path style="&st0;" d="M171.4,442.6c0.4,0.4,0.9,0.9,1.4,1.3C172.4,443.5,171.9,443,171.4,442.6z"/>
				<path style="&st0;" d="M301,465.1L301,465.1c1.4-0.6,6.1-2.3,12-5.6c-3.6,1.9-6.2,3.3-11.3,5.3C301.4,465,301.1,465.1,301,465.1
					z"/>
				<path style="&st0;" d="M256.5,474c0.4,0,1.2,0,1.9-0.1c-0.9,0-1.6,0-2.3,0.1C256.2,474,256.3,474,256.5,474z"/>
				<path style="&st0;" d="M343.2,426.8c0.3-0.7,0.4-1.4,0.7-2.2C343.6,425.4,343.5,426.1,343.2,426.8z"/>
				<path style="&st0;" d="M344.9,422.1c0.1-0.7,0.3-1.4,0.4-2.3C345.2,420.5,345.1,421.4,344.9,422.1z"/>
				<path style="&st0;" d="M168.6,439.9c-0.6-0.6-1-1.3-1.6-1.9C167.5,438.6,168,439.3,168.6,439.9z"/>
				<path style="&st0;" d="M335.2,438.7c-0.6,0.7-1.2,1.3-1.7,2C334.1,440,334.7,439.4,335.2,438.7z"/>
				<path style="&st0;" d="M159.1,424.7c0.3,0.7,0.4,1.4,0.7,2.2C159.5,426.1,159.4,425.4,159.1,424.7z"/>
				<path style="&st0;" d="M165.7,438.8c-0.3-0.4-0.6-0.9-1-1.3C165.1,437.8,165.4,438.3,165.7,438.8z"/>
				<path style="&st0;" d="M197.2,463.3c-1.6-0.7-3-1.4-4.5-2.2C194.2,461.8,195.8,462.5,197.2,463.3z"/>
				<path style="&st0;" d="M210.7,468.3c-4.6-1.4-8.8-3-12.7-4.6C201.8,465.3,206,466.9,210.7,468.3z"/>
				<path style="&st0;" d="M169.6,443.9c-0.1-0.1-0.3-0.3-0.3-0.4C169.5,443.6,169.6,443.8,169.6,443.9z"/>
				<path style="&st0;" d="M174.2,448.5L174.2,448.5L174.2,448.5z"/>
				<path style="&st0;" d="M163.7,433.6c0.4,0.7,0.9,1.3,1.3,2C164.4,434.9,164.1,434.4,163.7,433.6z"/>
				<path style="&st0;" d="M213.6,469.2c-1-0.3-1.9-0.6-2.9-0.9C211.7,468.6,212.7,468.9,213.6,469.2z"/>
				<path style="&st0;" d="M179.9,453.2c-1.7-1.3-3.3-2.6-5.2-4.2C176.3,450.3,178,451.7,179.9,453.2z"/>
				<path style="&st0;" d="M157.8,420.2c0.1,0.7,0.3,1.4,0.4,2.2C158.1,421.5,157.9,420.8,157.8,420.2z"/>
				<path style="&st0;" d="M172.8,447.1c-0.7-0.7-1.6-1.7-2.5-2.6C171.1,445.3,171.8,446.2,172.8,447.1z"/>
				<path style="&st0;" d="M160.9,429.2c0.3,0.7,0.7,1.4,1,2C161.7,430.6,161.4,429.9,160.9,429.2z"/>
				<path style="&st0;" d="M157.3,417.7c0.1,0.9,0.3,2.2,0.7,3.8C157.8,420.3,157.5,419.2,157.3,417.7
					C157.3,417.9,157.3,417.7,157.3,417.7z"/>
				<path style="&st0;" d="M261.7,473.7c-1,0-1.9,0.1-2.9,0.1C259.7,473.8,260.7,473.8,261.7,473.7z"/>
				<path style="&st0;" d="M222.2,471.2c-0.7-0.1-1.4-0.3-2.3-0.4C220.8,470.9,221.5,471.1,222.2,471.2z"/>
				<path style="&st0;" d="M236.5,473.4c-2.7-0.3-7.7-0.9-13.6-2C230.3,472.8,235.7,473.2,236.5,473.4z"/>
				<path style="&st0;" d="M330.2,446.9c-0.1,0.1-0.3,0.3-0.6,0.6C329.9,447.4,330,447.2,330.2,446.9z"/>
				<path style="&st0;" d="M340.4,433.6c-0.3,0.4-0.6,1-0.9,1.4C340,434.7,340.1,434.1,340.4,433.6z"/>
				<path style="&st0;" d="M269.8,472.9c0.1,0,0.4,0,0.6-0.1c-1.9,0.3-3.9,0.4-6.1,0.6C266.3,473.4,268.3,473.1,269.8,472.9z"/>
				<path style="&st0;" d="M337.3,438.7c-0.4,0.6-0.9,1.2-1.3,1.7C336.4,439.9,336.8,439.3,337.3,438.7z"/>
				<path style="&st0;" d="M158.8,424.7c-0.1-0.6-0.3-1-0.4-1.6C158.5,423.5,158.6,424.1,158.8,424.7z"/>
				<path style="&st0;" d="M159.8,427.6c-0.1-0.3-0.1-0.4-0.3-0.7C159.6,427,159.6,427.3,159.8,427.6z"/>
				<path style="&st0;" d="M333.8,443.2c-0.1,0.3-0.4,0.4-0.6,0.7C333.4,443.8,333.5,443.5,333.8,443.2z"/>
				<path style="&st0;" d="M161.1,430.8c-0.1-0.1-0.1-0.4-0.3-0.6C160.9,430.5,161.1,430.6,161.1,430.8z"/>
				<path style="&st0;" d="M289,469.2L289,469.2c0,0-0.1,0-0.4,0.1C288.7,469.2,288.8,469.2,289,469.2z"/>
				<path style="&st0;" d="M276.3,471.9L276.3,471.9c0,0-0.1,0-0.3,0C276.1,471.9,276.3,471.9,276.3,471.9z"/>
				<path style="&st0;" d="M275,472.2c-0.7,0.1-1.4,0.3-2.2,0.3C273.5,472.4,274.2,472.4,275,472.2z"/>
				<path style="&st0;" d="M163,434.5c-0.1-0.3-0.3-0.6-0.4-0.9C162.7,433.9,162.8,434.2,163,434.5z"/>
				<path style="&st0;" d="M327.3,449.7c-0.7,0.7-1.7,1.4-2.7,2.2C325.6,451.1,326.4,450.4,327.3,449.7z"/>
				<path style="&st0;" d="M322.5,453.4c0.3-0.1,0.4-0.4,0.7-0.6c-0.3,0.3-0.7,0.6-1,0.7C322.4,453.6,322.5,453.6,322.5,453.4z"/>
				<path style="&st0;" d="M170.3,318.5v0.1C170.3,318.6,170.3,318.6,170.3,318.5L170.3,318.5z"/>
				<path style="&st0;" d="M175.1,309.9L175.1,309.9l-0.1,0.1l0,0C175.1,310.1,175.1,310.1,175.1,309.9z"/>
				<path style="&st0;" d="M183.3,301.4c-0.1,0.1-0.1,0.1-0.3,0.3C183.2,301.6,183.3,301.6,183.3,301.4L183.3,301.4z"/>
				<path style="&st0;" d="M178.9,305.6L178.9,305.6c-0.1,0.1-0.4,0.4-0.6,0.6l0,0C178.6,306,178.7,305.7,178.9,305.6z"/>
				<path style="&st0;" d="M318.8,300.8C318.6,300.8,318.6,300.7,318.8,300.8L318.8,300.8C318.6,300.7,318.6,300.8,318.8,300.8z"/>
				<path style="&st0;" d="M324,305.6c-0.1-0.1-0.3-0.3-0.4-0.4l0,0C323.7,305.3,323.8,305.5,324,305.6z"/>
				<path style="&st0;" d="M237.4,357.6c9.4,0.9,18.9,0.9,28.3,0C256.3,356.5,246.8,356.6,237.4,357.6z"/>
				<path style="&st0;" d="M332.8,319.9c-0.1-0.3-0.1-0.6-0.3-0.9l0,0C332.6,319.3,332.6,319.6,332.8,319.9z"/>
				<path style="&st0;" d="M330.8,315.1c-0.1-0.3-0.3-0.6-0.4-0.7l0,0C330.5,314.6,330.6,314.8,330.8,315.1z"/>
				<path style="&st0;" d="M327.9,310.2c-0.1-0.1-0.3-0.4-0.4-0.6l0,0C327.6,309.9,327.7,310.1,327.9,310.2z"/>
				<path style="&st1;" d="M333.4,321.6c-0.1-0.6-0.3-1.2-0.6-1.7c-0.1-0.3-0.1-0.6-0.3-0.9c-0.3-0.7-0.4-1.4-0.7-2
					c-0.3-0.6-0.6-1.3-0.9-1.9c-0.1-0.3-0.3-0.6-0.4-0.7c-0.4-0.7-0.7-1.3-1.2-2c-0.4-0.7-1-1.3-1.4-2c-0.1-0.1-0.3-0.4-0.4-0.6
					c-0.4-0.6-0.9-1.3-1.4-1.9c-0.6-0.7-1.3-1.4-2-2.2c-0.1-0.1-0.3-0.3-0.4-0.4c-0.6-0.6-1-1.2-1.6-1.7c-1-0.9-2-1.7-3.2-2.7
					c0,0,0,0-0.1,0c-0.6-0.4-1-0.9-1.6-1.3c-1.7-1.3-3.8-2.6-5.8-3.9l-4.6,50.9c1.4-0.7,2.7-1.3,4-2c2-1.2,4-2.3,5.8-3.6
					c0.6-0.4,1.2-0.9,1.7-1.3c1.2-0.9,2.3-1.7,3.3-2.6c0.6-0.6,1.2-1,1.7-1.6c0.9-0.9,1.7-1.6,2.6-2.5c0.6-0.6,1-1.2,1.6-1.7
					c0.7-0.9,1.4-1.6,2-2.5c0.4-0.6,0.9-1.3,1.3-1.9c0.6-0.9,1.2-1.6,1.6-2.5c0.4-0.6,0.7-1.3,1-1.9
					C333.5,322.2,333.4,321.9,333.4,321.6z"/>
				<path style="&st2;" d="M193.9,294.3c-1.9,1-3.6,2.2-5.3,3.3c-0.3,0.1-0.4,0.3-0.7,0.4c-1.6,1.2-3,2.2-4.5,3.3
					c-0.1,0.1-0.1,0.1-0.3,0.3c-0.1,0.1-0.3,0.3-0.4,0.4c-1.3,1.2-2.6,2.3-3.8,3.5c-0.1,0.1-0.4,0.4-0.6,0.6
					c-1.2,1.3-2.3,2.5-3.2,3.8l-0.1,0.1c-0.9,1.3-1.7,2.6-2.5,3.9c-0.1,0.1-0.1,0.3-0.3,0.4c-0.7,1.3-1.3,2.6-1.9,3.9v0.1
					c0,0.1-0.1,0.3-0.1,0.6c-0.4,1.2-0.7,2.5-1,3.6c0,0,0,0.1,0.1,0.1c0.4,0.9,1,1.9,1.6,2.7c0.3,0.6,0.7,1.2,1.2,1.6
					c0.6,0.9,1.3,1.7,2,2.6c0.4,0.6,0.9,1.2,1.4,1.6c0.7,0.9,1.6,1.7,2.5,2.5c0.6,0.6,1,1,1.6,1.4c1,0.9,2,1.7,3.2,2.6
					c0.6,0.4,1,0.9,1.6,1.3c1.7,1.3,3.5,2.5,5.3,3.6c13.4,8.1,30.3,12.9,48,14.5c9.4-1,18.9-1.2,28.3,0c14.7-1.4,28.8-5.2,40.9-11.1
					l4.6-50.9C279.5,276.4,227,275.8,193.9,294.3z"/>
				<path style="&st2;" d="M345.3,419.8c-0.1,0.7-0.3,1.4-0.4,2.3c-0.3,0.9-0.6,1.7-1,2.7c-0.3,0.7-0.4,1.4-0.7,2.2
					c-0.4,0.9-1,1.9-1.4,2.7c-0.3,0.7-0.6,1.3-1,2c-0.6,0.9-1.2,1.7-1.9,2.6c-0.4,0.7-0.9,1.3-1.4,2c-0.7,0.9-1.4,1.6-2.2,2.5
					c-0.6,0.7-1.2,1.3-1.7,2c-1,1-2,1.9-3.2,2.9c-0.6,0.4-1,1-1.6,1.4c-1.2,1-2.5,1.9-3.9,2.9c-0.6,0.4-1,0.9-1.6,1.2
					c-2,1.3-4,2.6-6.2,3.8c-37.7,21-97.5,20.4-133.7-1.3c-2-1.2-3.9-2.5-5.6-3.8c-0.6-0.4-0.9-0.7-1.4-1.2c-1.2-0.9-2.5-1.9-3.5-2.7
					c-0.6-0.4-0.9-0.9-1.4-1.3c-1-0.9-2-1.7-2.9-2.7c-0.6-0.6-1-1.3-1.6-1.9c-0.7-0.7-1.4-1.6-2-2.3c-0.4-0.7-0.9-1.3-1.3-2
					c-0.6-0.7-1.2-1.6-1.6-2.3c-0.4-0.7-0.7-1.4-1-2c-0.4-0.7-0.9-1.6-1.2-2.3c-0.3-0.7-0.4-1.4-0.7-2.2c-0.3-0.7-0.6-1.6-0.9-2.3
					c-0.1-0.7-0.3-1.4-0.4-2.2c-0.1-0.7-0.3-1.6-0.4-2.3c0.1,1.3,0.4,2.5,0.6,3.6c0.1,0.6,0.3,1,0.4,1.6c0.1,0.6,0.3,1,0.4,1.6
					c0.3,0.7,0.4,1.4,0.7,2.2c0.1,0.3,0.1,0.4,0.3,0.7c0.3,1,0.7,1.9,1.2,2.7c0.1,0.1,0.1,0.4,0.3,0.6c0.4,1,0.9,1.9,1.4,2.7
					c0.1,0.3,0.3,0.6,0.4,0.9c0.6,1,1.2,2,1.7,2.9c0.3,0.4,0.6,0.9,1,1.3c0.6,0.9,1.2,1.6,1.6,2.2c0.6,0.7,1.3,1.6,2,2.5
					c0.1,0.1,0.3,0.3,0.3,0.4c0.1,0.1,0.4,0.4,0.6,0.6c0.9,0.9,1.7,1.9,2.5,2.6c0.6,0.6,1,1,1.4,1.4c0,0,0,0,0.1,0
					c0.1,0,0.1,0.1,0.3,0.1l0.1,0.1c1.9,1.6,3.3,2.9,5.2,4.2l0,0c1.9,1.4,3.9,2.7,7.1,4.8c1.6,1,3.2,1.9,4.9,2.7
					c0.3,0.1,0.6,0.3,0.9,0.4c1.4,0.7,2.9,1.4,4.5,2.2c0.3,0.1,0.4,0.1,0.7,0.3c3.9,1.7,8.1,3.3,12.7,4.6c1,0.3,2,0.6,2.9,0.9
					c2.2,0.6,4.3,1.2,6.4,1.6c0.7,0.1,1.6,0.3,2.3,0.4c0.3,0,0.4,0.1,0.7,0.1c5.9,1.2,10.8,1.7,13.6,2c3,0.3,10.3,0.9,19.5,0.7
					c0.7,0,1.6,0,2.3-0.1c0.1,0,0.3,0,0.4,0c0.9,0,1.9-0.1,2.9-0.1c0.6,0,1,0,1.6-0.1c0.4,0,0.7,0,1-0.1c2.2-0.1,4.2-0.4,6.1-0.6
					c0.9-0.1,1.7-0.3,2.5-0.3c0.7-0.1,1.4-0.3,2.2-0.3c0.4,0,0.7-0.1,1.2-0.1c0.1,0,0.1,0,0.3,0c4.8-0.9,8.7-1.7,12.3-2.7
					c0.1,0,0.3-0.1,0.4-0.1h0.1c1.2-0.3,6.4-1.7,11.7-3.9c0.3-0.1,0.4-0.1,0.7-0.3c5.1-2,7.7-3.5,11.3-5.3c0.1-0.1,0.3-0.1,0.6-0.3
					c3.3-1.7,6.4-3.8,8.8-5.6c0.3-0.3,0.7-0.6,1-0.7c0.4-0.4,0.9-0.7,1.3-1c1-0.9,1.9-1.6,2.7-2.2c1-0.9,1.9-1.6,2.3-2.2l0,0
					c0.1-0.1,0.3-0.3,0.6-0.6c1.2-1,2-2,2.9-3c0.1-0.3,0.4-0.4,0.6-0.7c0.7-0.9,1.4-1.9,2.2-2.7c0.4-0.6,0.9-1.2,1.3-1.7
					c0.1-0.1,0.1-0.3,0.3-0.3c0.7-1,1.4-2.2,2.2-3.3c0.3-0.4,0.6-1,0.9-1.4c0.4-0.7,0.7-1.4,1-2c1-2,2.2-4.9,2.7-7.1
					c0.7-2.6,0.9-2.7,1.6-7.4C345.8,418,345.5,418.9,345.3,419.8z"/>
				<path style="&st0;" d="M350.8,365.6c-1.9,1.6-4.5,3.5-6.5,4.9c-0.1,0-0.1,0.1-0.3,0.1c-3,2-5.8,3.8-9.1,5.6c0,0,0,0-0.1,0
					c-6.1,3.2-8.7,4.5-13.3,6.5c-0.1,0-0.1,0.1-0.3,0.1c-1.3,0.6-2.6,1-4.3,1.7c-0.7,0.3-1.3,0.4-2,0.7c-0.1,0.1-0.4,0.1-0.6,0.3
					c-0.3,0.1-0.9,0.3-1.4,0.6c-0.7,0.3-1.3,0.4-1.9,0.7c-0.7,0.3-1.6,0.6-2.5,0.9c-0.4,0.1-0.9,0.3-1.4,0.4c-2.3,0.7-4.8,1.4-7.4,2
					h-0.1c-0.9,0.3-3,0.9-6.2,1.4c-1,0.1-1.9,0.4-2.7,0.6c-4.8,1-11,2-18.2,2.7h-0.1c-1,0.1-2.9,0.3-5.1,0.4
					c-1.3,0.1-2.6,0.1-3.9,0.3c-0.3,0-0.6,0-0.9,0c-2.9,0.1-5.9,0.3-8.2,0.3c-0.3,0-0.7,0-1,0c-13.6,0.1-23.4-1-25.7-1.3
					c-3.3-0.4-6.8-0.9-10.4-1.4c-2.9-0.4-4.9-0.9-7.4-1.4c-0.1,0-0.1,0-0.3,0c-0.3,0-0.6-0.1-0.7-0.1c-0.1,0-0.4-0.1-0.6-0.1
					c-2.5-0.6-5.3-1.2-7.5-1.9c-0.6-0.1-1.3-0.4-1.9-0.6c-1.4-0.4-2.7-0.9-4-1.3c-1.9-0.6-3.8-1.2-5.5-1.7c-0.7-0.3-1.4-0.4-2.2-0.7
					c-0.3-0.1-0.6-0.1-0.9-0.3c-4.6-1.6-11.4-4.8-17.6-8.1l0,0c0,0,0,0-0.1,0c-3-1.7-5.9-3.3-8.4-5.1c-0.4-0.3-0.7-0.4-1-0.7
					c-0.9-0.6-1.7-1.2-2.5-1.7c-1.2-0.9-2.2-1.6-3.2-2.5c-0.3-0.1-0.4-0.3-0.7-0.6c-0.4-0.4-1-0.7-1.4-1.2
					c2.3,17.6,4.5,35.1,6.8,52.7l0,0c0,0,0,0,0,0.1c0.1,0.7,0.3,1.6,0.4,2.3c0.1,0.7,0.3,1.4,0.4,2.2c0.3,0.9,0.6,1.6,0.9,2.3
					c0.3,0.7,0.4,1.4,0.7,2.2c0.3,0.9,0.7,1.6,1.2,2.3c0.3,0.7,0.7,1.4,1,2c0.4,0.9,1,1.6,1.6,2.3c0.4,0.7,0.9,1.3,1.3,2
					c0.6,0.7,1.3,1.6,2,2.3c0.6,0.6,1,1.3,1.6,1.9c0.9,0.9,1.9,1.9,2.9,2.7c0.4,0.4,0.9,0.9,1.4,1.3c1.2,1,2.3,1.9,3.5,2.7
					c0.4,0.4,0.9,0.7,1.4,1.2c1.7,1.3,3.6,2.5,5.6,3.8c36.1,21.8,96,22.4,133.7,1.3c2.2-1.2,4.3-2.5,6.2-3.8
					c0.6-0.4,1.2-0.9,1.6-1.2c1.3-0.9,2.6-1.9,3.9-2.9c0.6-0.4,1-1,1.6-1.4c1-1,2.2-1.9,3.2-2.9c0.7-0.7,1.2-1.3,1.7-2
					c0.7-0.9,1.6-1.6,2.2-2.5c0.6-0.7,0.9-1.3,1.4-2c0.6-0.9,1.3-1.7,1.9-2.6c0.4-0.7,0.7-1.3,1-2c0.4-0.9,1-1.9,1.4-2.7
					c0.3-0.7,0.4-1.4,0.7-2.2c0.3-0.9,0.7-1.7,1-2.7c0.1-0.7,0.3-1.4,0.4-2.3c0.1-0.9,0.4-1.7,0.6-2.6l0,0
					c2.2-17.6,4.3-35.1,6.4-52.7c-0.3,0.1-0.4,0.3-0.6,0.6C351.4,365.1,351.1,365.4,350.8,365.6z"/>
				<path style="&st3;" d="M180.3,280.9c0.3-0.3,0.6-0.4,0.7-0.7C180.7,280.5,180.5,280.6,180.3,280.9z"/>
				<path style="&st3;" d="M319.2,278.1c-1.3-1-2.7-1.9-4.2-2.7l0,0C316.4,276.1,317.9,277.1,319.2,278.1z"/>
				<path style="&st3;" d="M326,284.1c0.9,0.9,1.7,1.7,2.5,2.7C327.7,285.9,326.9,284.9,326,284.1z"/>
				<path style="&st3;" d="M320.8,279.4c1.2,0.9,2.3,1.9,3.3,2.9C323.2,281.3,322.1,280.5,320.8,279.4z"/>
				<path style="&st3;" d="M175.8,285.1c0.1-0.1,0.4-0.4,0.6-0.6C176.1,284.6,176,284.9,175.8,285.1z"/>
				<path style="&st3;" d="M185.7,276.7c0.3-0.1,0.4-0.3,0.7-0.4C186.1,276.4,185.8,276.6,185.7,276.7z"/>
				<path style="&st3;" d="M167.3,298.7c0.1-0.3,0.1-0.4,0.3-0.7C167.5,298.1,167.5,298.4,167.3,298.7z"/>
				<path style="&st3;" d="M175,310.2c-1,1.3-1.7,2.6-2.5,3.9C173.2,312.8,174.1,311.5,175,310.2L175,310.2z"/>
				<path style="&st3;" d="M323.5,305.2c-0.6-0.6-1-1.2-1.7-1.7C322.5,304,322.9,304.6,323.5,305.2L323.5,305.2z"/>
				<path style="&st3;" d="M169.5,293.7c0.1-0.1,0.1-0.3,0.3-0.6C169.6,293.5,169.6,293.6,169.5,293.7z"/>
				<path style="&st3;" d="M318.6,300.7c-0.6-0.4-1-0.9-1.6-1.3C317.6,299.8,318,300.3,318.6,300.7L318.6,300.7z"/>
				<path style="&st3;" d="M172.4,289.3l0.1-0.1C172.5,289.1,172.4,289.1,172.4,289.3z"/>
				<path style="&st3;" d="M165.7,312.7c0-0.1,0-0.3,0-0.4C165.7,312.4,165.7,312.5,165.7,312.7z"/>
				<path style="&st3;" d="M165.6,308.1c0-0.1,0-0.3,0-0.3S165.6,307.9,165.6,308.1z"/>
				<path style="&st3;" d="M166,303.4c0-0.3,0.1-0.4,0.1-0.7C166.2,303,166,303.1,166,303.4z"/>
				<path style="&st3;" d="M327.4,309.6c-0.4-0.6-0.9-1.3-1.4-1.9C326.6,308.5,327,309.1,327.4,309.6L327.4,309.6z"/>
				<path style="&st3;" d="M330.5,314.3c-0.4-0.7-0.7-1.3-1.2-2C329.7,313,330,313.7,330.5,314.3L330.5,314.3z"/>
				<path style="&st3;" d="M337,308.3c0,0.9,0,1.9-0.1,2.7C337,310.1,337,309.2,337,308.3z"/>
				<path style="&st3;" d="M336.5,303.3c0.1,0.9,0.3,1.9,0.3,2.7C336.8,305.2,336.7,304.3,336.5,303.3z"/>
				<path style="&st3;" d="M333.1,293.6c0.4,0.9,1,1.7,1.3,2.7C333.9,295.3,333.5,294.5,333.1,293.6z"/>
				<path style="&st3;" d="M335.2,298.4c0.3,0.9,0.6,1.9,0.9,2.7C335.8,300.3,335.5,299.2,335.2,298.4z"/>
				<path style="&st3;" d="M332.5,319c-0.3-0.7-0.4-1.4-0.9-2C332.1,317.6,332.2,318.3,332.5,319L332.5,319z"/>
				<path style="&st3;" d="M329.9,288.8c0.7,0.9,1.3,1.7,1.9,2.7C331.3,290.6,330.6,289.7,329.9,288.8z"/>
				<path style="&st3;" d="M333.5,322.5L333.5,322.5C333.5,322.4,333.5,322.4,333.5,322.5c0-0.3-0.1-0.6-0.1-0.9
					C333.4,321.9,333.5,322.2,333.5,322.5z"/>
				<path style="&st3;" d="M187.8,298.1c-1.6,1.2-3,2.2-4.5,3.3l0,0C184.8,300.3,186.2,299.2,187.8,298.1z"/>
				<path style="&st3;" d="M169,322.9c0.3-1.2,0.6-2.5,1-3.6C169.8,320.5,169.3,321.6,169,322.9C169,322.8,169,322.9,169,322.9z"/>
				<path style="&st3;" d="M188.6,297.7c1.7-1.2,3.5-2.3,5.3-3.3C192,295.3,190.3,296.5,188.6,297.7z"/>
				<path style="&st3;" d="M182.6,302.1c-1.3,1.2-2.6,2.3-3.8,3.5l0,0C180,304.4,181.3,303.3,182.6,302.1z"/>
				<path style="&st3;" d="M178.3,306.2L178.3,306.2c-1.2,1.3-2.3,2.5-3.2,3.8l0,0C176.1,308.6,177.1,307.5,178.3,306.2z"/>
				<path style="&st3;" d="M172.2,314.6c-0.7,1.3-1.3,2.6-1.9,3.9l0,0C170.9,317.2,171.5,315.9,172.2,314.6z"/>
				<path style="&st3;" d="M148.5,274.5c-1.7,1.6-3.5,3.2-4.9,4.9C145.3,277.7,146.9,276,148.5,274.5z"/>
				<path style="&st3;" d="M281.3,243.5c0.7,0.1,1.3,0.1,2,0.3C282.6,243.7,281.9,243.6,281.3,243.5z"/>
				<path style="&st3;" d="M374.5,307.2c-0.1-0.9-0.4-1.9-0.7-2.9c-0.3-0.9-0.6-1.9-0.9-2.9c0,0.1,0.1,0.4,0.1,0.6
					C373.7,303.7,374.1,305.5,374.5,307.2z"/>
				<path style="&st3;" d="M199.8,248.1c5.1-1.4,11.9-2.7,17.1-3.8C207.5,246.1,200.7,247.9,199.8,248.1z"/>
				<path style="&st3;" d="M245.2,241.4c4.3,0,7.1-0.1,9.1-0.1C251.6,241.3,248.4,241.3,245.2,241.4z"/>
				<path style="&st3;" d="M367.6,290.1c-0.3-0.4-0.7-1-1-1.6c1.3,2,2.6,4.3,3.8,6.4C369.2,293,368.3,291.3,367.6,290.1z"/>
				<path style="&st3;" d="M374.8,308.1c0.1,0.4,0.1,0.9,0.3,1.3C375,308.9,374.8,308.5,374.8,308.1z"/>
				<path style="&st3;" d="M271.6,242.3c-2.6-0.3-6.2-0.6-10.7-0.7c0.6,0,1.2,0,1.9,0.1C266.2,241.9,269,242,271.6,242.3z"/>
				<path style="&st3;" d="M375.8,318.2c0,0.4,0,1,0,1.4C375.8,319.2,375.8,318.6,375.8,318.2z"/>
				<path style="&st3;" d="M375.1,309.9c0.3,1.4,0.4,3,0.6,4.8C375.6,313,375.4,311.4,375.1,309.9z"/>
				<path style="&st3;" d="M137.1,350.3c0-0.1-0.1-0.1-0.1-0.3C137,350.1,137,350.3,137.1,350.3z"/>
				<path style="&st3;" d="M136.2,288.8c-0.7,1-1.3,2-1.9,2.9c-1.4,2.3-2.9,5.5-3.9,7.9c-1.3,3.3-1.6,4.6-2.6,8.4
					c-0.3,1.2-0.9,3.9-1.2,7.8c0.3-4,1-7.9,2.2-11.7C130.6,298.8,133.1,293.6,136.2,288.8z"/>
				<path style="&st3;" d="M295.9,246.2c0.4,0.1,0.7,0.1,1.2,0.3C296.6,246.5,296.4,246.3,295.9,246.2z"/>
				<path style="&st3;" d="M324.3,255.6c2.5,1.2,5.3,2.5,8.4,4C329.3,257.8,327.9,257,324.3,255.6z"/>
				<path style="&st3;" d="M360.1,280.3c0.3,0.3,0.6,0.6,0.9,0.9C360.7,280.9,360.4,280.6,360.1,280.3z"/>
				<path style="&st3;" d="M308.1,249.5h-0.1c1.4,0.4,3.3,1.2,5.6,1.9C311.5,250.7,309.7,250,308.1,249.5z"/>
				<path style="&st3;" d="M189.7,251.3c-4.8,1.6-8.5,3.2-12,4.8c3.2-1.4,5.3-2.3,5.3-2.3C185.8,252.7,187.8,252,189.7,251.3z"/>
				<path style="&st3;" d="M357.2,277.1c0.4,0.4,0.7,0.9,1.2,1.2C357.9,278,357.5,277.6,357.2,277.1z"/>
				<path style="&st3;" d="M284.9,244c0.6,0.1,1.2,0.1,1.7,0.3C286.1,244.3,285.5,244.2,284.9,244z"/>
				<path style="&st3;" d="M291,245.2C291,245.2,291.2,245.2,291,245.2L291,245.2z"/>
				<path style="&st3;" d="M346.4,268.2c2.7,2,5.6,4.3,7.9,6.4C352.1,272.5,349.4,270.3,346.4,268.2z"/>
				<path style="&st3;" d="M368.8,344.8c-0.1,0.1-0.1,0.4-0.3,0.6C368.6,345.2,368.8,344.9,368.8,344.8z"/>
				<path style="&st3;" d="M375.7,315c0,0.6,0,1.3,0.1,2C375.8,316.3,375.8,315.7,375.7,315z"/>
				<path style="&st3;" d="M372.7,336.4v-0.1c-0.1,0.3-0.3,0.6-0.3,0.9C372.5,336.8,372.7,336.5,372.7,336.4z"/>
				<path style="&st3;" d="M374,332.3c0,0.1-0.1,0.4-0.1,0.6C373.8,332.8,374,332.6,374,332.3z"/>
				<path style="&st3;" d="M366.6,348.5c-0.1,0.1-0.3,0.4-0.4,0.6C366.3,348.8,366.4,348.7,366.6,348.5z"/>
				<path style="&st3;" d="M131.9,341.6c-0.1-0.1-0.1-0.4-0.3-0.7C131.8,341.2,131.9,341.4,131.9,341.6z"/>
				<path style="&st3;" d="M363.3,353.1c-1.2,1.4-2.9,3.6-5.1,5.8C360.7,356.3,362.3,354.3,363.3,353.1z"/>
				<path style="&st3;" d="M134.1,345.6c0,0.1,0.1,0.1,0.1,0.3C134.2,345.8,134.1,345.6,134.1,345.6L134.1,345.6z"/>
				<path style="&st3;" d="M143.9,358.8c-0.1-0.1-0.1-0.1-0.3-0.3C143.8,358.6,143.9,358.6,143.9,358.8z"/>
				<path style="&st3;" d="M148.5,363.1c-0.3-0.3-0.7-0.6-1-1C147.8,362.5,148.1,362.8,148.5,363.1z"/>
				<path style="&st3;" d="M357.8,359.4c-0.1,0.1-0.1,0.1-0.3,0.3C357.6,359.5,357.8,359.4,357.8,359.4z"/>
				<path style="&st3;" d="M367.9,346.4c-0.1,0.3-0.4,0.7-0.6,1C367.5,346.9,367.7,346.6,367.9,346.4z"/>
				<path style="&st3;" d="M149.2,274c-0.1,0.1-0.3,0.3-0.4,0.3c0.4-0.4,0.7-0.7,1.2-1C149.8,273.5,149.5,273.8,149.2,274z"/>
				<path style="&st3;" d="M126.8,321.4c0-1.6-0.1-3.2,0-4.9C126.7,317.9,126.7,319.6,126.8,321.4z"/>
				<path style="&st3;" d="M375,328.3c0,0.3-0.1,0.4-0.1,0.7C374.8,328.7,374.8,328.6,375,328.3z"/>
				<path style="&st3;" d="M155.7,268.7c-1.2,0.7-2.3,1.7-3.5,2.7c1.3-1,2.6-2,3.6-2.9C155.7,268.7,155.7,268.7,155.7,268.7z"/>
				<path style="&st3;" d="M162.7,264c0.1,0,0.1-0.1,0.3-0.1C163,263.8,162.8,264,162.7,264z"/>
				<path style="&st3;" d="M139.6,284.2c-1,1.2-1.9,2.6-2.9,4c1-1.4,2-2.9,3.2-4.3C139.7,283.9,139.6,284.1,139.6,284.2z"/>
				<path style="&st3;" d="M130,337c0-0.1-0.1-0.1-0.1-0.3C129.9,336.7,129.9,336.8,130,337z"/>
				<path style="&st3;" d="M375.6,324.4c0,0.3,0,0.4-0.1,0.7C375.6,324.8,375.6,324.7,375.6,324.4z"/>
				<path style="&st3;" d="M375.8,321.1L375.8,321.1v0.1C375.8,321.2,375.8,321.2,375.8,321.1z"/>
				<path style="&st3;" d="M128.4,332.3c-0.1-0.7-0.3-1.4-0.4-2.2C128.1,330.9,128.3,331.6,128.4,332.3z"/>
				<path style="&st3;" d="M127.4,327.4c0,0.1,0,0.3,0.1,0.4c-0.3-1.6-0.4-3.2-0.6-4.8C127,324.5,127.1,326,127.4,327.4z"/>
				<path style="&st3;" d="M168.8,260.5c-1.7,0.9-3.3,1.9-4.9,2.9c1.9-1.2,3.8-2.2,5.6-3.2C169.2,260.2,169,260.4,168.8,260.5z"/>
				<path style="&st3;" d="M315,275.3c-0.6-0.4-1.2-0.9-1.7-1.2C313.8,274.5,314.3,274.8,315,275.3L315,275.3z"/>
				<path style="&st3;" d="M167.9,376.8c0,0-0.1,0-0.1-0.1C167.9,376.7,167.9,376.7,167.9,376.8L167.9,376.8z"/>
				<path style="&st3;" d="M152,366.2c0.3,0.1,0.4,0.3,0.7,0.6C152.4,366.6,152.3,366.4,152,366.2z"/>
				<path style="&st3;" d="M155.9,369.2c0.9,0.6,1.7,1.2,2.5,1.7C157.5,370.3,156.8,369.8,155.9,369.2z"/>
				<path style="&st3;" d="M350.8,365.6c0.3-0.3,0.6-0.4,0.7-0.7c-2.7,2.3-5.2,4.2-7.5,5.6c0.1,0,0.1-0.1,0.3-0.1
					C346.4,369.2,349,367.2,350.8,365.6z"/>
				<path style="&st3;" d="M272.2,395.1c-1.7,0.1-3.5,0.3-5.3,0.4c2.2-0.1,4-0.3,5.1-0.4C272.1,395.1,272.2,395.1,272.2,395.1z"/>
				<path style="&st3;" d="M226.7,394.8c-4.5-0.6-7.7-1-10.1-1.4c3.6,0.6,7.1,1.2,10.4,1.4C226.8,394.8,226.7,394.8,226.7,394.8z"/>
				<path style="&st3;" d="M262.1,395.8c-3.3,0.1-6.4,0.3-9.4,0.3c0.3,0,0.7,0,1,0C256.2,396.1,259.2,396.1,262.1,395.8z"/>
				<path style="&st3;" d="M293.2,391.7c-0.9,0.1-1.7,0.4-2.7,0.6C291.3,392.2,292.2,391.9,293.2,391.7z"/>
				<path style="&st3;" d="M208.9,391.7c-0.4-0.1-0.9-0.1-1.4-0.3c0.1,0,0.4,0.1,0.6,0.1C208.3,391.6,208.6,391.7,208.9,391.7z"/>
				<path style="&st3;" d="M315,385.4c-0.7,0.3-1.4,0.6-2.2,0.7c0.6-0.3,1.2-0.4,1.4-0.6C314.6,385.5,314.9,385.5,315,385.4z"/>
				<path style="&st3;" d="M194,387.7c1.3,0.4,2.7,0.9,4,1.3C196.8,388.6,195.5,388.1,194,387.7z"/>
				<path style="&st3;" d="M308.5,387.7c0.9-0.3,1.7-0.6,2.5-0.9C310.1,387.1,309.2,387.4,308.5,387.7z"/>
				<path style="&st3;" d="M186.4,385.2c0.7,0.3,1.4,0.4,2.2,0.7C187.8,385.7,187.1,385.4,186.4,385.2z"/>
				<path style="&st3;" d="M299.7,390.1c2.6-0.7,5.2-1.4,7.4-2C304.5,388.8,302,389.6,299.7,390.1z"/>
				<path style="&st3;" d="M321.4,382.9c0.1,0,0.1-0.1,0.3-0.1C321.5,382.9,321.4,382.9,321.4,382.9z"/>
				<path style="&st4;" d="M311.2,295.5c2,1.3,3.9,2.6,5.8,3.9c0.6,0.4,1.2,0.9,1.6,1.3c0,0,0,0,0.1,0c1.2,0.9,2.2,1.7,3.2,2.7
					c0.6,0.6,1.2,1.2,1.7,1.7c0.1,0.1,0.3,0.3,0.4,0.4c0.7,0.7,1.4,1.4,2,2.2c0.6,0.6,1,1.3,1.4,1.9c0.1,0.1,0.3,0.4,0.4,0.6
					c0.4,0.7,1,1.3,1.4,2c0.4,0.7,0.7,1.3,1.2,2c0.1,0.3,0.3,0.4,0.4,0.7c0.3,0.6,0.7,1.3,0.9,1.9c0.3,0.7,0.6,1.4,0.9,2
					c0.1,0.3,0.1,0.6,0.3,0.9c0.1,0.6,0.4,1.2,0.6,1.7c0,0.3,0.1,0.4,0.3,0.7c0.4-0.9,0.7-1.6,1.2-2.5c0.3-0.7,0.6-1.3,0.7-2
					c0.3-0.9,0.6-1.7,0.7-2.6c0.1-0.7,0.3-1.3,0.4-2c0.1-0.7,0.1-1.6,0.3-2.3c0.1-0.9,0.1-1.9,0.1-2.7c0-0.7,0-1.4-0.1-2.2
					c-0.1-0.9-0.1-1.9-0.3-2.7c-0.1-0.7-0.3-1.4-0.4-2.2c-0.3-0.9-0.6-1.9-0.9-2.7c-0.3-0.7-0.6-1.4-0.9-2.2
					c-0.4-0.9-0.9-1.9-1.3-2.7c-0.4-0.7-0.7-1.4-1.2-2c-0.6-0.9-1.3-1.7-1.9-2.7c-0.4-0.7-1-1.3-1.4-2c-0.7-0.9-1.6-1.7-2.5-2.7
					c-0.6-0.6-1.2-1.2-1.7-1.7c-1-1-2.2-1.9-3.3-2.9c-0.6-0.4-1.2-1-1.7-1.4c-1.3-1-2.7-1.9-4.2-2.9c-0.6-0.4-1.2-0.9-1.7-1.2
					L311.2,295.5z"/>
				<path style="&st4;" d="M186.4,276.3c-0.3,0.1-0.4,0.3-0.7,0.4c-1.6,1.2-3.2,2.3-4.6,3.5c-0.3,0.3-0.6,0.4-0.7,0.7
					c-1.4,1.2-2.7,2.5-3.9,3.6c-0.1,0.1-0.4,0.4-0.6,0.6c-1.2,1.3-2.3,2.6-3.3,3.9l-0.1,0.1c-1,1.3-1.9,2.7-2.6,4
					c-0.1,0.1-0.1,0.3-0.3,0.6c-0.7,1.3-1.3,2.7-1.9,4c-0.1,0.3-0.1,0.4-0.3,0.7c-0.4,1.3-0.9,2.7-1.2,4c0,0.3-0.1,0.4-0.1,0.7
					c-0.3,1.4-0.4,2.9-0.4,4.2c0,0.1,0,0.3,0,0.3c0,1.4,0,2.7,0.1,4.2c0,0.1,0,0.3,0,0.4c0.1,1.4,0.6,3,1,4.5c0.1,0.3,0.3,0.7,0.4,1
					c0.4,1.2,0.7,2.3,1.3,3.3c0.1,0.4,0.4,0.9,0.7,1.3c0.3-1.2,0.6-2.5,1-3.6c0-0.1,0.1-0.3,0.1-0.6v-0.1c0.6-1.3,1.2-2.6,1.9-3.9
					c0.1-0.1,0.1-0.3,0.3-0.4c0.7-1.3,1.6-2.6,2.5-3.9l0.1-0.1c1-1.3,2-2.6,3.2-3.8c0.1-0.1,0.3-0.4,0.6-0.6
					c1.2-1.2,2.5-2.3,3.8-3.5c0.1-0.1,0.3-0.3,0.4-0.4c0.1-0.1,0.1-0.1,0.3-0.3c1.4-1.2,2.9-2.3,4.5-3.3c0.3-0.1,0.4-0.3,0.7-0.4
					c1.7-1.2,3.5-2.3,5.3-3.3c33.1-18.5,85.6-17.9,117.3,1.2l2-21.4c-32.8-19.8-87.1-20.2-121.2-1.2
					C189.9,274,188.1,275.1,186.4,276.3z"/>
				<path style="&st3;" d="M321.5,337c0.6-0.6,1.2-1,1.7-1.6C322.8,335.9,322.2,336.4,321.5,337z"/>
				<path style="&st3;" d="M318.2,339.6c-0.6,0.4-1.2,0.9-1.7,1.3C317,340.4,317.6,340,318.2,339.6z"/>
				<path style="&st3;" d="M330.9,326.8c-0.4,0.6-0.9,1.3-1.3,1.9C330,328.1,330.5,327.4,330.9,326.8z"/>
				<path style="&st3;" d="M332.5,324.4c0.4-0.6,0.7-1.3,1-1.9l0,0C333.2,323.1,332.9,323.8,332.5,324.4z"/>
				<path style="&st3;" d="M327.6,331.2c-0.6,0.6-1,1.2-1.6,1.7C326.6,332.3,327,331.8,327.6,331.2z"/>
				<path style="&st3;" d="M179.3,335.7c-0.6-0.4-1-1-1.6-1.4C178.1,334.6,178.7,335.2,179.3,335.7z"/>
				<path style="&st3;" d="M175.3,331.8c-0.4-0.6-1-1.2-1.4-1.6C174.2,330.6,174.7,331.2,175.3,331.8z"/>
				<path style="&st3;" d="M183.9,339.6c-0.6-0.4-1-0.9-1.6-1.3C182.9,338.7,183.3,339.1,183.9,339.6z"/>
				<path style="&st3;" d="M171.9,327.4c-0.4-0.6-0.7-1.2-1.2-1.6C171.1,326.4,171.5,327,171.9,327.4z"/>
				<path style="&st3;" d="M169,322.8c-0.3-0.4-0.4-0.9-0.7-1.3c0.3,0.6,0.6,1,0.9,1.6C169.2,322.9,169,322.9,169,322.8
					C169,322.9,169,322.8,169,322.8z"/>
				<path style="&st3;" d="M336.5,313.4c-0.1,0.7-0.3,1.3-0.4,2C336.4,314.7,336.5,314,336.5,313.4z"/>
				<path style="&st3;" d="M335.4,317.9c-0.3,0.7-0.4,1.3-0.7,2C334.9,319.3,335.2,318.6,335.4,317.9z"/>
				<path style="&st3;" d="M167,318.2c-0.1-0.3-0.3-0.7-0.4-1C166.9,317.5,167,317.7,167,318.2z"/>
				<path style="&st5;" d="M375.8,319.6c0-0.4,0-1,0-1.4s0-0.7,0-1.2c0-0.7,0-1.3-0.1-2c0-0.1,0-0.3,0-0.4c-0.1-1.7-0.3-3.3-0.6-4.8
					c0-0.1-0.1-0.4-0.1-0.6c-0.1-0.4-0.1-0.9-0.3-1.3c0-0.3-0.1-0.6-0.1-0.7c-0.4-1.9-0.9-3.5-1.4-5.1c0-0.1-0.1-0.4-0.1-0.6
					c-0.6-2-1.6-4.3-2.6-6.1c0-0.1-0.1-0.3-0.3-0.4c-1-2-2.5-4.3-3.8-6.4c-0.3-0.4-0.4-0.7-0.7-1.2c0,0-1.7-2.7-4.9-6.4
					c-0.3-0.3-0.6-0.6-0.9-0.9c-0.6-0.6-1.2-1.3-1.7-1.9c-0.4-0.4-0.7-0.7-1.2-1.2c-0.9-0.9-1.7-1.6-2.6-2.5l-0.1-0.1
					c-2.3-2-5.3-4.3-7.9-6.4c-0.7-0.6-1.3-1-2-1.4c-1.6-1.2-4-2.6-5.8-3.8c-2-1.3-4-2.3-6.1-3.3c-3-1.6-5.9-3-8.4-4
					c-5.1-2.3-8.7-3.5-9.1-3.6c-0.6-0.1-1-0.3-1.6-0.6c-2.3-0.7-4.2-1.4-5.6-1.9c-3.2-1-5.2-1.6-9.4-2.6c-0.4-0.1-0.9-0.1-1.3-0.3
					s-0.7-0.1-1.2-0.3c-1.7-0.4-3.3-0.7-4.8-1c0,0,0,0-0.1,0c-1.6-0.3-3-0.6-4.3-0.9c-0.6-0.1-1.2-0.1-1.7-0.3
					c-0.6-0.1-1.2-0.1-1.6-0.3c-0.7-0.1-1.4-0.1-2-0.3c-0.1,0-0.3,0-0.3,0c-1.3-0.1-4.6-0.7-9.2-1.2c-2.6-0.3-5.5-0.4-8.8-0.7
					c-0.7,0-1.3,0-1.9-0.1c-2.5-0.1-4-0.1-6.6-0.1c-2,0-4.8,0-9.1,0.1c-0.1,0-0.4,0-0.6,0c-7.8,0.1-21.4,1.6-27.5,2.9H217
					c-5.2,1-12,2.5-17.1,3.8c-4.3,1.2-7.1,2.2-10.1,3.2c-2,0.7-4,1.4-6.6,2.5c0,0-2.2,0.9-5.3,2.3c-2.3,1-5.2,2.5-8.4,4.2
					c-1.9,1-3.8,2-5.6,3.2c-0.3,0.1-0.6,0.3-0.9,0.4c-0.1,0-0.1,0.1-0.3,0.1c-1.2,0.7-2.2,1.3-3.2,2c-0.9,0.6-2,1.4-3.6,2.6
					c-1.2,0.9-2.3,1.7-3.6,2.9c-0.7,0.6-1.4,1.2-2.2,1.9c-0.4,0.3-0.7,0.7-1.2,1c-0.1,0.1-0.1,0.1-0.3,0.3c-1.6,1.4-3.3,3-4.9,4.9
					c-1.2,1.3-2.5,2.6-3.6,4c-0.1,0.1-0.1,0.1-0.3,0.3c-1.2,1.4-2.2,2.9-3.2,4.3c-0.1,0.1-0.3,0.4-0.3,0.6c-3.2,4.9-5.6,10-7.4,15.3
					c-1.2,3.8-1.9,7.8-2.2,11.7c0,0.3,0,0.4,0,0.7c-0.1,1.6,0,3.2,0,4.9c0,0.6,0,1.2,0.1,1.7c0.1,1.6,0.3,3.2,0.6,4.8
					c0,0.1,0,0.1,0,0.3c0.1,0.7,0.3,1.4,0.4,2c0.1,0.7,0.3,1.4,0.4,2.2c0.4,1.6,0.9,2.9,1.3,4.3c0,0.1,0,0.1,0.1,0.3
					c0.6,1.4,1.2,2.7,1.7,4c0.1,0.3,0.1,0.4,0.3,0.7c0.7,1.4,1.3,2.7,2,3.9c0.1,0.1,0.1,0.3,0.3,0.4c0.9,1.6,1.7,2.9,2.6,4
					c0,0.1,0.1,0.1,0.1,0.3c0.3,0.4,0.7,1,1,1.4c1.4,2,3.6,4.6,5.6,6.8c0.1,0.1,0.1,0.1,0.3,0.3c1,1,1.9,2,2.6,2.7
					c0.3,0.3,0.6,0.4,0.9,0.7c0.3,0.3,0.7,0.7,1,1c0.7,0.7,1.4,1.3,2.2,1.9c0.4,0.4,1,0.9,1.4,1.2c0.3,0.1,0.4,0.4,0.7,0.6
					c1,0.9,2.2,1.6,3.2,2.5c0.7,0.6,1.6,1.2,2.5,1.7c0.3,0.3,0.7,0.4,1,0.7c2.3,1.6,5.2,3.3,8.4,5.1c0,0,0.1,0,0.1,0.1
					c6.2,3.3,13,6.5,17.6,8.1c0.3,0.1,0.6,0.1,0.9,0.3c0.7,0.3,1.4,0.4,2.2,0.7c1.7,0.6,3.6,1.2,5.5,1.7c1.4,0.4,2.7,0.9,4,1.3
					c0.7,0.1,1.3,0.4,1.9,0.6c2.2,0.6,5.1,1.3,7.5,1.9c0.4,0.1,1,0.3,1.4,0.3c0.1,0,0.1,0,0.3,0c2.5,0.6,4.5,1,7.4,1.4
					c2.5,0.4,5.5,0.9,10.1,1.4c0.1,0,0.3,0,0.4,0c2.3,0.3,12.1,1.4,25.7,1.3c2.9,0,6.1-0.1,9.4-0.3c0.3,0,0.6,0,0.9,0
					c1.3-0.1,2.6-0.1,3.9-0.3c1.9-0.1,3.6-0.3,5.3-0.4c7.2-0.7,13.4-1.9,18.2-2.7c1-0.1,1.9-0.4,2.7-0.6c3.2-0.7,5.3-1.3,6.2-1.4
					h0.1c2.5-0.6,4.9-1.3,7.4-2c0.4-0.1,0.9-0.3,1.4-0.4c0.9-0.3,1.7-0.6,2.5-0.9c0.6-0.1,1.3-0.4,1.9-0.7c0.7-0.3,1.4-0.6,2.2-0.7
					c0.7-0.3,1.3-0.4,2-0.7c1.7-0.7,3-1.2,4.3-1.7c0.1,0,0.1-0.1,0.3-0.1c4.6-1.9,7.2-3.3,13.3-6.5c0,0,0,0,0.1,0
					c3.3-1.9,6.1-3.6,9.1-5.6c2.3-1.6,4.8-3.3,7.5-5.6c0.3-0.1,0.4-0.3,0.6-0.6l0,0c1.9-1.6,3.6-3.2,5.2-4.9
					c0.1-0.1,0.1-0.1,0.3-0.3s0.3-0.3,0.4-0.4c2.2-2.2,3.9-4.3,5.1-5.8c0.3-0.4,0.6-0.7,0.9-1c0.7-1,1.4-2,2.2-3
					c0.1-0.1,0.3-0.4,0.4-0.6c0.3-0.4,0.6-0.9,0.7-1.2c0.1-0.3,0.4-0.7,0.6-1c0.1-0.3,0.4-0.7,0.6-1c0.1-0.1,0.3-0.4,0.3-0.6
					c1.4-2.6,2.6-5.1,3.6-7.8c0.1-0.3,0.3-0.6,0.3-0.9c0,0,0-0.1,0.1-0.1c0.3-0.9,0.7-1.9,1-2.9c0-0.1,0.1-0.4,0.1-0.6
					c0.3-1,0.6-2.2,0.9-3.3c0-0.1,0.1-0.4,0.1-0.7c0.1-1,0.4-2.2,0.6-3.3c0-0.3,0-0.4,0.1-0.7c0.1-1,0.3-2.2,0.3-3.2
					c0-0.1,0-0.1,0-0.3s0-0.1,0-0.3C375.8,320.3,375.8,320.1,375.8,319.6z M173.7,262c44.7-24.9,115.6-24.1,158.5,1.6
					c42.9,25.9,41.5,66.9-3.3,91.9c-44.7,24.9-115.6,24.1-158.5-1.6C127.4,327.9,129,286.8,173.7,262z"/>
				<path style="&st3;" d="M170.3,353.7c42.9,25.9,113.9,26.6,158.5,1.6c44.7-24.9,46.1-66,3.3-91.9
					c-42.9-25.9-113.9-26.6-158.5-1.6S127.4,327.9,170.3,353.7z M313.1,274.1c0.6,0.4,1.2,0.7,1.7,1.2c1.4,0.9,2.9,1.9,4.2,2.7
					c0.6,0.4,1.2,1,1.7,1.4c1.2,0.9,2.3,1.9,3.3,2.9c0.6,0.6,1.2,1.2,1.7,1.7c0.9,0.9,1.7,1.7,2.5,2.7c0.6,0.6,1,1.3,1.4,2
					c0.7,0.9,1.3,1.7,1.9,2.7c0.4,0.7,0.9,1.4,1.2,2c0.4,0.9,1,1.7,1.3,2.7c0.3,0.7,0.6,1.4,0.9,2.2c0.3,0.9,0.6,1.9,0.9,2.7
					c0.1,0.7,0.3,1.4,0.4,2.2c0.1,0.9,0.3,1.9,0.3,2.7c0,0.7,0.1,1.4,0.1,2.2c0,0.9,0,1.9-0.1,2.7c0,0.7-0.1,1.6-0.3,2.3
					c-0.1,0.7-0.3,1.3-0.4,2c-0.1,0.9-0.4,1.7-0.7,2.6c-0.3,0.7-0.4,1.3-0.7,2c-0.3,0.9-0.7,1.6-1.2,2.5l0,0c-0.3,0.7-0.7,1.3-1,1.9
					c-0.4,0.9-1,1.6-1.6,2.5c-0.4,0.6-0.9,1.3-1.3,1.9c-0.6,0.9-1.3,1.6-2,2.5c-0.6,0.6-1,1.2-1.6,1.7c-0.9,0.9-1.7,1.6-2.6,2.5
					c-0.6,0.6-1.2,1-1.7,1.6c-1,0.9-2.2,1.7-3.3,2.6c-0.6,0.4-1.2,0.9-1.7,1.3c-1.9,1.3-3.8,2.5-5.8,3.6c-1.3,0.7-2.7,1.4-4,2
					c-12,5.9-26.2,9.7-40.9,11.1c-9.4,0.9-18.9,0.9-28.3,0c-17.8-1.6-34.7-6.5-48-14.5c-1.9-1.2-3.8-2.3-5.3-3.6
					c-0.6-0.4-1-0.9-1.6-1.3c-1.2-0.9-2.2-1.7-3.2-2.6c-0.6-0.4-1-1-1.6-1.4c-0.9-0.9-1.7-1.6-2.5-2.5c-0.4-0.6-1-1.2-1.4-1.6
					c-0.7-0.9-1.3-1.7-2-2.6c-0.4-0.6-0.7-1.2-1.2-1.6c-0.6-0.9-1.2-1.9-1.6-2.7c-0.3-0.6-0.6-1-0.9-1.6c-0.6-1.2-0.9-2.3-1.3-3.3
					c-0.1-0.3-0.3-0.7-0.4-1c-0.4-1.4-0.7-3-1-4.5c0-0.1,0-0.3,0-0.4c-0.1-1.4-0.3-2.7-0.1-4.2c0-0.1,0-0.3,0-0.3
					c0-1.4,0.3-2.9,0.4-4.2c0-0.3,0.1-0.4,0.1-0.7c0.3-1.3,0.7-2.7,1.2-4c0.1-0.3,0.1-0.4,0.3-0.7c0.6-1.3,1.2-2.7,1.9-4
					c0.1-0.1,0.1-0.3,0.3-0.6c0.7-1.3,1.6-2.7,2.6-4l0.1-0.1c1-1.3,2.2-2.6,3.3-3.9c0.1-0.1,0.4-0.4,0.6-0.6
					c1.2-1.3,2.5-2.5,3.9-3.6c0.3-0.3,0.6-0.4,0.7-0.7c1.4-1.2,2.9-2.3,4.6-3.5c0.3-0.1,0.4-0.3,0.7-0.4c1.7-1.2,3.6-2.3,5.5-3.5
					C226.1,253.9,280.3,254.3,313.1,274.1z"/>
			</g>
		</g>
	</g>
</g>
<g id="hearts">
	<g>
		<g>
			<path style="&st6;" d="M261.4,61.1c-0.1,0-0.1-0.1-0.3-0.1C261.2,61.1,261.2,61.1,261.4,61.1z"/>
			<path style="&st6;" d="M259.1,60.4c-0.1,0-0.4-0.1-0.6-0.1C258.6,60.2,258.8,60.2,259.1,60.4z"/>
			<path style="&st6;" d="M256.6,59.9c-0.1,0-0.3,0-0.6,0C256.2,59.8,256.3,59.9,256.6,59.9z"/>
			<path style="&st6;" d="M314.9,38.2c-1.2,0.6-2.3,1.2-3.5,1.7C312.5,39.3,313.7,38.7,314.9,38.2z"/>
			<path style="&st6;" d="M334.5,37.4c-1.2-0.4-2.3-0.9-3.5-1C332.2,36.5,333.4,36.9,334.5,37.4z"/>
			<path style="&st6;" d="M250.8,60.1c-0.3,0-0.4,0.1-0.7,0.1C250.4,60.2,250.5,60.1,250.8,60.1z"/>
			<path style="&st6;" d="M318.5,36.9c-0.9,0.3-1.6,0.6-2.5,0.9C316.9,37.4,317.6,37.1,318.5,36.9z"/>
			<path style="&st6;" d="M329.9,36.1c-0.9-0.1-1.7-0.3-2.5-0.3C328.2,35.8,329,35.9,329.9,36.1z"/>
			<path style="&st6;" d="M322.1,36.1c-0.7,0.1-1.6,0.3-2.3,0.4C320.6,36.4,321.4,36.2,322.1,36.1z"/>
			<path style="&st6;" d="M263.1,61.9c0,0,0.1,0,0.1,0.1l0,0C263.3,62.1,263.1,61.9,263.1,61.9z"/>
			<path style="&st6;" d="M323.5,35.8c0.7-0.1,1.6-0.1,2.3-0.1C325.1,35.8,324.4,35.8,323.5,35.8z"/>
			<path style="&st6;" d="M247.2,60.9c-0.1,0-0.3,0.1-0.4,0.1C246.9,61.1,247.1,61.1,247.2,60.9z"/>
			<path style="&st6;" d="M244,62.2c-0.3,0.1-0.6,0.3-0.9,0.4C243.5,62.4,243.8,62.4,244,62.2z"/>
			<path style="&st6;" d="M253,59.8c0.1,0,0.4,0,0.6,0C253.4,59.8,253.1,59.8,253,59.8z"/>
			<path style="&st7;" d="M263.3,62.1L263.3,62.1c9.8,5.6,13.2,19.8,13.4,21c0.7-1.6,14.7-31.4,34.8-43.1c1.2-0.7,2.3-1.2,3.5-1.7
				c0.4-0.1,0.7-0.3,1.2-0.4c0.9-0.3,1.6-0.6,2.5-0.9c0.4-0.1,0.9-0.3,1.3-0.3c0.7-0.1,1.6-0.3,2.3-0.4c0.4-0.1,1-0.1,1.4-0.1
				c0.7-0.1,1.6-0.1,2.3-0.1c0.4,0,1,0,1.4,0c0.9,0,1.7,0.1,2.5,0.3c0.4,0.1,0.9,0.1,1.3,0.1c1.2,0.3,2.3,0.6,3.5,1
				c0.1,0,0.3,0.1,0.4,0.1c1.2,0.4,2.5,1,3.6,1.7l-18.6-10.8c-9.5-5.5-18.8-4-27,0.7C279.6,36.7,269.2,51.8,263.3,62.1L263.3,62.1
				L263.3,62.1z"/>
			<path style="&st7;" d="M243.2,62.5c0.3-0.1,0.6-0.3,0.9-0.4c0.9-0.4,1.9-0.7,2.7-1c0.1,0,0.3-0.1,0.4-0.1c1-0.3,1.9-0.6,2.9-0.7
				c0.3,0,0.4-0.1,0.7-0.1c0.7-0.1,1.4-0.3,2.2-0.3c0.1,0,0.4,0,0.6,0c0.9,0,1.7,0,2.5,0c0.1,0,0.3,0,0.6,0c0.6,0.1,1.3,0.1,1.9,0.3
				c0.1,0,0.4,0.1,0.6,0.1c0.7,0.1,1.4,0.4,2,0.7c0.1,0,0.1,0.1,0.3,0.1c0.6,0.3,1.2,0.6,1.7,0.9c0,0,0.1,0,0.1,0.1l0,0l0,0
				l-18.6-10.8c-5.5-3.2-13.2-3.8-23.4,2.2l18.6,10.8C241,63.7,242.2,63.1,243.2,62.5z"/>
			<path style="&st7;" d="M216.2,85.6c9.1-10.7,17.1-17.5,23.7-21.4l-18.6-10.8c-6.6,3.9-14.6,10.5-23.7,21.4
				c-64.7,75.9,31.9,139.6,37.1,143.1l18.6,10.8C248.2,225.2,151.4,161.5,216.2,85.6z"/>
			<path style="&st8;" d="M343.2,42.6c-2.7-2.3-5.5-3.9-8.2-5.1c-0.1,0-0.3-0.1-0.4-0.1c-1.2-0.4-2.3-0.9-3.5-1
				c-0.4-0.1-0.9-0.1-1.3-0.1c-0.9-0.1-1.7-0.3-2.5-0.3c-0.4,0-1,0-1.4,0c-0.7,0-1.6,0-2.3,0.1c-0.4,0-1,0.1-1.4,0.1
				c-0.7,0.1-1.6,0.3-2.3,0.4c-0.4,0.1-0.9,0.3-1.3,0.3c-0.9,0.3-1.6,0.6-2.5,0.9c-0.4,0.1-0.7,0.3-1.2,0.4
				c-1.2,0.6-2.3,1.2-3.5,1.7c-20.1,11.6-34.1,41.5-34.8,43.1c-0.3-1.2-3.6-15.2-13.4-20.8l-0.1-0.1c-0.6-0.3-1.2-0.6-1.7-0.9
				c-0.1,0-0.1-0.1-0.3-0.1c-0.7-0.3-1.3-0.4-2-0.7c-0.1,0-0.4-0.1-0.6-0.1c-0.6-0.1-1.3-0.3-1.9-0.3c-0.1,0-0.3,0-0.6,0
				c-0.7,0-1.6-0.1-2.5,0c-0.1,0-0.4,0-0.6,0c-0.7,0-1.4,0.1-2.2,0.3c-0.3,0-0.4,0.1-0.7,0.1c-0.9,0.1-1.9,0.4-2.9,0.7
				c-0.1,0-0.3,0.1-0.4,0.1c-0.9,0.3-1.7,0.6-2.7,1c-0.3,0.1-0.6,0.3-0.9,0.4c-1.2,0.6-2.2,1-3.3,1.7c-6.6,3.9-14.6,10.5-23.7,21.4
				c-64.7,75.9,31.9,139.6,37.1,143.1C260.1,221.2,389.7,80.6,343.2,42.6z"/>
		</g>
		<g>
			<path style="&st6;" d="M402.6,202.3c-0.1,0-0.4,0.1-0.6,0.3C402.1,202.4,402.4,202.3,402.6,202.3z"/>
			<path style="&st6;" d="M400.8,203c-0.1,0.1-0.3,0.1-0.6,0.3C400.4,203.1,400.6,203.1,400.8,203z"/>
			<path style="&st6;" d="M404.3,201.7c-0.1,0-0.3,0.1-0.4,0.1C404,201.8,404.2,201.7,404.3,201.7z"/>
			<path style="&st6;" d="M369.3,200.1c-0.1,0-0.3-0.1-0.6-0.1C368.9,200.1,369.1,200.1,369.3,200.1z"/>
			<path style="&st6;" d="M365.3,200c-0.1,0-0.3,0-0.4,0.1C365,200,365.1,200,365.3,200z"/>
			<path style="&st6;" d="M410.1,201.5c-0.1,0-0.4,0-0.6-0.1C409.7,201.4,409.8,201.4,410.1,201.5z"/>
			<path style="&st6;" d="M411.7,202c-0.1,0-0.1,0-0.3-0.1C411.5,202,411.7,202,411.7,202z"/>
			<path style="&st6;" d="M363.3,200.4c-0.3,0-0.4,0.1-0.7,0.1C362.8,200.5,363,200.4,363.3,200.4z"/>
			<path style="&st6;" d="M406.3,201.4c-0.1,0-0.3,0-0.3,0C406.2,201.4,406.3,201.4,406.3,201.4z"/>
			<path style="&st6;" d="M361.1,201c-0.3,0.1-0.6,0.1-0.9,0.3C360.5,201.1,360.8,201.1,361.1,201z"/>
			<path style="&st6;" d="M370.2,200.4c0.1,0,0.1,0.1,0.3,0.1l0,0C370.5,200.5,370.4,200.5,370.2,200.4z"/>
			<path style="&st6;" d="M407.8,201.3c0.1,0,0.4,0,0.6,0C408.1,201.3,407.9,201.3,407.8,201.3z"/>
			<path style="&st6;" d="M358.6,202c-0.3,0.1-0.6,0.3-0.7,0.3C358.1,202.3,358.4,202.1,358.6,202z"/>
			<path style="&st6;" d="M367,199.8c0.1,0,0.3,0,0.4,0C367.3,200,367.2,200,367,199.8z"/>
			<path style="&st7;" d="M371.7,201.1c8.4,4.5,7.8,20.8,7.7,22.1c0.4-0.7,9-13,19.2-18.9c0.6-0.3,1.2-0.6,1.7-0.9
				c0.1-0.1,0.3-0.1,0.6-0.3c0.4-0.1,0.9-0.4,1.2-0.6c0.1-0.1,0.4-0.1,0.6-0.3c0.4-0.1,0.9-0.3,1.3-0.4c0.1,0,0.3-0.1,0.4-0.1
				c0.6-0.1,1.2-0.3,1.7-0.3c0.1,0,0.3,0,0.3,0c0.4,0,0.9-0.1,1.4-0.1c0.1,0,0.4,0,0.6,0c0.4,0,0.9,0,1.2,0.1c0.1,0,0.4,0,0.6,0.1
				c0.4,0.1,0.9,0.3,1.4,0.4c0.1,0,0.1,0,0.3,0.1c0.6,0.1,1.2,0.4,1.6,0.7h0.1L394.9,192c-4.6-2.7-10-1.6-14.9,1.3
				c-3.3,1.9-6.5,4.5-9.2,7.2l1.3,0.7C371.8,201.1,371.8,201.1,371.7,201.1z"/>
			<path style="&st7;" d="M370.5,200.5h0.1C370.6,200.5,370.6,200.5,370.5,200.5C370.6,200.5,370.5,200.5,370.5,200.5z"/>
			<path style="&st7;" d="M357.8,202.4c0.3-0.1,0.6-0.3,0.7-0.3c0.6-0.3,1.2-0.4,1.6-0.7c0.3-0.1,0.6-0.1,0.9-0.3
				c0.4-0.1,1-0.3,1.4-0.4c0.3,0,0.4-0.1,0.7-0.1c0.6-0.1,1-0.3,1.6-0.3c0.1,0,0.3,0,0.4-0.1c0.6,0,1.3-0.1,1.9-0.1
				c0.1,0,0.3,0,0.4,0c0.4,0,0.9,0,1.3,0.1c0.1,0,0.3,0.1,0.6,0.1c0.3,0.1,0.7,0.1,1,0.3c0.1,0,0.3,0,0.3,0.1c0,0,0.1,0,0.1,0.1
				c0.3,0.1,0.6,0.3,0.9,0.4c0.1,0,0.1,0.1,0.3,0.1l-1.3-0.7l-17.5-10.1c-3.6-2-9-2-16.8,2.6L355,204
				C356.2,203.1,357.1,202.7,357.8,202.4z"/>
			<path style="&st7;" d="M347.1,209.5c3-2.5,5.6-4.3,8.2-5.6L336.7,193c-2.5,1.4-5.2,3.3-8.2,5.6c-46,36.9-4.9,106.8-2.7,110.4
				l18.6,10.8C342.2,316.1,301.1,246.3,347.1,209.5z"/>
			<path style="&st8;" d="M420.8,211.7c-2.2-4.6-4.8-7.4-7.4-9c-0.6-0.3-1-0.6-1.6-0.7c-0.1,0-0.1,0-0.3-0.1
				c-0.4-0.1-0.9-0.3-1.4-0.4c-0.1,0-0.4,0-0.6-0.1c-0.4,0-0.7-0.1-1.2-0.1c-0.1,0-0.4,0-0.6,0c-0.4,0-0.9,0-1.4,0.1
				c-0.1,0-0.3,0-0.3,0c-0.6,0.1-1.2,0.1-1.7,0.3c-0.1,0-0.3,0.1-0.4,0.1c-0.4,0.1-0.9,0.3-1.3,0.4c-0.1,0-0.4,0.1-0.6,0.3
				c-0.4,0.1-0.9,0.3-1.2,0.6c-0.1,0.1-0.3,0.1-0.6,0.3c-0.6,0.3-1.2,0.6-1.7,0.9c-10.3,5.9-18.8,18.4-19.2,18.9
				c0-1.2,0.7-17.5-7.7-22.1c-0.3-0.1-0.6-0.3-0.9-0.4h-0.1c-0.1,0-0.1-0.1-0.3-0.1c-0.3-0.1-0.6-0.1-1-0.3c-0.1,0-0.3-0.1-0.6-0.1
				c-0.4,0-0.9-0.1-1.3-0.1c-0.1,0-0.3,0-0.4,0c-0.6,0-1.2,0-1.9,0.1c-0.1,0-0.3,0-0.4,0.1c-0.4,0-1,0.1-1.6,0.3
				c-0.3,0-0.4,0.1-0.7,0.1c-0.4,0.1-1,0.3-1.4,0.4c-0.3,0.1-0.6,0.1-0.9,0.3c-0.6,0.1-1.2,0.4-1.6,0.7c-0.3,0.1-0.6,0.3-0.7,0.3
				c-0.9,0.4-1.7,0.9-2.6,1.4c-2.5,1.4-5.2,3.3-8.2,5.6c-46,36.9-4.9,106.8-2.7,110.4C349.1,316.4,439.3,250.5,420.8,211.7z"/>
		</g>
		<g>
			<path style="&st6;" d="M312.8,256.2c-0.6,0.3-1.2,0.6-1.7,0.9C311.7,256.8,312.3,256.5,312.8,256.2z"/>
			<path style="&st6;" d="M314.7,255.5c-0.4,0.1-0.9,0.3-1.2,0.4C313.8,255.7,314.3,255.6,314.7,255.5z"/>
			<path style="&st6;" d="M316.4,255c-0.4,0-0.7,0.1-1.2,0.3C315.7,255.2,316.2,255.2,316.4,255z"/>
			<path style="&st6;" d="M320.2,255c-0.4,0-0.7-0.1-1.2-0.1C319.5,255,319.9,255,320.2,255z"/>
			<path style="&st6;" d="M324.8,256.8c-0.6-0.3-1.3-0.7-1.9-0.9C323.5,256,324.3,256.3,324.8,256.8z"/>
			<path style="&st6;" d="M275.3,269.8c0.6-0.3,1-0.6,1.4-0.7l0,0C276.3,269.3,275.8,269.5,275.3,269.8z"/>
			<path style="&st6;" d="M322.4,255.6c-0.4-0.1-0.9-0.3-1.3-0.4C321.5,255.3,321.9,255.5,322.4,255.6z"/>
			<path style="&st6;" d="M317.2,255c0.4,0,0.7,0,1.2,0C317.9,254.9,317.6,255,317.2,255z"/>
			<path style="&st7;" d="M279.7,267.9c-0.6,0.1-1,0.3-1.6,0.4C278.7,268.2,279.3,268,279.7,267.9z"/>
			<path style="&st7;" d="M283.8,267.6c-0.4,0-0.9-0.1-1.4-0.1C282.9,267.6,283.4,267.6,283.8,267.6z"/>
			<path style="&st7;" d="M285.5,268c-0.4-0.1-0.7-0.3-1.2-0.3C284.8,267.7,285.1,267.9,285.5,268z"/>
			<path style="&st7;" d="M325,256.8h-0.1H325z"/>
			<path style="&st7;" d="M276.7,269c0.3-0.1,0.6-0.3,0.7-0.4C277.3,268.7,277,268.9,276.7,269L276.7,269z"/>
			<path style="&st7;" d="M285.8,268.2c5.8,2.3,7.7,10.1,7.8,10.7C294,278,301,263,311.1,257c0.6-0.3,1.2-0.6,1.7-0.9
				c0.1-0.1,0.4-0.1,0.6-0.3c0.4-0.1,0.9-0.3,1.2-0.4c0.3,0,0.4-0.1,0.7-0.1c0.4-0.1,0.7-0.1,1.2-0.3c0.3,0,0.4,0,0.7-0.1
				c0.4,0,0.7,0,1.2,0c0.3,0,0.6,0,0.7,0c0.4,0,0.7,0,1.2,0.1c0.3,0,0.4,0,0.7,0.1c0.4,0.1,0.9,0.3,1.3,0.4c0.1,0,0.4,0.1,0.6,0.1
				c0.6,0.3,1.3,0.6,1.9,0.9c0,0,0,0,0.1,0l-18.6-10.8c-4.9-2.9-9.5-2.2-13.7,0.3c-6.8,3.9-12,11.9-15,17.1l9.5,5.5
				C286.7,268.5,286.2,268.3,285.8,268.2z"/>
			<path style="&st7;" d="M280.3,267.7c0.6-0.1,1.3-0.3,1.9-0.3C281.5,267.6,280.9,267.6,280.3,267.7z"/>
			<path style="&st7;" d="M276.7,269c0.3-0.1,0.6-0.3,0.7-0.3c0.1-0.1,0.4-0.1,0.6-0.3c0.6-0.1,1-0.4,1.6-0.4c0.1,0,0.3-0.1,0.6-0.1
				c0.6-0.1,1.3-0.3,1.9-0.3c0.1,0,0.1,0,0.3,0c0.4,0,1,0,1.4,0.1c0.1,0,0.3,0,0.4,0.1c0.4,0.1,0.9,0.1,1.2,0.3c0.1,0,0.1,0,0.3,0.1
				c0.4,0.1,0.9,0.3,1.2,0.6l-9.5-5.5l-9.1-5.3c-2.7-1.6-6.6-1.9-11.7,1l18.6,10.8C275.8,269.5,276.3,269.3,276.7,269z"/>
			<path style="&st7;" d="M263.3,280.7c4.6-5.5,8.7-9,12-11l-18.6-10.8c-3.5,2-7.4,5.5-12,11c-32.2,38.3,16.9,69.2,19.4,70.8
				l18.6,10.8C280,350,231,319,263.3,280.7z"/>
			<path style="&st8;" d="M327,258.2c-0.7-0.6-1.4-1-2-1.4l0,0l0,0c0,0,0,0-0.1,0c-0.6-0.3-1.3-0.7-1.9-0.9
				c-0.1-0.1-0.4-0.1-0.6-0.1c-0.4-0.1-0.9-0.3-1.3-0.4c-0.3,0-0.4-0.1-0.7-0.1c-0.4,0-0.7-0.1-1.2-0.1c-0.3,0-0.6,0-0.7,0
				c-0.4,0-0.7,0-1.2,0c-0.3,0-0.4,0-0.7,0.1c-0.4,0-0.7,0.1-1.2,0.3c-0.3,0-0.4,0.1-0.7,0.1c-0.4,0.1-0.9,0.3-1.2,0.4
				c-0.1,0.1-0.4,0.1-0.6,0.3c-0.6,0.3-1.2,0.6-1.7,0.9c-10.1,5.9-17.2,21-17.5,21.8c-0.1-0.6-2.2-8.4-7.8-10.7
				c-0.1,0-0.1,0-0.3-0.1c-0.4-0.1-0.7-0.3-1.2-0.3c-0.1,0-0.3,0-0.4-0.1c-0.4,0-0.9-0.1-1.4-0.1c-0.1,0-0.1,0-0.3,0
				c-0.6,0-1.2,0.1-1.9,0.3c-0.1,0-0.3,0.1-0.6,0.1c-0.6,0.1-1,0.3-1.6,0.4c-0.1,0.1-0.4,0.1-0.6,0.3c-0.3,0.1-0.6,0.3-0.7,0.4
				c-0.4,0.3-1,0.4-1.4,0.7c-3.5,2-7.4,5.5-12,11c-32.2,38.3,16.9,69.2,19.5,70.8C286.1,347.8,350.6,276.7,327,258.2z"/>
		</g>
		<g>
			<path style="&st6;" d="M327.4,160.5c-0.1,0.1-0.4,0.1-0.6,0.3C327,160.7,327.3,160.5,327.4,160.5z"/>
			<path style="&st6;" d="M331.6,159.5c0.1,0,0.4,0,0.6,0C332.1,159.4,331.8,159.4,331.6,159.5z"/>
			<path style="&st6;" d="M325.8,161.2c-0.1,0.1-0.3,0.1-0.4,0.3C325.4,161.4,325.6,161.2,325.8,161.2z"/>
			<path style="&st6;" d="M309.5,146.1c-0.1,0-0.3-0.1-0.6-0.1C309.2,145.9,309.4,145.9,309.5,146.1z"/>
			<path style="&st6;" d="M335.1,159.8c-0.1,0-0.1,0-0.3,0C334.9,159.8,335.1,159.8,335.1,159.8z"/>
			<path style="&st6;" d="M329,159.9c-0.1,0-0.4,0.1-0.6,0.1C328.6,160.1,328.9,159.9,329,159.9z"/>
			<path style="&st6;" d="M308.4,145.6c-0.1,0-0.4-0.1-0.6-0.1C307.9,145.6,308.1,145.6,308.4,145.6z"/>
			<path style="&st6;" d="M330.6,159.5c-0.1,0-0.4,0.1-0.6,0.1C330.2,159.6,330.5,159.6,330.6,159.5z"/>
			<path style="&st6;" d="M333.6,159.5c-0.1,0-0.3,0-0.6,0C333.4,159.4,333.5,159.4,333.6,159.5z"/>
			<path style="&st6;" d="M301.3,146.2c-0.3,0.1-0.6,0.1-0.9,0.3C300.7,146.3,301,146.3,301.3,146.2z"/>
			<path style="&st6;" d="M298.8,147.1c-0.3,0.1-0.6,0.1-0.9,0.3C298.2,147.2,298.5,147.1,298.8,147.1z"/>
			<path style="&st6;" d="M306.2,145.5c0.3,0,0.4,0,0.7,0C306.6,145.5,306.3,145.5,306.2,145.5z"/>
			<path style="&st6;" d="M305.2,145.5c-0.3,0-0.4,0-0.7,0C304.6,145.5,304.9,145.5,305.2,145.5z"/>
			<path style="&st6;" d="M303.3,145.8c-0.3,0-0.6,0.1-0.9,0.1C302.7,145.8,303,145.8,303.3,145.8z"/>
			<path style="&st7;" d="M313.7,170c0.3-0.3,4.5-4.6,10-7.8c0.4-0.3,1-0.6,1.6-0.9c0.1-0.1,0.3-0.1,0.4-0.3c0.3-0.1,0.7-0.3,1-0.4
				c0.1-0.1,0.4-0.1,0.6-0.3c0.3-0.1,0.6-0.3,1-0.3c0.1,0,0.4-0.1,0.6-0.1c0.3-0.1,0.6-0.1,1-0.3c0.1,0,0.4-0.1,0.6-0.1
				c0.3,0,0.6-0.1,0.9-0.1c0.1,0,0.4,0,0.6,0c0.3,0,0.6,0,1,0c0.1,0,0.3,0,0.6,0c0.4,0,0.7,0.1,1.2,0.3c0.1,0,0.1,0,0.3,0
				c0.4,0.1,0.9,0.3,1.3,0.6l0,0l-18.6-10.8c-1.6-0.9-3.2-1.2-5.1-1C317.6,155,314,168.9,313.7,170z"/>
			<path style="&st7;" d="M295.5,148.4c0.9-0.4,1.7-0.7,2.6-1.2c0.3-0.1,0.6-0.1,0.9-0.3c0.6-0.1,1-0.4,1.6-0.6
				c0.3-0.1,0.6-0.1,0.9-0.3c0.4-0.1,0.9-0.3,1.3-0.3c0.3,0,0.6-0.1,0.9-0.1c0.4,0,0.7-0.1,1.2-0.1c0.3,0,0.6,0,0.7,0
				c0.3,0,0.7,0,1,0c0.3,0,0.4,0,0.7,0c0.3,0,0.6,0,0.9,0.1c0.1,0,0.4,0,0.6,0.1c0.3,0,0.6,0.1,0.7,0.1s0.4,0.1,0.6,0.1
				c0.3,0.1,0.4,0.1,0.7,0.3c0.1,0,0.3,0.1,0.3,0.1l-18.6-10.8c-3-1.7-7.7-1.6-15.2,1.9c-0.7,0.3-1.4,0.7-2.2,1.2l18.6,10.8
				C294,149.2,294.8,148.8,295.5,148.4z"/>
			<path style="&st7;" d="M293.3,149.5l-18.6-10.8c-33.7,19.5-20.8,89-20.1,92.6l18.6,10.8C272.5,238.5,259.7,169,293.3,149.5z"/>
			<path style="&st8;" d="M342.5,173.1c-0.9-7.2-3.2-11-5.9-12.7c-0.4-0.3-0.9-0.4-1.3-0.6c-0.1,0-0.1,0-0.3,0
				c-0.4-0.1-0.7-0.1-1.2-0.3c-0.1,0-0.3,0-0.6,0c-0.3,0-0.6,0-1,0c-0.1,0-0.4,0-0.6,0c-0.3,0-0.6,0-0.9,0.1c-0.1,0-0.4,0.1-0.6,0.1
				c-0.3,0-0.6,0.1-1,0.3c-0.1,0-0.4,0.1-0.6,0.1c-0.3,0.1-0.7,0.3-1,0.3c-0.1,0.1-0.4,0.1-0.6,0.3c-0.3,0.1-0.7,0.3-1,0.4
				c-0.1,0.1-0.3,0.1-0.4,0.3c-0.6,0.3-1,0.6-1.6,0.9c-5.5,3.2-9.8,7.7-10,7.8c0.3-1.2,3.8-15.2-0.9-21.5c-0.7-0.9-1.6-1.7-2.6-2.2
				c-0.3-0.1-0.4-0.3-0.7-0.3c-0.1,0-0.3-0.1-0.6-0.1c-0.3-0.1-0.4-0.1-0.7-0.1c-0.1,0-0.4-0.1-0.6-0.1c-0.3,0-0.6,0-0.9-0.1
				c-0.3,0-0.4,0-0.7,0s-0.6,0-1,0c-0.3,0-0.4,0-0.7,0c-0.3,0-0.7,0.1-1.2,0.1c-0.3,0-0.6,0.1-0.9,0.1c-0.4,0.1-0.9,0.1-1.3,0.3
				c-0.3,0.1-0.6,0.1-0.9,0.3c-0.4,0.1-1,0.3-1.6,0.6c-0.3,0.1-0.6,0.1-0.9,0.3c-0.9,0.3-1.6,0.7-2.6,1.2c-0.7,0.3-1.4,0.7-2.2,1.2
				c-33.7,19.5-20.8,89-20.1,92.6c0.6-0.1,10.4-4.2,23.1-11.6C317.6,218.3,345.5,197.4,342.5,173.1z"/>
		</g>
		<g>
			<path style="&st6;" d="M135.8,226.6c-0.1,0-0.4,0-0.6,0C135.5,226.6,135.7,226.6,135.8,226.6z"/>
			<path style="&st6;" d="M129.3,226.8c-0.1,0-0.3,0-0.6,0.1C128.9,227,129,226.8,129.3,226.8z"/>
			<path style="&st6;" d="M97.8,260.4c-0.9,1.9-1.6,3.6-2.2,5.3C96.2,264.1,96.9,262.2,97.8,260.4z"/>
			<path style="&st6;" d="M95,267.3c-0.4,1.3-0.9,2.6-1.2,3.8C94.2,269.9,94.6,268.6,95,267.3z"/>
			<path style="&st6;" d="M125.5,228c-0.3,0.1-0.4,0.1-0.7,0.3C125,228.1,125.3,228,125.5,228z"/>
			<path style="&st6;" d="M194.8,179.9c-0.9-0.3-1.7-0.4-2.6-0.6C193.2,179.4,194,179.7,194.8,179.9z"/>
			<path style="&st6;" d="M92.4,277.7c-0.1,1.2-0.3,2.5-0.3,3.5C92.2,280,92.3,278.9,92.4,277.7z"/>
			<path style="&st6;" d="M138.3,227L138.3,227L138.3,227z"/>
			<path style="&st6;" d="M187.5,179.3c1.3-0.1,2.6-0.1,3.8,0C190.1,179.1,188.8,179.1,187.5,179.3z"/>
			<path style="&st6;" d="M140.9,227.7c-0.1,0-0.3-0.1-0.4-0.1C140.6,227.7,140.7,227.7,140.9,227.7z"/>
			<path style="&st6;" d="M93.5,272.4c-0.4,1.6-0.7,3-1,4.5C92.7,275.5,93,274,93.5,272.4z"/>
			<path style="&st6;" d="M99.5,301.4c-0.6-0.6-1.2-1.2-1.6-1.7C98.4,300.3,99,300.8,99.5,301.4z"/>
			<path style="&st6;" d="M92,285.5c-0.1-1-0.1-2-0.1-3C92,283.5,92,284.5,92,285.5z"/>
			<path style="&st6;" d="M132,226.6c0.1,0,0.3,0,0.4,0C132.3,226.4,132.2,226.6,132,226.6z"/>
			<path style="&st6;" d="M92.2,286.2c0.1,1.2,0.3,2.3,0.6,3.5C92.4,288.5,92.3,287.4,92.2,286.2z"/>
			<path style="&st6;" d="M95.5,296.6c0.6,0.9,1.2,1.7,1.9,2.5C96.6,298.2,96.1,297.5,95.5,296.6z"/>
			<path style="&st6;" d="M92.9,290.4c0.3,0.9,0.4,1.6,0.9,2.5C93.5,292.2,93.2,291.3,92.9,290.4z"/>
			<path style="&st6;" d="M100.3,302c0.7,0.7,1.6,1.3,2.5,1.9C101.8,303.3,101,302.7,100.3,302z"/>
			<path style="&st6;" d="M94,293.7c0.4,0.9,0.9,1.7,1.3,2.5C94.9,295.5,94.5,294.6,94,293.7z"/>
			<path style="&st7;" d="M187.5,179.3c1.3-0.1,2.6-0.1,3.8,0c0.3,0,0.6,0,1,0.1c0.9,0.1,1.7,0.3,2.6,0.6c0.1,0,0.4,0.1,0.6,0.1
				c0.9,0.3,1.6,0.6,2.5,1l-18.6-10.8c-2.6-1.6-6.1-2.2-10.4-1.9c-5.9,0.6-11.1,2.3-15.5,4.8l18.6,10.8
				C176.4,181.6,181.6,179.9,187.5,179.3z"/>
			<path style="&st7;" d="M144,229.2c0.9,0.6,1.4,1,1.6,1c0.1-1.7,4.2-33.4,26.4-46.1l-18.6-10.8c-22,12.7-26.2,43.8-26.4,46.1
				L144,229.2C144.2,229.3,144,229.3,144,229.2z"/>
			<path style="&st7;" d="M142.9,228.6c-0.1,0-0.1-0.1-0.3-0.1C142.7,228.6,142.7,228.6,142.9,228.6z"/>
			<path style="&st7;" d="M100.3,302c-0.3-0.1-0.4-0.4-0.6-0.6c-0.6-0.6-1.2-1.2-1.6-1.7c-0.1-0.1-0.4-0.4-0.6-0.6
				c-0.7-0.7-1.3-1.6-1.9-2.5c0-0.1-0.1-0.1-0.1-0.3c-0.4-0.7-0.9-1.6-1.3-2.5c-0.1-0.3-0.3-0.6-0.3-0.9c-0.3-0.7-0.6-1.6-0.9-2.5
				c0-0.3-0.1-0.6-0.1-0.7c-0.3-1.2-0.4-2.3-0.6-3.5c0-0.3,0-0.6,0-0.7c-0.1-1-0.1-2-0.1-3c0-0.4,0-0.7,0-1.2c0-1.2,0.1-2.3,0.3-3.5
				c0-0.3,0-0.4,0.1-0.7c0.3-1.4,0.6-3,1-4.5c0.1-0.4,0.3-0.9,0.3-1.3c0.3-1.3,0.7-2.5,1.2-3.8c0.1-0.4,0.3-1,0.6-1.4
				c0.7-1.7,1.3-3.5,2.2-5.3c7.8-17.3,16-26.2,23.4-30.5c1.2-0.7,2.5-1.3,3.6-1.7c0.3-0.1,0.4-0.1,0.7-0.3c1.2-0.4,2.2-0.7,3.3-1
				c0.1,0,0.3,0,0.6-0.1c1-0.1,1.9-0.3,2.7-0.4c0.1,0,0.3,0,0.4,0c1,0,1.9,0,2.7,0c0.1,0,0.4,0,0.6,0c0.9,0.1,1.6,0.3,2.5,0.4
				c0,0,0,0,0.1,0c0.7,0.1,1.4,0.4,2.2,0.6c0.1,0,0.3,0.1,0.4,0.1c0.6,0.3,1.2,0.4,1.7,0.7c0.1,0,0.1,0.1,0.3,0.1
				c0.4,0.3,0.9,0.4,1.2,0.6h0.1l-17.2-10l-1.4-0.9c-3.3-2-12.1-5.6-23,0.7c-7.4,4.2-15.6,13.2-23.4,30.5
				c-11,24.4-5.2,37.7,6.9,44.8l18.6,10.8c-0.7-0.4-1.3-0.7-1.9-1.2c-0.1,0-0.1-0.1-0.3-0.1C101.8,303.3,101,302.7,100.3,302z"/>
			<path style="&st8;" d="M195.5,180c-0.1,0-0.4-0.1-0.6-0.1c-0.9-0.3-1.7-0.4-2.6-0.6c-0.3,0-0.6-0.1-1-0.1c-1.2-0.1-2.5-0.1-3.8,0
				c-5.9,0.6-11.1,2.3-15.5,4.8c-22.3,12.9-26.2,44.5-26.4,46.1c-0.1-0.1-0.7-0.4-1.6-1c-0.3-0.1-0.7-0.4-1.2-0.6
				c-0.1,0-0.1-0.1-0.3-0.1c-0.6-0.3-1-0.4-1.7-0.7c-0.1,0-0.3-0.1-0.4-0.1c-0.7-0.3-1.4-0.4-2.2-0.6c0,0,0,0-0.1,0
				c-0.7-0.1-1.6-0.3-2.5-0.4c-0.1,0-0.4,0-0.6,0c-0.9-0.1-1.7-0.1-2.7,0c-0.1,0-0.3,0-0.4,0c-0.9,0-1.9,0.1-2.7,0.4
				c-0.1,0-0.3,0-0.6,0.1c-1,0.3-2.2,0.6-3.3,1c-0.3,0.1-0.4,0.1-0.7,0.3c-1.2,0.4-2.3,1-3.6,1.7c-7.4,4.2-15.6,13.2-23.4,30.5
				c-0.9,1.9-1.6,3.6-2.2,5.3c-0.1,0.6-0.3,1-0.6,1.4c-0.4,1.3-0.9,2.6-1.2,3.8c-0.1,0.4-0.3,0.9-0.3,1.3c-0.4,1.6-0.7,3-1,4.5
				c0,0.3,0,0.4-0.1,0.7c-0.1,1.2-0.3,2.5-0.3,3.5c0,0.4,0,0.9,0,1.2c0,1,0,2,0.1,3c0,0.3,0,0.6,0,0.7c0.1,1.2,0.3,2.3,0.6,3.5
				c0,0.3,0.1,0.6,0.1,0.7c0.3,0.9,0.4,1.6,0.9,2.5c0.1,0.3,0.3,0.6,0.3,0.9c0.4,0.9,0.9,1.7,1.3,2.5c0,0.1,0.1,0.1,0.1,0.3
				c0.6,0.9,1.2,1.7,1.9,2.5c0.1,0.3,0.4,0.4,0.6,0.6c0.6,0.6,1,1.2,1.6,1.7c0.1,0.1,0.4,0.4,0.6,0.6c0.7,0.7,1.6,1.3,2.5,1.9
				c0.1,0,0.1,0.1,0.3,0.1c20.5,13.9,62.7,6.8,66,6.2C172.1,303.9,228,191.1,195.5,180z"/>
		</g>
		<g>
			<path style="&st6;" d="M179.2,309.9c0,0.4-0.1,1-0.1,1.4C179,310.8,179,310.4,179.2,309.9z"/>
			<path style="&st6;" d="M179.2,316.7c0,0.4,0.1,0.7,0.3,1.2C179.3,317.5,179.3,317,179.2,316.7z"/>
			<path style="&st6;" d="M180,319.5c0.1,0.3,0.1,0.6,0.3,0.9C180.2,320.1,180.2,319.8,180,319.5z"/>
			<path style="&st6;" d="M179.9,305.9c-0.1,0.4-0.1,0.9-0.3,1.3C179.6,306.8,179.7,306.3,179.9,305.9z"/>
			<path style="&st6;" d="M245.3,234.1c0.3,0,0.6,0.1,0.9,0.1C245.9,234.1,245.6,234.1,245.3,234.1z"/>
			<path style="&st6;" d="M244.8,234.1c-1.6,0-3.3,0.3-5.3,0.9C241.4,234.4,243.2,234.1,244.8,234.1z"/>
			<path style="&st6;" d="M181.5,322.2c0,0.1,0.1,0.1,0.1,0.3C181.6,322.4,181.5,322.4,181.5,322.2z"/>
			<path style="&st6;" d="M179,314.7c0-0.4,0-0.9,0-1.3C178.9,314,178.9,314.4,179,314.7z"/>
			<path style="&st6;" d="M183.9,324.8c-0.1-0.1-0.4-0.3-0.6-0.4C183.5,324.5,183.6,324.7,183.9,324.8z"/>
			<polygon style="&st6;" points="213.6,274.1 213.6,274.1 201.7,267.2 			"/>
			<path style="&st7;" d="M239.4,234.9c2-0.6,3.8-0.9,5.3-0.9c0.1,0,0.3,0,0.4,0c0.3,0,0.6,0.1,0.9,0.1c1.3,0.1,2.5,0.4,3.5,1
				l-18.6-10.8c-2.5-1.4-5.8-1.6-10.3-0.3c-2.7,0.9-5.1,1.9-7.2,3.2l18.6,10.8C234.4,236.8,236.7,235.8,239.4,234.9z"/>
			<path style="&st7;" d="M201.7,267.2l11.9,6.9c0-1.3-0.4-25,18.6-36l-18.6-10.8c-19.1,11-18.6,34.7-18.6,36l0,0L201.7,267.2z"/>
			<path style="&st7;" d="M183.3,324.4c-0.6-0.6-1.2-1.2-1.7-1.7c0-0.1-0.1-0.1-0.1-0.3c-0.4-0.6-0.7-1.2-1.2-1.9
				c-0.1-0.3-0.3-0.6-0.3-0.9c-0.1-0.6-0.4-1.2-0.6-1.7c-0.1-0.3-0.1-0.7-0.3-1.2c-0.1-0.6-0.1-1.3-0.3-1.9c0-0.4,0-0.9,0-1.3
				c0-0.7,0-1.4,0.1-2.2c0-0.4,0-0.9,0.1-1.4c0.1-0.9,0.3-1.7,0.4-2.7c0.1-0.4,0.1-0.9,0.3-1.3c0.3-1.4,0.7-2.9,1.3-4.5
				c4.8-14.5,11.1-21.7,17.1-25c3-1.7,5.9-2.6,8.4-2.7c2.5-0.3,4.3,0,5.6,0.3c0.4,0.1,0.7,0.1,1,0.3c0.3,0,0.4,0.1,0.4,0.1
				l-11.9-6.9l-6.9-4l0,0c-0.3-0.1-7.2-2.6-15.5,2.2c-5.9,3.5-12.3,10.5-17.1,25c-4.5,13.6-1.7,21.1,4.5,24.7l18.6,10.8
				c-0.1,0-0.1-0.1-0.3-0.1c-0.4-0.3-1-0.7-1.4-1C183.6,324.7,183.5,324.5,183.3,324.4z"/>
			<path style="&st8;" d="M249.7,235.2c-1-0.6-2.2-0.9-3.5-1c-0.3,0-0.6-0.1-0.9-0.1c-0.1,0-0.3,0-0.4,0c-1.6,0-3.3,0.3-5.3,0.9
				c-2.7,0.9-5.1,1.9-7.2,3.2c-19.1,11-18.6,34.7-18.6,36l0,0c0,0-0.1,0-0.4-0.1c-0.3,0-0.6-0.1-1-0.3c-1.2-0.3-3.2-0.6-5.6-0.3
				s-5.3,1-8.4,2.7c-5.9,3.5-12.3,10.5-17.1,25c-0.6,1.6-0.9,3-1.3,4.5c-0.1,0.4-0.1,0.9-0.3,1.3c-0.1,0.9-0.3,1.9-0.4,2.7
				c0,0.4-0.1,1-0.1,1.4c0,0.7-0.1,1.4-0.1,2.2c0,0.4,0,0.9,0,1.3c0,0.7,0.1,1.3,0.3,1.9c0,0.4,0.1,0.7,0.3,1.2
				c0.1,0.6,0.3,1.2,0.6,1.7c0.1,0.3,0.1,0.6,0.3,0.9c0.3,0.7,0.7,1.3,1.2,1.9c0,0.1,0.1,0.1,0.1,0.3c0.4,0.7,1,1.3,1.7,1.7
				c0.1,0.1,0.4,0.3,0.6,0.4c0.4,0.3,0.9,0.7,1.4,1c15,9.1,51.4-4.9,54-5.9C241,315.7,267,245.3,249.7,235.2z"/>
		</g>
	</g>
</g>
</svg>
