<?xml version="1.0" encoding="utf-8"?>
<!-- Generator: Adobe Illustrator 22.0.1, SVG Export Plug-In . SVG Version: 6.00 Build 0)  -->
<!DOCTYPE svg PUBLIC "-//W3C//DTD SVG 1.1//EN" "http://www.w3.org/Graphics/SVG/1.1/DTD/svg11.dtd" [
	<!ENTITY st0 "fill:#72777B;">
	<!ENTITY st1 "fill:#53595D;">
	<!ENTITY st2 "fill:#10181F;">
	<!ENTITY st3 "fill:#5D666B;">
	<!ENTITY st4 "fill:#999999;">
	<!ENTITY st5 "fill:#00BBC2;">
	<!ENTITY st6 "fill:#80DCE0;">
	<!ENTITY st7 "fill:#A5E6E9;">
	<!ENTITY st8 "fill:#B0E9EC;">
]>
<svg version="1.1" xmlns="http://www.w3.org/2000/svg" xmlns:xlink="http://www.w3.org/1999/xlink" x="0px" y="0px"
	 viewBox="0 0 500 500" style="enable-background:new 0 0 500 500;" xml:space="preserve">
<g id="pot">
	<g id="diversity">
	</g>
	<g id="innovation">
	</g>
	<g id="growth">
		<g>
			<g>
				<g>
					<path style="&st0;" d="M400.2,316.4c0,83.6-67.8,151.2-151.2,151.2c-83.6,0-151.2-67.8-151.2-151.2"/>
					<g>
						<path style="&st0;" d="M110.9,379.3c23.2,53.5,76.4,91,138.5,91s115.3-37.4,138.5-91c-27.5,25-79.3,41.7-138.5,41.7
							S138.4,404.1,110.9,379.3z"/>
						<path style="&st1;" d="M98.4,319.3c0,21.3,4.4,41.5,12.5,59.9c27.5,25,69.7,45.5,138.5,45.5c76.1,0,110.9-20.5,138.5-45.5
							c7.9-18.3,12.5-38.7,12.5-59.9H98.4z"/>
					</g>
					<path style="&st2;" d="M400.1,316.4c0,43.3-67.6,78.5-151,78.5s-151-35.1-151-78.5c0-43.3,67.6-78.5,151-78.5
						C332.5,237.9,400.1,273,400.1,316.4z"/>
					<path style="&st3;" d="M330.4,336.2c0,23.5-36.8,42.8-82.3,42.8s-82.3-19.1-82.3-42.8c0-23.5,36.8-42.8,82.3-42.8
						C293.6,293.5,330.4,312.7,330.4,336.2z"/>
				</g>
				<path style="&st4;" d="M239.3,121.2v218.1c0,2.7,4.3,5.2,9.5,5.2c5.2,0,9.5-2.7,9.5-5.2V121.2H239.3z"/>
			</g>
		</g>
	</g>
	<g id="Layer_4">
	</g>
</g>
<g id="leaves">
	<g>
		<path style="&st5;" d="M380.3,102.4c-22.4,7.9-66.2,28-86.2,69.5c5.7-2.8,11.1-4.6,16.3-5.7C327.6,145.2,355.9,113.8,380.3,102.4z
			"/>
		<path style="&st5;" d="M394.2,98.3c0,0-1.6,0.3-4.4,1.3L394.2,98.3z"/>
		<path style="&st6;" d="M394.2,98.3c0.3,0,0.5,0.2,0.6,0.2C394.6,98.3,394.2,98.3,394.2,98.3z"/>
		<path style="&st6;" d="M394.9,98.3h0.2C395,98.3,394.9,98.3,394.9,98.3z"/>
		<path style="&st6;" d="M395.2,98.5C395.5,98.5,395.5,98.5,395.2,98.5L395.2,98.5z"/>
		<path style="&st6;" d="M395,98.5h0.2H395z"/>
		<path style="&st6;" d="M287.3,175.6c2.4-1.4,4.6-2.7,6.8-3.8c20.1-41.5,64-61.6,86.2-69.5c3.8-1.3,6.9-2.4,9.3-3
			c2.8-0.8,4.4-1.3,4.4-1.3c-65.9-12-101.9,12.2-121.3,38.7C284.3,157.1,287.3,175.6,287.3,175.6z"/>
		<path style="&st5;" d="M124.9,99.1c16.9-6.2,32.2-9.8,45.8-11.4C145,90.3,124.9,99.1,124.9,99.1z"/>
		<path style="&st5;" d="M205.3,175.1l-0.8-3.6c-19.7-67.6-79.8-72.3-79.8-72.3s54.5,32.5,61,68.4c5.5,1.7,8.8,3.2,8.8,3.2
			L205.3,175.1z"/>
		<path style="&st7;" d="M204.5,171.4l0.8,3.6v0.2l47.5,23.1l1.6,0.8l0,0l32.7-23.5c0,0-3-18.5-14.5-38.5
			c-15.2-26.5-45-55.8-102-49.1c-13.6,1.6-28.9,5.2-45.8,11.4C124.9,99.1,185,103.8,204.5,171.4z"/>
		<path style="&st5;" d="M254.6,199.2L254.6,199.2l-1.6-0.8c-64.1-5.5-140.7,47.9-167.4,68.4c31.3-18,118.1-64,171.4-52.4l0,0l0,0
			h0.2l0,0c1.6-0.6,17.7-6.5,43.6-0.2C272.9,200,254.6,199.2,254.6,199.2z"/>
		<path style="&st8;" d="M287.3,175.6l-32.7,23.5c0,0,18.3,0.8,46.1,15c23.2,11.7,52.9,32.7,84,70.1c0,0,34.4-46.1-19.4-100
			c-10.6-10.6-29.9-23.2-55.1-18c-5.2,1.1-10.6,2.8-16.3,5.7C291.9,173,289.5,174.1,287.3,175.6z"/>
		<path style="&st6;" d="M253,198.3l-47.5-23.1v-0.2l-10.7-4.3c0,0-3.3-1.6-8.8-3.2C159.8,159.4,84,146.8,76.1,270.3
			c0,0.8-0.2,1.4-0.2,2.2c0,0.6-0.2,1.4-0.2,2.1c0,0,3.5-3,9.8-7.7C112.3,246.3,188.9,192.8,253,198.3z"/>
	</g>
	<g>
		<path style="&st5;" d="M400.2,40c-26.9,10.6-77.7,42.8-100.8,106.3c6.2-5.1,12.2-8.7,17.7-11.4C336.4,101.3,370.1,54.6,400.2,40z"
			/>
		<path style="&st5;" d="M416.7,34.2c0,0-1.9,0.5-5.4,1.7C413,35.3,414.8,34.7,416.7,34.2z"/>
		<path style="&st6;" d="M416.7,34.2c0.3,0,0.5,0,0.6,0C417,34.2,416.7,34.2,416.7,34.2z"/>
		<path style="&st6;" d="M417.3,34.2c0.2,0,0.2,0,0.3,0C417.5,34.2,417.5,34.2,417.3,34.2z"/>
		<path style="&st6;" d="M417.8,34.2C417.9,34.2,418.1,34.3,417.8,34.2L417.8,34.2z"/>
		<path style="&st6;" d="M417.6,34.2c0.2,0,0.2,0,0.2,0H417.6z"/>
		<path style="&st6;" d="M292,152.8c2.5-2.4,5.1-4.6,7.4-6.6c23.1-63.5,73.8-95.7,100.8-106.3c4.4-1.9,8.2-3.3,11.1-4.3
			c3.5-1.1,5.4-1.7,5.4-1.7c-73.1-10.3-117.8,23.2-139.3,64.8C289.7,127.1,292,152.7,292,152.8z"/>
		<path style="&st5;" d="M108.5,46.8c18.5-7.1,35.9-12.5,51.5-15.2C130.1,36.4,108.3,47,108.5,46.8z"/>
		<path style="&st5;" d="M202.2,155.7c-0.3-1.7-0.6-3.6-0.9-5.4c-23.1-99.2-93-103.1-92.9-103.5c0.6-1.4,64.4,43.3,72.2,95.9
			c6,3.2,9.6,5.7,9.6,5.7C194.3,150.9,198.2,153.3,202.2,155.7z"/>
		<path style="&st7;" d="M201.4,150.3c0.3,1.7,0.6,3.6,0.9,5.4c0,0.2,0,0.2,0,0.3c17.5,12.5,35.1,24.2,52.3,34.4
			c0.6,0.3,1.3,0.6,1.7,1.1l0,0c11.8-12.3,23.9-25.3,35.9-38.5c0,0-2.4-25.7-14.8-53.9C261.2,62,226.3,20,160.2,32
			c-15.6,2.5-33.2,8.1-51.5,15.2C108.3,47.1,178.2,51.1,201.4,150.3z"/>
		<path style="&st5;" d="M256.2,191.3L256.2,191.3c-0.6-0.3-1.3-0.6-1.7-1.1c-34.3-2.4-74.2,12.6-102.4,19.7
			c-28.7,8.2-84.7,10.9-89.1,6.9c5.7,7.7,66.2,9.6,97.3,5.1c30.3-3.2,70.6-15.2,98.4-8.7l0,0l0,0h0.2c0,0,0,0,0-0.2
			c1.6-1.4,82.3-37.9,108.7-36.3C339.6,164.8,256,190.9,256.2,191.3z"/>
		<path style="&st8;" d="M292,152.8c-12,13.1-24,26.2-35.9,38.5c-0.2-0.3,32.7-9.6,62.9-13.6c39.6-5.2,109.1,4.3,117.8,13.6
			c0.5,0.6-25.7-70.1-106.6-55.9C324.4,136.4,294.6,150.4,292,152.8z"/>
		<path style="&st6;" d="M254.5,190.2c-17.2-10.1-34.7-22-52.3-34.4c0-0.2,0-0.2,0-0.3c-3.9-2.4-7.9-4.7-11.8-7.3
			c0,0-3.3-3.3-9.6-5.7C92.7,110.3,63,216.6,63,216.6c4.4,3.9,60.5,1.3,89.1-6.9C180.2,203,220.2,187.9,254.5,190.2z"/>
	</g>
</g>
</svg>
