<?xml version="1.0" encoding="utf-8"?>
<!-- Generator: Adobe Illustrator 22.0.1, SVG Export Plug-In . SVG Version: 6.00 Build 0)  -->
<!DOCTYPE svg PUBLIC "-//W3C//DTD SVG 1.1//EN" "http://www.w3.org/Graphics/SVG/1.1/DTD/svg11.dtd" [
	<!ENTITY st0 "fill:#BBBEC1;">
	<!ENTITY st1 "fill:#DFE0E1;">
	<!ENTITY st2 "fill:#5D656B;">
	<!ENTITY st3 "fill:#00BBC2;">
	<!ENTITY st4 "fill:#63D6DA;">
	<!ENTITY st5 "fill:#80DCE0;">
	<!ENTITY st6 "fill:#E2F7F8;">
]>
<svg version="1.1" xmlns="http://www.w3.org/2000/svg" xmlns:xlink="http://www.w3.org/1999/xlink" x="0px" y="0px"
	 viewBox="0 0 500 500" style="enable-background:new 0 0 500 500;" xml:space="preserve">
<g id="Bulb">
	<g id="diversity">
	</g>
	<g id="innovation">
		<g>
			<g>
				<g>
					<path style="&st0;" d="M292.7,399c23.9,13.5,23.9,36.5,0,51c-23.9,13.5-63.5,13.5-87.4,0c-23.9-13.5-23.9-36.5,0-51
						C230.2,385.5,268.8,385.5,292.7,399z"/>
					<path style="&st1;" d="M191.6,412.5c-4.1,7.3-4.1,15.7,0,23.9V412.5z"/>
					<path style="&st1;" d="M211.4,395.9v56.2c14.5,6.3,33.3,9.4,51,7.3v-69.8C244.7,387.6,226.1,389.6,211.4,395.9z"/>
					<path style="&st2;" d="M292.7,386.5c23.9,13.5,23.9,36.5,0,51c-23.9,13.5-63.5,13.5-87.4,0s-23.9-36.5,0-51
						C230.2,373,268.8,373,292.7,386.5z"/>
					<path style="&st0;" d="M292.7,375.1c23.9,13.5,23.9,36.5,0,51c-23.9,13.5-63.5,13.5-87.4,0s-23.9-36.5,0-51
						C230.2,360.4,268.8,360.4,292.7,375.1z"/>
					<path style="&st1;" d="M191.6,387.6c-4.1,7.3-4.1,15.7,0,23.9V387.6z"/>
					<path style="&st1;" d="M211.4,371.9V428c14.5,6.3,33.3,9.4,51,7.3v-69.8C244.7,362.6,226.1,364.7,211.4,371.9z"/>
					<path style="&st2;" d="M292.7,362.6c23.9,13.5,23.9,36.5,0,51c-23.9,13.5-63.5,13.5-87.4,0s-23.9-36.5,0-51
						C230.2,348,268.8,348,292.7,362.6z"/>
					<path style="&st0;" d="M292.7,350c23.9,13.5,23.9,36.5,0,51c-23.9,13.5-63.5,13.5-87.4,0s-23.9-36.5,0-51
						C230.2,336.5,268.8,336.5,292.7,350z"/>
					<path style="&st1;" d="M191.6,363.7c-4.1,7.3-4.1,15.7,0,23.9V363.7z"/>
					<path style="&st1;" d="M211.4,346.9v56.2c14.5,6.3,33.3,9.4,51,7.3v-69.8C244.7,338.6,226.1,340.6,211.4,346.9z"/>
					<path style="&st2;" d="M292.7,337.5c23.9,13.5,23.9,36.5,0,51c-23.9,13.5-63.5,13.5-87.4,0c-23.9-13.5-23.9-36.5,0-51
						C230.2,324.1,268.8,324.1,292.7,337.5z"/>
					<path style="&st0;" d="M292.7,325.1c23.9,13.5,23.9,36.5,0,51c-23.9,13.5-63.5,13.5-87.4,0s-23.9-36.5,0-51
						C230.2,311.6,268.8,311.6,292.7,325.1z"/>
					<path style="&st1;" d="M191.6,338.6c-4.1,7.3-4.1,15.7,0,23.9V338.6z"/>
					<path style="&st1;" d="M211.4,323v56.2c14.5,6.3,33.3,9.4,51,7.3v-69.8C244.7,313.7,226.1,315.7,211.4,323z"/>
					<path style="&st2;" d="M286.5,329.2c20.8,11.4,20.8,31.2,0,42.7s-54.1,11.4-73.9,0s-20.8-31.2,0-42.7
						C233.3,317.7,265.7,317.7,286.5,329.2z"/>
					<path style="&st3;" d="M397.8,187.7c0-82.3-66.6-147.8-147.8-147.8c-82.3,0-147.8,66.6-147.8,147.8c0,53.1,28.2,99,68.8,124.9
						l0,0c26.1,18.8,29.2,39.6,29.2,39.6l0,0c0,7.3,5.3,14.5,14.5,19.8c19.8,11.4,52.1,11.4,70.8,0c9.4-5.3,14.5-12.5,14.5-19.8l0,0
						c0,0,2-19.8,28.2-39.6l0,0C369.8,286.5,397.8,239.8,397.8,187.7z"/>
					<path style="&st4;" d="M250,375.1c-12.5,0-23.9-3.1-33.3-8.4c-7.3-4.1-11.4-9.4-12.5-15.7c0-3.1-2-7.3-3.1-10.4
						c-1-3.1-3.1-6.3-5.3-9.4c-5.3-8.4-13.5-16.7-21.8-22.9c-41.6-26.1-66.6-71.9-66.6-120.8c0-79.2,64.5-143.7,143.7-143.7
						s143.7,64.5,143.7,143.7c0,49-24.9,94.7-66.6,120.8c-7.3,4.1-13.5,10.4-18.8,17.8c-3.1,3.1-5.3,7.3-7.3,11.4
						c-3.1,5.3-3.1,10.4-5.3,16.7c-2,6.3-6.3,10.4-11.4,13.5C273.9,371.9,262.5,375.1,250,375.1z"/>
					<path style="&st5;" d="M279.2,330.2c16.7,9.4,16.7,24.9,0,34.3c-16.7,9.4-43.7,9.4-60.4,0s-16.7-24.9,0-34.3
						C236.5,319.8,262.5,319.8,279.2,330.2z"/>
					<g>
						<g>
							<path style="&st6;" d="M228.2,348c-2,0-4.1-2-5.3-4.1l-14.5-163.5c0-3.1,2-5.3,4.1-5.3c3.1,0,5.3,2,5.3,4.1l14.5,163.5
								C233.3,345.9,231.2,348,228.2,348L228.2,348z"/>
						</g>
					</g>
					<g>
						<g>
							<path style="&st6;" d="M212.5,230.4c-15.7,0-28.2-12.5-28.2-28.2s12.5-28.2,28.2-28.2s28.2,12.5,28.2,28.2
								C240.6,216.9,228.2,230.4,212.5,230.4z M212.5,178.3c-13.5,0-23.9,10.4-23.9,23.9s10.4,23.9,23.9,23.9
								c13.5,0,23.9-10.4,23.9-23.9C235.5,188.7,225.1,178.3,212.5,178.3z"/>
						</g>
						<g>
							<path style="&st6;" d="M237.5,230.4c-15.7,0-28.2-12.5-28.2-28.2s12.5-28.2,28.2-28.2s28.2,12.5,28.2,28.2
								C265.7,216.9,253.1,230.4,237.5,230.4z M237.5,178.3c-13.5,0-23.9,10.4-23.9,23.9s10.4,23.9,23.9,23.9
								c13.5,0,23.9-10.4,23.9-23.9C260.4,188.7,250,178.3,237.5,178.3z"/>
						</g>
						<g>
							<path style="&st6;" d="M261.4,230.4c-15.7,0-28.2-12.5-28.2-28.2s12.5-28.2,28.2-28.2s28.2,12.5,28.2,28.2
								C290.6,216.9,278.2,230.4,261.4,230.4z M261.4,178.3c-13.5,0-23.9,10.4-23.9,23.9s10.4,23.9,23.9,23.9
								c13.5,0,23.9-10.4,23.9-23.9S274.9,178.3,261.4,178.3z"/>
						</g>
						<g>
							<path style="&st6;" d="M286.5,230.4c-15.7,0-28.2-12.5-28.2-28.2s12.5-28.2,28.2-28.2c15.7,0,28.2,12.5,28.2,28.2
								C315.5,216.9,302.1,230.4,286.5,230.4z M286.5,178.3c-13.5,0-23.9,10.4-23.9,23.9s10.4,23.9,23.9,23.9
								c12.5,0,23.9-10.4,23.9-23.9S300,178.3,286.5,178.3z"/>
						</g>
					</g>
					<g>
						<g>
							<path style="&st6;" d="M270.8,348L270.8,348c-3.1,0-5.3-3.1-5.3-5.3L280,179.2c0-3.1,2-4.1,5.3-4.1s4.1,2,4.1,5.3
								l-14.5,163.5C274.9,346.9,272.9,348,270.8,348z"/>
						</g>
					</g>
				</g>
			</g>
		</g>
	</g>
	<g id="growth">
	</g>
	<g id="Layer_4">
	</g>
</g>
<g id="top">
	<path style="&st5;" d="M301,64.8c28.2,16.7,28.2,42.7,0,59.4s-74.9,16.7-103.1,0s-28.2-43.7,0-59.4C226.1,48.1,272.9,48.1,301,64.8
		z"/>
</g>
</svg>
