<?xml version="1.0" encoding="utf-8"?>
<!-- Generator: Adobe Illustrator 22.0.1, SVG Export Plug-In . SVG Version: 6.00 Build 0)  -->
<!DOCTYPE svg PUBLIC "-//W3C//DTD SVG 1.1//EN" "http://www.w3.org/Graphics/SVG/1.1/DTD/svg11.dtd" [
	<!ENTITY st0 "fill:#5C646A;">
	<!ENTITY st1 "fill:#16222A;">
	<!ENTITY st2 "fill:#10191F;">
	<!ENTITY st3 "fill:#FFFFFF;">
	<!ENTITY st4 "fill:#EFEFEF;">
	<!ENTITY st5 "fill:#CCCCCC;">
	<!ENTITY st6 "fill:#999999;">
	<!ENTITY st7 "fill:#00BBC2;">
	<!ENTITY st8 "fill:#BABDBF;">
	<!ENTITY st9 "fill:#263238;">
	<!ENTITY st10 "fill:#192226;">
	<!ENTITY st11 "fill:#D3D5D7;">
	<!ENTITY st12 "fill:#DEE0E1;">
	<!ENTITY st13 "fill:#212121;">
	<!ENTITY st14 "fill:#3C464C;">
	<!ENTITY st15 "fill:#E5E6E7;">
	<!ENTITY st16 "fill:#798085;">
	<!ENTITY st17 "fill:#666D73;">
	<!ENTITY st18 "fill:#E3E5E6;">
	<!ENTITY st19 "fill:#A7ABAF;">
	<!ENTITY st20 "fill:#4DD0E1;">
	<!ENTITY st21 "fill:#CBCDCF;">
	<!ENTITY st22 "fill:#A1E6EF;">
	<!ENTITY st23 "fill:#AFEAF1;">
	<!ENTITY st24 "fill:#21959B;">
	<!ENTITY st25 "fill:#40A4A9;">
	<!ENTITY st26 "fill:#B6B9BC;">
	<!ENTITY st27 "fill:#C1C4C6;">
	<!ENTITY st28 "fill:#B3EBED;">
]>
<svg version="1.1" xmlns="http://www.w3.org/2000/svg" xmlns:xlink="http://www.w3.org/1999/xlink" x="0px" y="0px"
	 viewBox="0 0 300 283" style="enable-background:new 0 0 300 283;" xml:space="preserve">
<g id="phone">
	<path style="&st0;" d="M252.4,136.5l43.9,25.3c4.4,2.6,4.2,6.8-0.4,9.5L109.1,280c-4.6,2.7-11.9,2.8-16.3,0.3L3.7,228.9
		c-4.4-2.6-4.2-6.8,0.4-9.5l186.8-108.7l33.2,16.2L252.4,136.5z"/>
	<polygon style="&st1;" points="272,156.4 181.7,104.2 145.9,243.9 271.9,176.5 272,169.5 271.9,169.5 	"/>
	<polygon style="&st2;" points="181.7,104.2 24.3,195.9 24.2,210 24.3,210 24.2,223.1 103.3,267.5 145.9,243.9 	"/>
	<path style="&st3;" d="M288.8,152.9l-128.7,74.9l-4.8,2.8l-15.7,9.1l-8.8,5.1l-22.1,12.9c-4.5,2.6-11.5,2.8-15.8,0.3l-42.3-24.4
		l2.9-1.6c3.6,1.7,8.8,1.6,12.1-0.3c3.3-1.9,3.5-5,0.5-7l3.9-2.2l44.6,25.7l16.3-9.5l4.2-2.5l20-11.6l5-2.9l111.9-65.1l-44.6-25.7
		l8.8-5.1l9.5,5.4c1,0.5,4.2-1.3,3.2-1.8l-9.5-5.4l7.4-4.3l42.3,24.4C293.4,146.2,293.2,150.4,288.8,152.9z"/>
	<path style="&st4;" d="M290.3,143.1c4.9,2.9,4.7,7.6-0.4,10.5l-180,104.7c-5.1,3-13.3,3.1-18.2,0.2L6,209
		c-4.9-2.9-4.7-7.6,0.4-10.5L186.5,93.8c5.1-3,13.3-3.1,18.2-0.3L290.3,143.1z M108.7,257.7l180.1-104.7c4.4-2.6,4.6-6.7,0.4-9.2
		l-42.3-24.4l-43.5-25.1c-4.2-2.5-11.3-2.3-15.8,0.2L7.6,199.2c-4.5,2.6-4.6,6.7-0.4,9.2L92.9,258
		C97.1,260.4,104.2,260.3,108.7,257.7z"/>
	<path style="&st5;" d="M248.8,129.1c1,0.6-2.1,2.5-3.2,1.8l-9.5-5.4l3.2-1.8L248.8,129.1z"/>
	<path style="&st5;" d="M246.8,119.3l-7.4,4.4l-3.2,1.8l-8.8,5.1l-45.7-26.5L24.3,195.9L70,222.3l-3.9,2.2c-0.2-0.1-0.3-0.2-0.5-0.3
		c-3.5-2-9.2-2-12.7,0s-3.5,5.3,0,7.4c0.2,0.1,0.4,0.2,0.6,0.3l-2.9,1.6L7.1,208.4c-4.3-2.5-4.1-6.5,0.4-9.2L187.7,94.4
		c4.4-2.6,11.5-2.7,15.8-0.2L246.8,119.3z"/>
	<path style="&st3;" d="M65.8,224.1c0.2,0.1,0.4,0.2,0.6,0.4c3.1,2.1,3,5.3-0.5,7.4c-3.5,2-9,2.1-12.7,0.3c-0.2-0.1-0.4-0.2-0.6-0.3
		c-3.7-2.1-3.7-5.6,0-7.7C56.2,221.9,62.1,221.9,65.8,224.1z"/>
	<path style="&st6;" d="M293.6,149.8L293.6,149.8c-0.2,0.5-0.5,1-0.9,1.5c-0.2,0.3-0.5,0.5-0.8,0.8c-0.1,0.1-0.1,0.1-0.2,0.2
		c-0.4,0.4-0.9,0.7-1.4,1.1c-0.1,0.1-0.2,0.1-0.3,0.2l-180,104.7c-0.8,0.5-1.7,0.8-2.7,1.2c-0.2,0.1-0.5,0.2-0.7,0.2
		c-0.4,0.1-0.9,0.2-1.3,0.3c-0.5,0.1-0.9,0.2-1.4,0.3c-0.2,0-0.4,0.1-0.5,0.1c-0.7,0.1-1.5,0.1-2.2,0.2c-0.1,0-0.2,0-0.3,0
		c-0.8,0-1.6,0-2.4-0.1c-0.1,0-0.2,0-0.3,0c-0.8-0.1-1.5-0.2-2.3-0.4c-0.1,0-0.3-0.1-0.4-0.1c-0.2,0-0.3-0.1-0.5-0.1
		c-0.2-0.1-0.5-0.2-0.7-0.2c-0.8-0.3-1.5-0.6-2.2-1L6,209.2c-2.3-1.3-3.6-3.2-3.6-5.1v14.2c0,1.8,1.2,3.7,3.6,5.1L91.7,273
		c0.5,0.3,1.1,0.6,1.7,0.8c0.2,0.1,0.3,0.1,0.5,0.2c0.1,0,0.1,0.1,0.2,0.1c0.1,0,0.3,0.1,0.4,0.1c0.1,0,0.2,0.1,0.3,0.1
		c0.1,0,0.2,0,0.2,0.1c0.1,0,0.1,0,0.2,0s0.1,0,0.2,0c0.2,0.1,0.4,0.1,0.7,0.2c0.4,0.1,0.8,0.2,1.2,0.2c0.1,0,0.3,0,0.4,0
		c0.1,0,0.2,0,0.3,0c0.2,0,0.3,0,0.5,0.1c0.4,0,0.8,0.1,1.2,0.1c0.2,0,0.4,0,0.6,0c0.1,0,0.1,0,0.2,0h0.1c0.1,0,0.2,0,0.4,0
		c0.5,0,0.9-0.1,1.4-0.1c0.2,0,0.3-0.1,0.5-0.1c0.2,0,0.4,0,0.5-0.1c0.2,0,0.5,0,0.7-0.1c0.3,0,0.5-0.1,0.8-0.2
		c0.3-0.1,0.5-0.1,0.8-0.2c0.2,0,0.3-0.1,0.5-0.2c0.1,0,0.3-0.1,0.4-0.1c0.1,0,0.2-0.1,0.3-0.1c0.9-0.3,1.8-0.7,2.7-1.2L290,167.8
		c0.1,0,0.1-0.1,0.2-0.1c0.1,0,0.1-0.1,0.1-0.1c0.5-0.3,1-0.7,1.4-1.1l0.1-0.1c0,0,0,0,0.1-0.1l0.1-0.1l0,0c0.2-0.2,0.5-0.5,0.7-0.7
		l0,0l0,0c0.2-0.3,0.4-0.5,0.5-0.8c0.1-0.2,0.2-0.5,0.3-0.7l0,0c0.1-0.2,0.2-0.5,0.2-0.7s0.1-0.5,0.1-0.7v-0.1v-14.2
		C293.9,148.8,293.8,149.3,293.6,149.8z"/>
</g>
<g id="callouts">
	<g id="Shape_1_" transform="translate(203.061224, 0.000000)">
		<path style="&st7;" d="M0.5,18.7c0-9.9,9.9-18,22-18s22,8.1,22,18s-9.8,18-22,18c-1.2,0-2.4-0.1-3.6-0.3L5.6,42.2l2.2-10.1
			C3.3,28.7,0.5,24,0.5,18.7z"/>
	</g>
	<g id="Shape_2_" transform="translate(95.918367, 45.974729)">
		<path style="&st7;" d="M35.1,14.9c0-8-7.9-14.4-17.6-14.4S0,6.9,0,14.9s7.9,14.4,17.6,14.4c1,0,1.9-0.1,2.9-0.2l10.7,4.6l-1.8-8.2
			C32.9,23,35.1,19.2,35.1,14.9z"/>
	</g>
	<g id="Shape_3_" transform="translate(15.306122, 43.931408)">
		<path style="&st7;" d="M39.7,16.7c0-8.9-8.9-16.1-19.7-16.1C9.1,0.5,0.3,7.8,0.3,16.7S9.2,32.8,20,32.8c1.1,0,2.1-0.1,3.2-0.2
			l12,5.2l-2-9.1C37.1,25.6,39.7,21.4,39.7,16.7z"/>
	</g>
</g>
<g id="man">
	<path id="Shape_4_" style="&st8;" d="M183,160.8c1,0.6,2.1,0.8,3,1c1.8,0.3,3.1-0.1,3-1.3c0-0.4-0.4-1.1-0.8-1.6
		c-0.1-0.1-0.2-0.2-0.3-0.3c-0.2-0.2-0.4-0.3-0.5-0.5c-0.2-0.2-0.3-0.3-0.5-0.5l0,0c-1-1-1.5-2.1-2-4.3c-0.4-1.7-0.6-3.6-0.3-5.3
		c-3.1-0.8-4.4-1.2-4.4-1.2c-0.1,0.2-2.4,4.4-2.7,4.6l0,0l0,0c-0.4,0.6-0.4,2.8,1,4c0.9,0.8,2.1,2,2.9,3.2
		C181.8,159.4,181.7,160.1,183,160.8z"/>
	<path id="Shape_5_" style="&st9;" d="M183.1,160.2c1,0.6,2.1,0.8,3,1c1.8,0.3,3.1-0.1,3-1.3c0-0.4-0.4-1.1-0.8-1.6
		c-0.1-0.1-0.2-0.2-0.3-0.3c-0.2-0.2-0.4-0.3-0.5-0.5c-0.2-0.2-0.3-0.3-0.5-0.5l0,0c-1-1-1.5-2.1-2-4.3c-0.4-1.7-0.6-3.6-0.3-5.3
		c-3.1-0.8-4.4-1.2-4.4-1.2c-0.1,0.2-2.4,4.4-2.7,4.6l0,0l0,0c-0.4,0.6-0.4,2.8,1,4c0.9,0.8,2.1,2,2.9,3.2
		C181.8,158.8,181.7,159.5,183.1,160.2z"/>
	<path id="Shape_6_" style="&st10;" d="M190.4,96.6c0,0.6-0.1,1.2-0.1,1.8v1.7c0,0.5,0,1.1,0,1.6v0.8c0,0.3,0,0.6,0,0.8
		c0,0.6,0,1.1,0,1.7v1.7c0,0.6,0,1.1,0,1.7v1.7v1.7c0,0.6,0,1.1,0,1.7c0,0.6,0,1.2,0,1.7c0,0.6,0,1.2,0,1.8c0,0.6,0,1.2,0,1.8
		c0,0.6,0,1.2,0,1.8l-0.1,3.8v-0.4c0,0.1-0.1,0.5-0.3,0.8c-0.2,0.3-0.4,0.7-0.7,1.1c-0.5,0.7-1.2,1.5-1.8,2.5
		c-0.3,0.4-0.6,0.8-0.9,1.3c-0.3,0.5-1.4,2.3-1.6,2.9c-0.3,0.5-0.5,1-0.8,1.5c-0.5,1-1,2-1.4,3.1c-0.2,0.5-0.4,1-0.7,1.6
		c-0.2,0.5-0.4,1-0.6,1.6c-0.2,0.5-0.4,1.1-0.5,1.6c-0.2,0.5-0.3,1.1-0.5,1.6c-0.1,0.6-0.3,1.1-0.4,1.7c-0.1,0.6-0.2,1.1-0.3,1.7
		c-0.2,1.4,0.8,2.8,2.2,3c1.2,0.2,2.2-0.4,2.8-1.4v-0.1l0.6-1.4l0.7-1.3c0.2-0.4,0.5-0.9,0.7-1.3c0.2-0.4,0.5-0.9,0.7-1.3
		c0.2-0.4,0.5-0.9,0.7-1.3c0.3-0.4,0.5-0.9,0.8-1.3c0.5-0.8,1.1-1.7,1.6-2.6c0,0,5.4-9.6,5.6-10.2c0.2-0.6,0.5-1.3,0.7-2.2v-0.4
		c0.1-0.6,0.1-1.1,0.3-1.7c0.1-0.3,0.1-0.6,0.2-0.8l0.2-0.9c0.1-0.6,0.3-1.1,0.4-1.7c0.1-0.6,0.3-1.2,0.4-1.7
		c0.1-0.6,0.3-1.2,0.4-1.8c0.1-0.6,0.3-1.2,0.4-1.8c0.1-0.6,0.3-1.2,0.4-1.8c0.1-0.6,0.2-1.2,0.3-1.8l0.2-0.9c0-0.3,0.1-0.6,0.1-0.9
		c0-0.3,0.1-0.6,0.1-0.9c0-0.3,0.1-0.6,0.1-0.9c0-0.6,0.1-1.2,0.1-1.9c0-0.6,0.1-1.2,0.1-1.9c0-0.6,0-1.2,0-1.9c0-0.6,0-1.3-0.1-1.9
		l-0.1-1v-0.2v-0.2l-0.1-0.4c-0.1-0.6-0.2-1.2-0.3-1.8c-0.5-2.8-3.2-4.6-5.9-4.1C192.2,92.5,190.5,94.4,190.4,96.6z"/>
	<path id="Shape_7_" style="&st8;" d="M182,154.7L182,154.7l3.2-0.4c0.1,0,0.2-0.1,0.2-0.2c0-0.1-0.1-0.2-0.2-0.2l-3.2,0.4
		c-0.1,0-0.2,0.1-0.2,0.2S181.9,154.7,182,154.7z"/>
	<path id="Shape_8_" style="&st8;" d="M182.6,155.7L182.6,155.7l3.2-0.4c0.1,0,0.2-0.1,0.2-0.2c0-0.1-0.1-0.2-0.2-0.2l-3.2,0.4
		c-0.1,0-0.2,0.1-0.2,0.2C182.3,155.6,182.4,155.7,182.6,155.7z"/>
	<path id="Shape_9_" style="&st8;" d="M183.1,156.6L183.1,156.6l3.2-0.4c0.1,0,0.2-0.1,0.2-0.2c0-0.1-0.1-0.2-0.2-0.2l-3.2,0.4
		c-0.1,0-0.2,0.1-0.2,0.2C182.9,156.5,183,156.6,183.1,156.6z"/>
	<path id="Shape_10_" style="&st8;" d="M205.3,165.1c4.1,0.4,6.8-0.6,6-2.3c-0.2-0.3-0.7-0.9-1.3-1.2c-0.1-0.1-0.2-0.1-0.4-0.2
		c-0.4-0.2-0.9-0.4-1.3-0.5l0,0c-1.6-0.6-3.3-0.9-4.6,0.1c-2.3,1.7-6.9-2.3-7.2-0.2c0-0.1,0.2,1.3,0.6,1.6
		C198.5,163.6,202,164.7,205.3,165.1z"/>
	<path id="Shape_11_" style="&st9;" d="M196.5,160.9L196.5,160.9C196.5,160.8,196.5,160.8,196.5,160.9c-0.1-0.3-0.9-5.1-1-5.3
		c0,0,1.2-0.5,4.1-1.9c0.9,1.5,2.2,2.8,3.7,3.8c1.8,1.2,3.7,2.1,5,2.8l0,0c0.4,0.2,0.9,0.4,1.3,0.5c0.1,0,0.2,0.1,0.4,0.2
		c0.6,0.3,1.1,0.9,1.3,1.2c0.8,1.7-1.9,2.8-6,2.3C201.3,164.2,196.7,162.4,196.5,160.9z"/>
	<polygon id="Shape_12_" style="&st9;" points="184.4,100.1 199.5,94.6 200.2,98 192.7,105.5 	"/>
	<path id="Shape_13_" style="&st9;" d="M182.2,98.8c0.1,0.6,0,2.6,1.4,6.2l0.5,1.6c0.8,2.7,1.7,5.4,2.8,8.1c1,2.8,1.9,5.5,2.9,8.4
		c0.2,0.6,0.4,1.1,0.5,1.7c0.2,0.6,0.3,1.1,0.5,1.7c0.3,1.1,0.7,2.6,1,3.6c0-0.1,0-0.1,0,0c0,0.8,0.1,1.7,0,2.6
		c-0.7,7.9,0.5,15.8,3.7,23.1c0.6,1.3,2.1,1.9,3.5,1.3c1.1-0.5,1.7-1.6,1.5-2.8v-0.1c-0.9-6.1-0.6-12.3-1.2-18.5
		c-0.1-1-0.3-2.1-0.4-3.3c-0.1-0.5-0.1-1.1-0.2-1.7c-0.1-1.3-0.3-2.7-0.5-4c0-0.3-0.1-0.6-0.1-0.8c-0.7-5.9-0.7-11.7-2.3-17.6
		c-0.8-3.1-1.8-6-3.4-8.8c-1.3-2.5-4.4-3.4-6.8-2C183.6,98.7,182.9,98.4,182.2,98.8z"/>
	<g id="Shape_14_" transform="translate(24.489796, 8.173285)">
		<path style="&st11;" d="M170,60.4c0.3,1.1,0.9,2.1,1.5,3c0.6,0.8,1.3,1.5,1.8,1.9c0.5,0.5,1.1,1,1.8,1.5l0.1,0.1
			c0,0,0.1,0,0.1,0.1l0.1,0.1c0.1,0.1,0.3,0.2,0.4,0.3c0.3,0.2,0.6,0.3,0.9,0.5c0.6,0.4,1.3,0.7,2,1.1c0.3,0.2,0.7,0.3,1,0.5
			c0.2,0.1,0.3,0.2,0.5,0.2c0.2,0.1,0.3,0.1,0.5,0.2c0.6,0.2,1.3,0.4,1.9,0.6c1.4,0.5,4,0.8,4.6-0.5c0.7-1.5,1.2-4.2,1.1-6
			c0-0.2,0-0.4,0-0.6c0-0.2,0-0.4,0-0.6c-0.1-0.4-0.1-0.8-0.2-1.2c-0.4-2.3-1.3-4.2-2.2-6.2c-0.2-0.6-0.5-1.1-0.8-1.6
			c-0.1-0.1-0.1-0.2-0.2-0.4l-0.1-0.2l-0.1-0.1c-0.1-0.2-0.2-0.3-0.2-0.5c-0.2-0.3-0.3-0.6-0.4-0.8c-0.1-0.3-0.2-0.5-0.3-0.7
			c-0.2-0.5-0.3-0.9-0.4-1.2c0-0.1-0.1-0.3-0.1-0.3c0-0.1,0-0.1,0-0.1l-0.1-0.4c-0.1-0.3-0.2-0.6-0.4-0.9c-0.2-0.2-0.4-0.4-0.7-0.5
			c-0.5-0.2-1.2-0.1-1.8,0.3c-0.6,0.4-1.1,1-1.3,1.7c-0.3,0.7-0.4,1.4-0.2,2c0.1,0.4,0.3,0.8,0.6,1c0.1,0.1,0.3,0.2,0.5,0.3
			c0.2,0.1,0.4,0.1,0.6,0.1c0,0,0,0,0.1,0c0,0,0.1,0,0.2,0.1c0.2,0.1,0.4,0.2,0.7,0.5s0.6,0.6,0.9,1.1c0.1,0.1,0.1,0.3,0.2,0.4
			c0.1,0.1,0.1,0.3,0.2,0.4s0.1,0.3,0.1,0.4c0,0.2,0.1,0.3,0.1,0.5c0.1,0.6,0.2,1.3,0.1,1.9c0,0.3,0,0.6-0.1,0.9c0,0.1,0,0.3,0,0.4
			s0,0.3,0,0.4c0,0.3,0,0.6,0.1,1.1c0.1,0.2,0.1,0.5,0.2,0.7c0.1,0.2,0.1,0.5,0.2,0.7c0,0.3,0.1,0.5,0.1,0.7c0,0.2,0,0.5,0,0.7v0.1
			c0,0,0,0,0,0.1c0,0,0,0-0.1,0l-0.2-0.1c-0.1,0-0.1-0.1-0.2-0.1c-0.1-0.1-0.2-0.1-0.3-0.2c-0.7-0.4-1.4-1-2-1.6
			c-0.6-0.6-1.1-1.2-1.4-1.7c-0.2-0.2-0.3-0.4-0.5-0.6c-0.1-0.1-0.1-0.2-0.2-0.3l-0.1-0.1l-0.1-0.1c-0.1-0.1-0.1-0.2-0.2-0.2
			c-0.1-0.1-0.3-0.2-0.4-0.3c-0.2-0.2-0.5-0.4-0.7-0.7c-1-0.9-1.8-2.3-3.2-3c-1.4-0.6-3.3,1.2-3.8,2.9
			C169.8,58.9,169.8,59.7,170,60.4z"/>
		<path style="&st11;" d="M183.4,51.7c-0.3,0.8-0.7,1.3-1.1,1.5c-0.4,0.2-0.9,0.2-1.3,0.1c-0.8,0-1.3-0.2-1.7-0.4
			c-0.4-0.2-0.8-0.6-1.2-1.1c-0.7-0.8-1.5-1.1-2.1-1.3c0.2-0.6,0.6-0.7,1.1-0.7c0.2,0,0.5,0,0.7,0.1c0.2,0.1,0.5,0.1,0.7,0.2
			c-0.4-0.4-0.8-0.9-1.2-1.4c-0.4-0.5-0.8-0.9-1-1.4c-0.2-0.4-0.2-0.8,0-1.1c0.3-0.3,0.8-0.6,1.9-0.6c0.6-0.1,1.3,0,1.9,0.3
			c0.7,0.2,1.1,0.7,1.7,1.1c0.5,0.4,1,1,1.3,1.6c0.2,0.3,0.3,0.7,0.4,1c0.1,0.4,0.1,0.7,0.1,1.1C183.5,51,183.5,51.4,183.4,51.7z"/>
		<path style="&st8;" d="M169.6,60.1c0.7,3.4,4.5,6.1,7.2,7.9c1.4,0.9,2.9,1.7,4.4,2.3c1.8,0.7,4,1.2,5.9,0.6c1-0.3,1.4-1.5,1.7-3.1
			c0.7-4.6-0.6-8.7-2.2-12.9c-0.3-0.8-0.9-2-1.6-2.5c-0.2-0.1-0.5-0.2-0.7-0.2c-0.5,0-1,0.2-1.4,0.7c-0.4,0.4-0.6,0.8-0.7,1.3
			c-0.3,1,0.2,2.2,0.4,3.3c0.2,1,0.4,5.2,0.3,5.5c-0.1,0.1-0.9-0.5-1-0.5c-1.6-0.9-2.4-2.9-3.6-4.5c-1.3-1.7-3.2-3.6-5.2-3.2
			C170.9,55.4,169.1,57.5,169.6,60.1z"/>
	</g>
	<path id="Shape_15_" style="&st12;" d="M184.2,85.4c0.3,3.3-0.9,6.7-1.8,12.2c-0.9,3.2,4.9,4.9,8.3,5.1c4.3,0.2,11.3-2.7,10.6-7
		c-1-5.7,1.2-13.2,0.9-21c0-0.3,0-0.5,0-0.8c-0.1-1.1-0.1-2.2-0.3-3.3c-0.3-2.2-0.8-4.2-1.7-5.6c-0.5-0.7-2.7-2.3-5.5-2.7
		c-1.1-0.1-2.3-0.1-3.6,0.4c-4.4,1.6-6.7,3.5-9.8,6.7l1,3.3C183.2,75.5,183.6,79.5,184.2,85.4z"/>
	
		<rect id="Rectangle-path" x="199.2" y="51.3" transform="matrix(0.6763 -0.7366 0.7366 0.6763 24.3777 166.5308)" style="&st13;" width="4.9" height="8.5"/>
	<polygon id="Shape_16_" style="&st14;" points="203.1,54 205.2,56.1 203.1,58.4 	"/>
	<path id="Shape_17_" style="&st11;" d="M189.3,55.6l-0.1,8.2c0,1.4,1.1,2.7,2.7,2.7c1.4,0,2.7-1.1,2.7-2.7c0-0.1,0-0.3,0-0.4
		l-1.1-8.1c-0.1-1.1-1.2-1.9-2.3-1.7C190,53.7,189.3,54.7,189.3,55.6z"/>
	<polygon id="Shape_18_" style="&st14;" points="202.1,53.2 202.1,58.7 201.3,57.9 201.3,52.5 	"/>
	<path id="Shape_19_" style="&st12;" d="M194.4,61.9c-0.7,1.8-4.7,0.8-5.1-0.3c-0.5,1.5-1.2,3.9-1.2,3.9l3.8,3.5l4.7-2.5L194.4,61.9
		z"/>
	<path id="Shape_20_" style="&st15;" d="M190,59.9c0.8,0.2,1.2,1.5,3,2c2.2,0.7,3.7,0.3,4.5,0.3c1.2,0,2.3-1.1,2.3-1.9
		c0-1.6-0.3-3.1-0.7-4.7c-0.9-3.8-3.4-6.8-4.5-8.3c-3.4-2.5-5.9-1.8-9.5,1C181,51.7,183.8,58,190,59.9z"/>
	<path id="Shape_21_" style="&st16;" d="M190.4,53.6c-0.1,1.3,0,2.9,0,4.2c-0.5,0.9-1,1.8-1,1.8c-1.8-0.2-2.9-1.1-4.3-2.6
		c-1.2-1.2-2.3-3.3-2.2-4.5L190.4,53.6z"/>
	<path id="Shape_22_" style="&st17;" d="M195.9,49.9c-3.2,4.6-8.3,6.6-12.7,3.6c-2.2-3.6,2.7-8.7,7.7-8.3
		C194.8,45.5,197,48.3,195.9,49.9z"/>
	<path id="Shape_23_" style="&st15;" d="M188.8,57.4c-2.1-1.5-2.8,0.4-2.2,1.3c0.6,1,2.4,1.8,3.8,1.3c0.2-0.1-0.3-1.2-0.5-1.5
		C189.4,58,189.2,57.6,188.8,57.4z"/>
	<path id="Shape_24_" style="&st8;" d="M202.3,160.6c0.1,0,0.1,0,0.2-0.1l1.9-2.3c0.1-0.1,0.1-0.2,0-0.3c-0.1-0.1-0.2-0.1-0.3,0
		l-1.9,2.3c-0.1,0.1-0.1,0.2,0,0.3C202.2,160.6,202.2,160.6,202.3,160.6z"/>
	<path id="Shape_25_" style="&st8;" d="M203.4,160.9c0.1,0,0.1,0,0.2-0.1l1.8-2.2c0.1-0.1,0.1-0.2,0-0.3c-0.1-0.1-0.2-0.1-0.3,0
		l-1.8,2.2c-0.1,0.1-0.1,0.2,0,0.3C203.3,160.9,203.3,160.9,203.4,160.9z"/>
	<path id="Shape_26_" style="&st8;" d="M204.3,161.3c0.1,0,0.1,0,0.2-0.1l1.7-2c0.1-0.1,0.1-0.2,0-0.3c-0.1-0.1-0.2-0.1-0.3,0
		l-1.7,2c-0.1,0.1-0.1,0.2,0,0.3C204.2,161.3,204.3,161.3,204.3,161.3z"/>
	<g id="Shape_27_" transform="translate(0.000000, 21.454874)">
		<path style="&st18;" d="M183.4,46.3c-1.9,0.7-3.9,3-4.9,4.3c-0.6,0.7-1.1,1.5-1.6,2.3c-0.3,0.4-0.5,0.9-0.8,1.4
			c-0.2,0.5-0.5,1-0.7,1.5s-0.4,1-0.6,1.6c-0.1,0.3-0.2,0.5-0.3,0.8s-0.2,0.5-0.3,0.8c-0.2,0.6-0.4,1.1-0.5,1.7
			c-0.1,0.3-0.2,0.6-0.3,0.8c-0.1,0.3-0.2,0.6-0.3,0.9c-0.2,0.6-0.3,1.2-0.5,1.8c-0.2,0.5-0.4,1.1-0.6,1.6c-0.2,0.5-0.5,1-0.7,1.5
			c-0.1,0.3-0.2,0.5-0.3,0.8s-0.1,0.5-0.2,0.8c-0.1,0.5-0.2,1.1-0.2,1.6c0,0.5,0,1.1,0,1.6c0,0.5,0,1,0.1,1.5c0,0.5,0,0.9,0,1.4
			c0,0.9,0,1.7-0.1,2.5c0,0.4-0.1,0.7-0.1,1c0,0.3-0.1,0.6-0.1,0.9c-0.1,0.5-0.2,1-0.3,1.3c0,0.2-0.1,0.3-0.1,0.4c0,0.1,0,0.1,0,0.1
			l-0.2,0.4c-0.2,0.7-0.1,1.5,0.2,2.1c0.3,0.6,0.9,1.1,1.6,1.3c1.4,0.4,3-0.4,3.4-1.7c0.3-0.9,0.1-1.9-0.6-2.6c0,0,0,0-0.1-0.1
			c0,0-0.1-0.1-0.1-0.2c-0.1-0.2-0.2-0.5-0.3-1c0-0.2-0.1-0.5-0.1-0.8c0-0.3,0-0.6,0-0.9c0.1-0.6,0.2-1.4,0.4-2.1
			c0.2-0.8,0.6-1.6,1-2.5c0.2-0.4,0.4-0.9,0.6-1.3c0.2-0.4,0.4-0.9,0.5-1.4c0.1-0.2,0.1-0.5,0.2-0.7c0.1-0.2,0.1-0.5,0.1-0.8
			c0.1-0.5,0.1-1,0.2-1.6c0.1-0.5,0.2-1.1,0.4-1.6c0-0.1,0.1-0.3,0.1-0.4l0.1-0.3c0.1-0.2,0.2-0.5,0.3-0.7c0.4-0.9,1-1.8,1.6-2.8
			c0.1-0.2,0.3-0.4,0.4-0.6c0.2-0.2,0.3-0.4,0.5-0.6c0.3-0.4,0.6-0.8,0.9-1.2c0.3-0.4,0.6-0.8,0.8-1.1c0.3-0.4,0.5-0.7,0.8-1.1
			c0.2-0.4,0.5-0.7,0.7-1c0.2-0.3,0.5-0.6,0.7-0.9c0.3-0.5,0.9-1,1.4-1.6c0.3-0.3,0.5-0.6,0.8-0.9s0.5-0.6,0.7-1
			c0.4-0.6,0.7-1.3,0.7-2c0-0.7-0.2-1.4-0.9-2.2C185.9,46,184.7,45.8,183.4,46.3z"/>
		<path style="&st15;" d="M170.7,79.7c1.3-1,2.2-0.6,2.9,0.3c0.7,0.6,1.1,1,1.3,1.6c0.2,0.5,0.3,1.1,0.5,1.8
			c0.2,1.2,0.7,2.1,1.1,2.8c-0.4,0.3-0.9,0.2-1.3-0.2c-0.4-0.4-0.8-0.9-1-1.3c0.1,0.6,0.2,1.4,0.3,2.1c0.1,0.7,0.2,1.4,0.2,1.9
			c0,0.5-0.2,0.9-0.6,1s-1-0.1-1.9-0.8c-0.6-0.4-1.1-1-1.5-1.6c-0.4-0.7-0.7-1.4-0.9-2.2c-0.2-0.7-0.3-1.5-0.3-2.3
			c0-0.2,0-0.4,0.1-0.6c0-0.2,0.1-0.4,0.1-0.6c0.1-0.4,0.3-0.7,0.5-1C170.2,80.2,170.4,79.9,170.7,79.7z"/>
		<path style="&st8;" d="M183.2,45.9c-3,1.1-8.6,9-10.3,14.1c-0.2,0.5-0.3,1-0.5,1.5c-0.1,0.5-0.3,1-0.4,1.5c-0.1,0.5-0.3,1-0.5,1.5
			c-0.1,0.5-0.3,1-0.5,1.5c-0.2,0.5-0.3,0.9-0.4,1.4c-0.1,0.5-0.2,0.9-0.2,1.3c-0.1,0.9-0.2,1.7-0.3,2.6c-0.1,1.6-0.2,3.3-0.2,4.9
			c0,0.2,0,0.4,0,0.4c0,0.6,0.3,1.2,0.7,1.5c0.4,0.4,1,0.6,1.6,0.6c1,0,1.8-0.7,2-1.6v-0.1c0,0,0-0.1,0.1-0.3
			c0.1-0.2,0.1-0.5,0.2-0.9c0-0.2,0.1-0.4,0.2-0.6c0.1-0.2,0.2-0.5,0.2-0.8c0.1-0.4,0.3-0.9,0.4-1.3l0.2-0.6l0.2-0.6
			c0.3-0.8,0.6-1.7,0.9-2.6c0.1-0.4,0.3-0.8,0.4-1.2c0.1-0.4,0.2-0.9,0.3-1.3c0.2-0.6,0.5-1.2,0.8-1.8c0.1-0.3,0.3-0.6,0.5-0.9
			c0.2-0.3,0.3-0.6,0.5-0.8c0.2-0.4,0.5-0.8,0.7-1.1c0.1-0.2,0.3-0.4,0.4-0.6c0.1-0.2,0.3-0.4,0.4-0.5c0.3-0.4,0.5-0.7,0.8-1.1
			c0.1-0.2,0.2-0.4,0.4-0.5c0.1-0.2,0.2-0.3,0.4-0.5c0.5-0.6,1.2-1.5,2-2.5s1.6-2,2.3-3.1c0.3-0.5,0.6-1,0.9-1.6
			c0.2-0.5,0.4-1,0.4-1.5c0.1-1-0.2-2-1.1-3.1C185.8,45.6,184.5,45.4,183.2,45.9z"/>
	</g>
</g>
<g id="women-1">
	<g id="Group_2_" transform="translate(119.387755, 81.732852)">
		<path id="Shape_28_" style="&st17;" d="M20.5,16.6c-0.4,1.4-2.7,5.3-1.3,6c1.4,0.8,2.3,2.3,3.6,1.3c3.4-2.8,12.8-17.2,7.2-21
			c-2.1-1.4-5.3-1.1-6.5,1.1C23.3,4.7,20.6,16.1,20.5,16.6z"/>
		<path id="Shape_29_" style="&st19;" d="M28.6,5.1c-0.3,0.6-1,0.8-1.6,0.6c-0.6-0.3-0.8-1-0.6-1.6c0.3-0.6,1-0.8,1.6-0.6
			C28.7,3.8,28.9,4.6,28.6,5.1z"/>
		<g id="Shape_30_" transform="translate(0.000000, 12.259928)">
			<g>
				<path style="&st20;" d="M15.3,6.4L15.3,6.4c-0.3-0.3-0.8-0.6-1.2-0.6c-1.3-0.3-2.2,1-3,1.8c-0.2,0.2-0.4,0.4-0.6,0.7
					c-1.1,1.1-1.8,2.1-2.4,3.2c-1.2,2-2,5.8-1.9,5.5c0,0-3.6,1.2-4.9,0.2C0.7,19.2,0.5,21.1,1,23c0.1,0.3,1,0.5,1.2,0.6
					c4.8,1.3,8.3-7.4,10.2-9.4c0.8-0.8,1.5-1.6,2.1-2.6c0.5-0.7,1.1-1.6,1.3-2.6C16.2,8.2,15.9,7,15.3,6.4z"/>
				<path style="&st11;" d="M6.2,17.2C7.1,15.9,9.4,8,10,7.5c0.1,0-1.1-1.1-1.8-1.8c0,0,0,0.1-0.1,0.1C8,5.9,7.8,6.1,7.7,6.4
					C5.3,10.9,3,13.3,1.2,17.4C2.4,18.4,6.1,17.2,6.2,17.2z"/>
				<path style="&st11;" d="M8.8,4.5C9.3,4,9.7,3.7,9.6,4C9.7,3.9,9.8,3.7,10,3.5c0.1-0.2,0.3-0.4,0.4-0.6C10.7,2.5,11,2,11.3,1.6
					c0.6-0.7,1.3-1.3,2-1.2c0.6,0.1,0.8,0.9,0.9,1.2c0.1,0.5,0.2,1,0.1,1.5c0,0.5-0.1,0.9-0.3,1.3c-0.1,0.3-0.3,0.6-0.5,0.8
					C13.2,5.8,11.2,7,10,7.5C9.8,7.3,7.8,6.5,7.7,6.3C7.7,5.8,8,5,8.8,4.5z"/>
			</g>
			<path style="&st21;" d="M14.5,0.9c-0.1-0.3-0.3-0.6-0.8-0.7c-0.6-0.1-1.8,0.8-2.8,1.6c0-0.2,0.1-0.3,0.1-0.5
				c0.1-0.3,0.1-0.7,0.1-1C10.6,0,10.2,1.7,10,2.1C9.9,2.3,9.5,3.3,9.4,3.6C9.1,4,8.9,4.3,8.8,4.4c0,0.7,0.3,1.4,1.3,1.3
				c2.4-0.2,1.3-2.9,2.8-3.2c-0.1,0.7,0.1,2-0.3,3.3c0.6-0.4,1.1-0.8,1.6-1.3c0.2-0.4,0.3-0.9,0.3-1.3C14.5,2.7,14.6,1.4,14.5,0.9z"
				/>
		</g>
		<path id="Shape_31_" style="&st10;" d="M16.9,49.7C17,50,17,50.3,17,50.6c0,0.2,0,0.3,0.1,0.4c0,0.1,0,0.3,0,0.4l0.1,0.9l0.1,0.9
			c0.1,1.1,0.1,2.3,0.1,3.5c0,1.1,0,2.3,0.1,3.6c0,0.6,0,1.2,0.1,1.7c0,0.6,0.1,1.2,0.1,1.8c0,0.6,0.1,1.2,0.1,1.8s0.1,1.2,0.2,1.8
			c0.1,0.6,0.1,1.2,0.2,1.8s0.1,1.2,0.2,1.8c0.1,0.6,0.2,1.2,0.3,1.8c0.1,0.6,0.2,1.2,0.4,1.8c0.1,0.6,0.3,1.2,0.4,1.8
			c0.2,0.6,0.3,1.2,0.5,1.8L20,78.3l0.7,1.6c0.2,0.5,0.5,1,0.7,1.6c0.2,0.5,0.5,1,0.7,1.6c0.2,0.5,0.4,1,0.6,1.6
			c0.2,0.5,0.3,1.1,0.5,1.6c0.1,0.5,0.2,1.1,0.3,1.6c0.1,0.5,0.2,1.1,0.3,1.6c0.1,0.5,0.1,1.1,0.2,1.6c0.1,0.5,0.1,1.1,0.1,1.6
			c0,0.5,0.1,1.1,0.1,1.6c0,0.5,0,1.1,0,1.6c0,0.5,0,1.1,0,1.6c0,0.5,0,1.1,0,1.6c0,0.5,0,1.1-0.1,1.6c0,0.5-0.1,1.1-0.1,1.6
			c-0.1,0.5-0.1,1.1-0.2,1.6c-0.1,0.9-1,1.6-1.9,1.4c-0.8-0.1-1.3-0.7-1.4-1.4v-0.1l-0.5-3.1c-0.2-1-0.3-2-0.5-3.1l-0.3-1.5
			c-0.1-0.5-0.2-1-0.3-1.5c-0.1-0.5-0.2-1-0.3-1.5c-0.1-0.5-0.2-1-0.3-1.5c-0.1-0.5-0.2-1-0.4-1.5c-0.1-0.5-0.3-1-0.4-1.4
			c-0.3-1-0.5-1.9-0.8-3l-0.3-1.4c-0.1-0.5-0.2-0.9-0.4-1.4c-0.1-0.5-0.3-0.9-0.5-1.4c-0.2-0.4-0.4-0.9-0.6-1.3l-0.1-0.3l-1.5-3.7
			c-0.5-1.2-1-2.5-1.4-3.7c-0.2-0.6-0.5-1.2-0.7-1.8c-0.2-0.6-0.4-1.2-0.7-1.9c-0.2-0.6-0.4-1.3-0.6-1.9c-0.2-0.6-0.4-1.3-0.5-1.9
			c-0.2-0.6-0.3-1.3-0.5-1.9c-0.1-0.7-0.3-1.3-0.4-2c-0.1-0.7-0.2-1.3-0.3-2c0-0.3-0.1-0.7-0.1-1l-0.1-1v-1v-1c0-0.7,0-1.3,0.1-2
			c0-0.3,0.1-0.7,0.1-1c0-0.3,0.1-0.7,0.2-1c0-0.2,0.1-0.3,0.1-0.5c0-0.2,0.1-0.4,0.1-0.5c0.1-0.3,0.2-0.6,0.3-0.9
			c0.7-2.2,3.2-3.5,5.5-2.8C15.6,46.8,16.6,48.1,16.9,49.7z"/>
		<path id="Shape_32_" style="&st8;" d="M24.3,107.8L24.3,107.8c0-0.3,0-4.9,0-5.1c0,0-1.2-0.3-4.2-1.1c-0.6,1.5-1.6,3-2.8,4.2
			c-1.4,1.5-3.1,2.7-4.2,3.5c-0.9,0.6-2.1,0.8-2.4,2c-0.3,1.3,1,2.3,3.4,2c0.8-0.1,1.1-0.2,2-0.5c1.3-0.4,1.6-0.8,2.7-1.2
			c1-0.5,2.9-1.1,3.7-1.5C23.8,109.4,24.3,108.5,24.3,107.8z"/>
		<path id="Shape_33_" style="&st22;" d="M24.4,107.3L24.4,107.3c0,0.7-0.5,1.6-1.8,2.2c-0.8,0.4-2.8,1-3.7,1.4
			c-1,0.5-1.2,0.8-2.7,1.3c-0.1,0-0.2,0.1-0.3,0.1c-0.7,0.2-1,0.3-1.7,0.4c-2.3,0.2-3.8-0.4-3.5-1.7c0.3-1,1.3-1.6,2.2-2.2
			c0.1-0.1,0.2-0.1,0.3-0.2c1.1-0.7,2.8-1.9,4.2-3.5c1.1-1.2,2.2-2.6,2.8-4.2c2.4-1.2,4.2,0.1,4.2,1.1
			C24.5,103.2,24.4,107,24.4,107.3z"/>
		<g transform="translate(8.163265, 10.216606)">
			
				<rect id="Rectangle-path_1_" x="0.7" y="2.4" transform="matrix(0.7361 -0.6768 0.6768 0.7361 -1.8842 3.814)" style="&st13;" width="6.5" height="3.8"/>
			<polygon id="Shape_34_" style="&st14;" points="3,3.3 1.2,4.8 3,6.7 			"/>
			<polygon id="Shape_35_" style="&st14;" points="3.7,2.7 3.7,6.9 4.3,6.3 4.3,2 			"/>
		</g>
		<path id="Shape_36_" style="&st22;" d="M25.4,97.1c-0.4-1.5-1.8-1.3-3.1-0.9c-0.6,0.2-1.5,0.9-2.1,0.9c-0.4,0-0.8-0.6-1.1-0.7
			c-0.1,0-0.2,0-0.2-0.1l-0.1,0.1c-0.3,0.2-0.4,1.3-0.5,1.6c-0.1,0.5,0,0.9,0.1,1.3c-0.1,0.3-0.1,0.6-0.2,0.9c-0.1,1-0.5,3.5,0,4.4
			c0.3,0.7,1-0.7,1.3,0c1.5-0.1,3.1-0.6,4.5-1c0.4-0.1,0.5-0.1,0.6-0.4c0.2-0.4,0.1-1.4,0.2-1.9c0.2-0.7,0.6-1.5,0.6-2.2
			c0-0.2-0.1-0.5-0.1-0.7C25.4,97.9,25.6,97.6,25.4,97.1z"/>
		<path id="Shape_37_" style="&st9;" d="M19.6,40.2c-3-1.3-6.3-0.1-8.6,2.6c-2.1,2.6,4.2,11.1,4.2,11.1c0.4,0.2,0.9,0.5,1.3,0.7
			c2.4,1.3,4.8,2.6,5.9,2.8c1.6,0.3,2.8-0.3,4-1.3C28.9,53.7,28.7,44.3,19.6,40.2z"/>
		<path id="Shape_38_" style="&st10;" d="M16.4,54.6c-0.4-0.2-0.9-0.5-1.3-0.7c-2.1-1.2-4.1-2.5-5-3.1c0,0-0.1,0-0.1-0.1
			c-1.1-0.8-1.6-1.4-1.5-1.9c0.2-2.3,1.1-4.5,2.4-6C11.1,46.4,13.6,52.4,16.4,54.6z"/>
		<path id="Shape_39_" style="&st9;" d="M30.8,105.4V105c0-0.3-0.1-0.6-0.1-0.8c-0.1-0.6-0.2-1.1-0.3-1.6s-0.2-1.1-0.3-1.6
			c-0.1-0.5-0.3-1.1-0.4-1.6c-0.1-0.5-0.3-1.1-0.5-1.6c-0.2-0.5-0.3-1.1-0.5-1.6c-0.2-0.5-0.4-1-0.6-1.5c-0.2-0.5-0.4-1-0.6-1.5
			c-0.2-0.5-0.5-1-0.7-1.5c-0.2-0.5-0.5-1-0.8-1.5c-0.3-0.5-0.5-1-0.8-1.5c-0.3-0.5-0.6-1-0.9-1.4c-0.6-0.9-1.3-1.8-2-2.8
			c-0.3-0.4-0.7-0.8-1.1-1.3c-0.1-0.1-0.2-0.2-0.3-0.3c0-0.3,0.1-0.5,0.1-0.8l0.3-1.8c0.2-1.2,0.4-2.5,0.7-3.7
			c0.2-1.2,0.5-2.5,0.7-3.6l0.4-1.7l0.4-1.7c0.1-0.6,0.3-1.1,0.4-1.7c0.1-0.6,0.3-1.1,0.5-1.7c0.2-0.6,0.3-1.1,0.5-1.7l0.5-1.6
			c0.3-1.1,0.6-2.2,0.9-3.4l0.2-0.8l0.2-0.8c0-0.1,0.1-0.3,0.1-0.4s0-0.3,0.1-0.4c0.1-0.3,0.1-0.6,0.2-0.9c0.2-1.5-0.3-3.1-1.6-4.1
			c-1.9-1.4-4.6-1.1-6,0.8c-0.2,0.3-0.4,0.5-0.6,0.8c-0.1,0.1-0.2,0.3-0.3,0.4c-0.1,0.2-0.2,0.3-0.3,0.5c-0.2,0.3-0.3,0.6-0.5,0.9
			c-0.1,0.3-0.3,0.6-0.4,0.9c-0.3,0.6-0.5,1.3-0.7,1.9l-0.3,1l-0.3,1c-0.2,0.6-0.3,1.3-0.4,2c-0.1,0.6-0.3,1.3-0.4,2
			c-0.1,0.7-0.2,1.3-0.3,2c-0.1,0.7-0.2,1.3-0.2,2c-0.1,1.3-0.2,2.7-0.3,4c-0.1,1.3-0.1,2.7-0.1,4c0,1.3,0.1,2.7,0.2,4
			c0,0.6,0.1,1.3,0.2,1.9c0.1,0.6,0.1,1.3,0.2,1.9l0.1,1l0.5,0.9c0.3,0.4,0.5,0.9,0.8,1.3c0.3,0.4,0.6,0.8,0.8,1.2l1.7,2.6l0.8,1.2
			c0.3,0.4,0.6,0.8,0.8,1.2c0.3,0.4,0.5,0.8,0.8,1.3c0.3,0.4,0.5,0.8,0.8,1.3c0.3,0.4,0.5,0.9,0.8,1.3c0.2,0.4,0.5,0.9,0.7,1.3
			c0.2,0.4,0.5,0.9,0.7,1.3c0.2,0.4,0.5,0.9,0.7,1.3c0.2,0.5,0.4,0.9,0.7,1.4c0.2,0.5,0.4,0.9,0.6,1.4c0.2,0.5,0.4,0.9,0.6,1.4
			l0.3,0.7l0.1,0.3c0,0.1,0.1,0.2,0.1,0.3l0.1,0.3c0.3,0.6,0.9,1,1.6,1c0.9-0.1,1.6-0.8,1.6-1.8V105.4z"/>
		<path id="Shape_40_" style="&st23;" d="M28.1,24.5c-1.1-1.5-2.7-2.8-4.2-4c-1-0.7-2.1-1.4-3.3-1.8c-3.3-1.3-5.5-0.7-6.8-0.5
			c-1.5,0.3-1.8,3.8-2.7,5.8c-2.7,3.1-1.9,6.3,0.8,8.3c0.6,3,0.8,4.7,0.1,6.6c-1.1,3.5-3.1,5-3,7.3c0.1,5.1,7.8,8.3,12.1,7.6
			c4.2-0.6,6.2-4.2,4.8-8.1c0,0-0.5-1-0.6-1.2c-2.3-4.3-1.1-9.2,1.8-12.8C28.1,30.5,30.4,27.6,28.1,24.5z"/>
		<path id="Shape_41_" style="&st11;" d="M16,26.7c0,0,6.2-2.8,6.6-4.4C23.6,18.1,13.9,16.3,16,26.7z"/>
		<path id="Shape_42_" style="&st8;" d="M28.2,113.9c-3.5,1.7-6.2,1.7-6.1-0.1c0-0.4,0.4-1,0.7-1.5c0.1-0.1,0.2-0.2,0.3-0.3
			c0.3-0.3,0.7-0.6,1-0.9l0,0c1.2-1.1,1.9-1.7,3.6-1.8c2.8-0.1,3.6-6,5.1-4.6c0,0,0.6,1.1,0.5,1.5C33.1,107.9,30.9,112.5,28.2,113.9
			z"/>
		<path id="Shape_43_" style="&st23;" d="M28.1,113.5c-0.2,0.1-0.3,0.2-0.5,0.2c-3.3,1.5-5.8,1.4-5.7-0.3c0-0.4,0.4-1,0.7-1.5
			c0.1-0.1,0.2-0.2,0.3-0.3c0.2-0.2,0.3-0.3,0.5-0.5c0.2-0.2,0.3-0.3,0.5-0.4l0,0c1-0.9,1.4-2,1.9-4.1c0.4-1.6,0.6-3.4,0.3-5
			c3-0.8,4.2-1.1,4.2-1.1c0,0.2,2.3,4.2,2.6,4.4l0,0l0,0C33.6,106,31.4,111.8,28.1,113.5z"/>
		<path id="Shape_44_" style="&st23;" d="M29.2,95.7c-1.2-1-2.2-0.1-3.1,0.9c-0.4,0.5-0.8,1.6-1.3,1.9c-0.4,0.2-1-0.1-1.3,0
			c-0.1,0-0.2,0-0.2,0v0.1c-0.1,0.3,0.3,1.3,0.4,1.6c0.2,0.4,0.5,0.8,0.8,1c0.1,0.3,0.2,0.5,0.3,0.8c0.4,0.9,1.4,3.2,2.2,3.7
			c0.7,0.4,0.5-1.1,1.1-0.6c1.2-0.9,2.2-2.1,3.3-3.3c0.3-0.3,0.4-0.3,0.4-0.7c0-0.4-0.7-1.3-0.8-1.7c-0.2-0.7-0.3-1.6-0.7-2.2
			c-0.1-0.2-0.3-0.4-0.4-0.5C29.6,96.4,29.5,96,29.2,95.7z"/>
		<path id="Shape_45_" style="&st11;" d="M12.1,17c-0.3,0.2-0.5,0.4-0.7,0.5c-0.4,0.3-0.7,0.6-1,1c0,0.1-0.1,0.1-0.1,0.2
			c1.1,0.2,1.6,0.1,2-0.4c0.5-0.6,0.9-1.3,0.9-1.3l0.7-1.1C13.5,15.7,13.3,15.6,12.1,17z"/>
		<g id="Shape_46_" transform="translate(13.265306, 0.000000)">
			<path style="&st11;" d="M9.1,12.1l-0.3,9c-0.1,1.3-1.1,2.2-2.4,2.2s-2.2-1.1-2.2-2.5v-0.1l0.8-9C5,10.6,6,9.8,7.1,9.9
				C8.4,10,9.2,10.9,9.1,12.1z"/>
			<path style="&st15;" d="M9.3,15.6c-0.7,0.2-1.1,1.4-2.7,1.9c-2,0.7-3.4,0.4-4.1,0.5c-1.1,0-2.1-1-2.1-1.6
				c-0.1-1.5,0.1-2.8,0.4-4.3c0.7-3.5,2.8-6.3,3.8-7.8C7.6,2,9.9,2.5,13.3,5C17.1,7.7,14.9,13.6,9.3,15.6z"/>
			<path style="&st16;" d="M14.2,5.2L9.4,6.3v2.5c0.3,1.3,0.3,2.9,0.4,4.2c0.6,0.8,1.3,1.9,1.3,1.9c0.1,0.2,2.9-1.9,3.3-2.6
				C16.7,9.2,15.9,4.8,14.2,5.2z"/>
			<path style="&st17;" d="M14.4,5.8c1.2-3.8-4.5-6.2-9-4.1C3.7,2.6,2.6,3.5,1.6,4.5C0.9,5.3,0.7,8.2,1.1,9.1
				c0.8-1.7,7.8-0.2,8.8-0.5C11.3,8.2,14,7.3,14.4,5.8z"/>
			<path style="&st15;" d="M10.2,13.5c1.9-1.5,2.6,0.3,2.1,1.1c-0.5,1.1-2.6,1.9-3.8,1.1C9.4,14.5,9.6,13.9,10.2,13.5z"/>
		</g>
		<path id="Shape_47_" style="&st18;" d="M38.5,39.1c-0.2-0.7-0.7-1.4-1.1-2.1c-0.4-0.6-0.7-1.2-1.1-1.8c-0.4-0.6-0.7-1.2-1.1-1.8
			c-0.2-0.3-0.4-0.6-0.6-0.9s-0.4-0.6-0.6-0.8c-0.4-0.6-0.8-1.1-1.2-1.7c-0.2-0.3-0.4-0.5-0.6-0.8c-0.2-0.3-0.4-0.5-0.7-0.8
			c-0.5-0.5-0.9-1-1.4-1.5c-0.2-0.2-0.5-0.5-0.8-0.7c-0.1-0.1-0.3-0.2-0.4-0.4c-0.1-0.1-0.3-0.2-0.4-0.3c-0.9-0.7-2.1-0.7-3,0
			c-1,0.8-1.2,2.3-0.4,3.4l0.3,0.4c0.1,0.1,0.2,0.2,0.3,0.4c0.2,0.2,0.4,0.5,0.6,0.7c0.4,0.5,0.8,1,1.3,1.5c0.2,0.2,0.4,0.5,0.7,0.7
			l0.7,0.7c0.4,0.5,0.9,1,1.4,1.4l1.4,1.4c0.5,0.5,0.9,1,1.3,1.4c0.4,0.5,0.8,1,1.2,1.5c0.2,0.2,0.4,0.5,0.5,0.8
			c0.1,0.1,0.2,0.3,0.3,0.4c-0.1,0.1-0.2,0.3-0.4,0.5c-0.2,0.2-0.3,0.4-0.5,0.6c-0.2,0.2-0.3,0.5-0.5,0.7l-2.2,3.2
			c-0.4,0.5-0.8,1.1-1.2,1.6c-0.4,0.5-0.9,1-1.3,1.5c-0.5,0.5-0.9,1-1.4,1.4c-0.1,0.1-0.2,0.1-0.2,0.2c0.7,0.6,1.4,1.2,2.1,1.8
			c0-0.1,0.1-0.1,0.1-0.2c0.4-0.5,0.8-1,1.3-1.5s1-0.9,1.5-1.3s1-0.8,1.6-1.3c1.6-1.3,4.4-4.3,4.8-6.2
			C38.8,40.6,38.7,39.8,38.5,39.1z"/>
		<path id="Shape_48_" style="&st20;" d="M39,39.8c0-0.3-0.1-0.7-0.2-1c-0.2-0.4-0.3-0.7-0.5-1c-0.2-0.3-0.4-0.7-0.5-1
			c-0.4-0.6-0.7-1.2-1.1-1.8c-0.4-0.6-0.8-1.2-1.2-1.7c-0.4-0.6-0.8-1.1-1.2-1.7c-0.4-0.6-0.8-1.1-1.3-1.6c-0.2-0.3-0.4-0.5-0.7-0.8
			c-0.2-0.3-0.4-0.5-0.7-0.8c-0.5-0.5-0.9-1-1.4-1.5c-0.2-0.2-0.5-0.5-0.8-0.7c-0.1-0.1-0.3-0.2-0.4-0.4c-0.1-0.1-0.3-0.2-0.4-0.3
			c-0.9-0.7-2.3-0.7-3.3,0c-1.1,0.9-1.2,2.6-0.3,3.7l0.3,0.4l0.3,0.4l0.6,0.7c0.4,0.5,0.8,1,1.3,1.5c0.2,0.2,0.4,0.5,0.7,0.7
			c0.2,0.2,0.4,0.5,0.7,0.7l1.3,1.5c0.9,1,1.8,1.9,2.7,3c0.4,0.5,0.8,1,1.2,1.5c0.2,0.2,0.4,0.5,0.5,0.7l0,0c0,0,0,0,0,0.1
			c-0.1,0.3-0.3,0.7-0.5,1c-0.2,0.4-0.4,0.7-0.6,1.1c-0.1,0.2-0.2,0.3-0.3,0.5c-0.1,0.2-0.2,0.3-0.3,0.5l-0.1,0.1
			c-0.4,0.6-0.4,1.5,0.1,2.2c0.6,0.8,1.8,1.2,2.8,0.6c1.2-1,2.3-2.7,3.1-4.1C38.9,41.5,39.1,40.7,39,39.8z"/>
		<path id="Shape_49_" style="&st15;" d="M28.5,49.4c-1.3-0.4-2.3,0-3.4,0.9c-0.8,0.7-1.8,1.1-2.3,1.1c0.1,0.9,1.6,0.5,2.3,0.2
			c-0.8,0.8-2.7,1.8-3.4,2.8c-0.1,0.2-0.4,0.4-0.3,0.6c0.1,0.2,2.3-1,3.2-1.7c-1.3,1.2-3.1,2.1-2.9,2.5c0.1,0.2,0.8,0.4,1,0.3
			c1-0.1,2.2-0.8,3.2-1.4c-0.6,0.6-1.9,1.3-1.8,1.4c0.2,0.1,1.1-0.2,1.3-0.3c0.4-0.2,0.8-0.4,1.2-0.7c0.7-0.6,1.5-1.2,2.1-1.9
			c0.5-0.5,0.9-1.1,1.1-1.8C29.9,51,29.6,49.8,28.5,49.4z"/>
	</g>
</g>
<g id="women">
	<g id="Group_3_" transform="translate(48.959184, 79.689531)">
		<g id="Shape_50_" transform="translate(0.000000, 11.238267)">
			<g transform="translate(0.000000, 0.000000)">
				<path style="&st19;" d="M14.9,6.7C14.9,6.7,14.9,6.6,14.9,6.7c-0.4-0.3-0.8-0.6-1.2-0.7c-1.3-0.3-2.2,1-3.1,1.8
					c-0.2,0.2-0.4,0.4-0.6,0.7c-1.1,1.1-1.9,2.1-2.6,3.2c-1.2,2.1-2,5.9-1.9,5.6c0,0-3.7,1.3-5,0.2c-0.6,1.9-0.7,3.9-0.2,5.7
					c0.1,0.3,1,0.6,1.2,0.6c4.8,1.3,8.4-7.5,10.4-9.5c0.8-0.8,1.5-1.6,2.1-2.7c0.5-0.7,1.1-1.7,1.4-2.6C15.9,8.4,15.6,7.4,14.9,6.7z
					"/>
				<path style="&st11;" d="M5.7,17.6c0.9-1.2,3.2-9.4,3.9-9.8c0.1,0-1.1-1.2-1.9-1.8c0,0,0,0.1-0.1,0.1C7.5,6.2,7.3,6.4,7.1,6.7
					c-2.4,4.5-4.8,6.9-6.5,11C2,18.9,5.6,17.7,5.7,17.6z"/>
				<path style="&st11;" d="M8.3,4.7c0.5-0.5,0.9-0.8,0.9-0.6C9.3,4,9.4,3.8,9.6,3.6C9.7,3.4,9.9,3.2,10,3c0.3-0.4,0.6-0.8,0.9-1.2
					c0.6-0.8,1.3-1.3,2-1.2c0.6,0.1,0.9,0.9,0.9,1.2c0.1,0.5,0.2,1,0.1,1.5c0,0.5-0.2,0.9-0.3,1.4c-0.1,0.3-0.3,0.6-0.5,0.8
					C12.8,6,10.7,7.3,9.5,7.8C9.3,7.6,7.2,6.8,7.2,6.6C7.2,6,7.5,5.3,8.3,4.7z"/>
			</g>
			<path style="&st21;" d="M14.1,1.1c-0.1-0.3-0.3-0.6-0.8-0.7c-0.7-0.1-1.8,0.8-2.8,1.7c0-0.2,0.1-0.3,0.1-0.5
				c0.1-0.3,0.1-0.7,0.1-1c-0.5-0.3-0.9,1.5-1.1,1.8C9.5,2.8,9.1,3.6,9,3.9C8.7,4.3,8.5,4.6,8.4,4.7c0,0.7,0.3,1.4,1.3,1.3
				c2.6-0.2,1.3-2.9,2.8-3.3c-0.1,0.7,0.1,2-0.3,3.3c0.6-0.4,1.1-0.8,1.6-1.3c0.2-0.4,0.3-0.9,0.3-1.4C14.1,2.9,14.2,1.6,14.1,1.1z"
				/>
		</g>
		<path id="Shape_51_" style="&st24;" d="M16.6,49.3c0.1,0.3,0.1,0.6,0.1,1c0,0.2,0,0.3,0.1,0.4c0,0.1,0,0.3,0,0.4l0.1,0.9L17,53
			c0.1,1.2,0.1,2.3,0.1,3.6c0,1.2,0,2.3,0.1,3.6c0,0.6,0,1.2,0.1,1.8c0,0.6,0.1,1.2,0.1,1.8c0,0.6,0.1,1.2,0.1,1.8s0.1,1.2,0.2,1.8
			s0.1,1.2,0.2,1.8c0.1,0.6,0.1,1.2,0.2,1.8s0.2,1.2,0.3,1.8c0.1,0.6,0.2,1.2,0.4,1.8c0.1,0.6,0.3,1.2,0.4,1.8
			c0.2,0.6,0.3,1.2,0.5,1.8l-0.1-0.3l0.7,1.6c0.2,0.5,0.5,1.1,0.7,1.6c0.2,0.5,0.5,1,0.7,1.6c0.2,0.5,0.4,1.1,0.6,1.6
			c0.2,0.5,0.3,1.1,0.5,1.6c0.1,0.5,0.2,1.1,0.3,1.7c0.1,0.6,0.2,1.1,0.3,1.7c0.1,0.6,0.1,1.1,0.2,1.7c0.1,0.6,0.1,1.1,0.1,1.7
			s0.1,1.1,0.1,1.7s0,1.1,0.1,1.7c0,0.6,0,1.1,0,1.7c0,0.5,0,1.1,0,1.6c0,0.6,0,1.1-0.1,1.6c0,0.6-0.1,1.1-0.1,1.6
			c0,0.6-0.1,1.1-0.2,1.7c-0.1,0.9-1,1.6-1.9,1.4c-0.8-0.1-1.3-0.7-1.4-1.4v-0.1l-0.5-3.2c-0.2-1-0.3-2.1-0.5-3.2l-0.3-1.5
			c-0.1-0.5-0.2-1-0.3-1.5c-0.1-0.5-0.2-1-0.3-1.5c-0.1-0.5-0.2-1-0.3-1.5c-0.1-0.5-0.2-1-0.4-1.5c-0.1-0.5-0.3-1-0.4-1.5
			c-0.3-1-0.6-1.9-0.8-3L16,85.1c-0.1-0.5-0.2-1-0.4-1.4c-0.1-0.5-0.3-0.9-0.5-1.4c-0.2-0.5-0.4-0.9-0.6-1.3l-0.1-0.3l-1.5-3.7
			c-0.5-1.2-1-2.5-1.5-3.8c-0.2-0.6-0.5-1.2-0.7-1.9c-0.2-0.6-0.5-1.3-0.7-1.9s-0.4-1.3-0.6-1.9c-0.2-0.6-0.4-1.3-0.5-1.9
			c-0.2-0.7-0.3-1.3-0.5-2c-0.1-0.7-0.3-1.3-0.4-2c-0.1-0.7-0.2-1.3-0.3-2c0-0.3-0.1-0.7-0.1-1l-0.1-1v-1v-1c0-0.7,0-1.4,0.1-2
			c0-0.3,0.1-0.7,0.1-1c0-0.3,0.1-0.7,0.2-1c0-0.2,0.1-0.4,0.1-0.5c0-0.2,0.1-0.4,0.1-0.5c0.1-0.3,0.2-0.6,0.3-0.9
			c0.7-2.3,3.3-3.6,5.5-2.8C15.2,46.5,16.3,47.8,16.6,49.3z"/>
		<path id="Shape_52_" style="&st8;" d="M24.1,108.4L24.1,108.4c0-0.3,0-5,0-5.2c0,0-1.2-0.3-4.3-1.1c-0.6,1.6-1.6,3.1-2.9,4.2
			c-1.5,1.5-3.1,2.8-4.3,3.5c-0.9,0.6-2.1,0.8-2.4,2c-0.3,1.3,1,2.3,3.4,2.1c0.8-0.1,1.1-0.2,2.1-0.5c1.4-0.4,1.6-0.8,2.7-1.2
			c1-0.5,2.9-1.1,3.7-1.5C23.6,110,24.1,109,24.1,108.4z"/>
		<path id="Shape_53_" style="&st19;" d="M24.2,107.9L24.2,107.9c0,0.7-0.5,1.6-1.8,2.3c-0.8,0.4-2.8,1-3.8,1.5
			c-1,0.5-1.2,0.9-2.7,1.3c-0.1,0-0.2,0.1-0.3,0.1c-0.7,0.2-1,0.3-1.7,0.4c-2.3,0.2-3.8-0.4-3.5-1.7c0.3-1,1.4-1.6,2.2-2.2
			c0.1-0.1,0.2-0.1,0.3-0.2c1.1-0.8,2.8-1.9,4.3-3.5c1.2-1.2,2.2-2.7,2.9-4.2c2.6-1.2,4.2,0.1,4.3,1.1
			C24.2,103.7,24.2,107.6,24.2,107.9z"/>
		<g transform="translate(7.163265, 9.194946)">
			
				<rect id="Rectangle-path_2_" x="1.3" y="2.7" transform="matrix(0.736 -0.677 0.677 0.736 -1.9029 4.3082)" style="&st13;" width="6.6" height="3.9"/>
			<polygon id="Shape_54_" style="&st14;" points="3.5,3.5 1.7,5.1 3.5,6.9 			"/>
			<polygon id="Shape_55_" style="&st14;" points="4.2,2.9 4.2,7.2 4.9,6.5 4.9,2.2 			"/>
		</g>
		<path id="Shape_56_" style="&st19;" d="M25.2,97.5c-0.4-1.5-1.8-1.3-3.1-0.9c-0.6,0.2-1.6,0.9-2.2,0.9c-0.4,0-0.8-0.6-1.2-0.7
			c-0.1,0-0.2,0-0.2-0.1l-0.1,0.1c-0.3,0.2-0.4,1.3-0.5,1.6c-0.1,0.5,0,0.9,0.1,1.3c-0.1,0.3-0.1,0.6-0.2,0.9c-0.1,1-0.5,3.5,0,4.4
			c0.4,0.7,1-0.7,1.3,0.1c1.5-0.1,3.1-0.6,4.6-1c0.4-0.1,0.5-0.1,0.7-0.4c0.2-0.4,0.1-1.4,0.2-1.9c0.2-0.7,0.6-1.5,0.6-2.3
			c0-0.2-0.1-0.5-0.1-0.7C25.2,98.3,25.3,98,25.2,97.5z"/>
		<path id="Shape_57_" style="&st25;" d="M19.3,39.7c-3.1-1.4-6.4-0.1-8.8,2.7c-2.2,2.6,4.2,11.2,4.2,11.2c0.4,0.2,0.9,0.5,1.3,0.7
			c2.4,1.3,4.9,2.7,6,2.9c1.6,0.3,2.9-0.3,4.1-1.3C28.8,53.5,28.6,43.9,19.3,39.7z"/>
		<path id="Shape_58_" style="&st24;" d="M16.1,54.4c-0.4-0.2-0.9-0.5-1.3-0.7c-2.1-1.2-4.2-2.5-5.1-3.1c0,0-0.1,0-0.1-0.1
			C8.5,49.7,8,49,8.1,48.5c0.2-2.5,1.1-4.6,2.4-6.1C10.7,46,13.2,52.1,16.1,54.4z"/>
		<path id="Shape_59_" style="&st25;" d="M30.6,105.9v-0.4c0-0.3-0.1-0.6-0.1-0.8c-0.1-0.6-0.2-1.1-0.3-1.7
			c-0.1-0.6-0.2-1.1-0.3-1.7c-0.1-0.5-0.3-1.1-0.4-1.6c-0.1-0.5-0.3-1.1-0.5-1.6c-0.2-0.5-0.3-1.1-0.5-1.6c-0.2-0.5-0.4-1-0.6-1.6
			c-0.2-0.5-0.4-1-0.7-1.5c-0.2-0.5-0.5-1-0.7-1.5c-0.2-0.5-0.5-1-0.8-1.5c-0.3-0.5-0.5-1-0.8-1.5c-0.3-0.5-0.6-1-0.9-1.4
			c-0.6-0.9-1.3-1.8-2-2.8c-0.3-0.4-0.7-0.9-1.1-1.3c-0.1-0.1-0.2-0.2-0.3-0.3c0.1-0.3,0.1-0.5,0.1-0.8l0.3-1.8
			c0.2-1.2,0.4-2.5,0.7-3.7c0.2-1.2,0.5-2.5,0.7-3.7l0.4-1.8l0.4-1.8c0.1-0.6,0.3-1.2,0.4-1.7c0.1-0.6,0.3-1.1,0.5-1.7
			s0.3-1.1,0.5-1.7l0.5-1.7c0.3-1.1,0.7-2.2,1-3.4l0.2-0.8l0.2-0.8c0-0.1,0.1-0.3,0.1-0.4c0-0.1,0-0.3,0.1-0.4
			c0.1-0.3,0.1-0.6,0.2-1c0.2-1.5-0.3-3.2-1.6-4.2c-1.9-1.4-4.7-1.1-6.1,0.8c-0.2,0.3-0.4,0.5-0.6,0.8c-0.1,0.1-0.2,0.3-0.3,0.4
			c-0.1,0.2-0.2,0.3-0.3,0.5c-0.2,0.3-0.3,0.6-0.5,0.9c-0.1,0.3-0.3,0.6-0.4,0.9c-0.3,0.6-0.5,1.3-0.7,1.9l-0.3,1l-0.3,1
			c-0.2,0.7-0.3,1.3-0.4,2c-0.1,0.7-0.3,1.3-0.4,2c-0.1,0.7-0.2,1.3-0.3,2c-0.1,0.7-0.2,1.3-0.2,2c-0.1,1.3-0.2,2.7-0.3,4.1
			c-0.1,1.3-0.1,2.7-0.1,4.1c0,1.3,0.1,2.7,0.2,4c0,0.7,0.1,1.3,0.2,1.9c0.1,0.6,0.1,1.3,0.2,1.9l0.1,1l0.5,0.9
			c0.3,0.4,0.5,0.9,0.8,1.3c0.3,0.4,0.6,0.8,0.8,1.3l1.7,2.6l0.9,1.2c0.3,0.4,0.6,0.8,0.8,1.3c0.3,0.4,0.6,0.8,0.8,1.3
			c0.3,0.4,0.5,0.9,0.8,1.3c0.3,0.4,0.5,0.9,0.8,1.3c0.3,0.4,0.5,0.9,0.7,1.3c0.2,0.4,0.5,0.9,0.7,1.3c0.2,0.4,0.5,0.9,0.7,1.4
			c0.2,0.5,0.4,0.9,0.7,1.4c0.2,0.5,0.4,0.9,0.6,1.4c0.2,0.5,0.4,0.9,0.6,1.4l0.3,0.7l0.1,0.4c0,0.1,0.1,0.2,0.1,0.3l0.1,0.3
			c0.3,0.6,0.9,1,1.7,1c0.9-0.1,1.6-0.9,1.6-1.8L30.6,105.9z"/>
		<path id="Shape_60_" style="&st26;" d="M27.9,23.8c-1.2-1.5-2.8-2.9-4.3-4c-1-0.7-2.1-1.4-3.3-1.8c-3.3-1.4-5.6-0.8-6.9-0.5
			c-1.5,0.3-1.8,3.9-2.7,5.8c-2.7,3.1-1.9,6.4,0.8,8.4c0.6,3,0.8,4.7,0.1,6.7c-1.2,3.5-3.1,5.1-3.1,7.4c0.1,5.1,7.9,8.4,12.2,7.7
			c4.2-0.6,6.3-4.3,4.8-8.2c0,0-0.5-1-0.6-1.2c-2.4-4.4-1.1-9.3,1.8-13C28,30,30.3,26.9,27.9,23.8z"/>
		<path id="Shape_61_" style="&st11;" d="M15.6,26.1c0,0,6.3-2.9,6.7-4.5C23.3,17.4,13.5,15.5,15.6,26.1z"/>
		<path id="Shape_62_" style="&st8;" d="M28,114.5c-3.6,1.7-6.3,1.7-6.2-0.1c0-0.4,0.4-1.1,0.7-1.5c0.1-0.1,0.2-0.2,0.3-0.3
			c0.3-0.3,0.7-0.6,1-0.9l0,0c1.2-1.1,1.9-1.7,3.6-1.8c2.8-0.2,3.6-6,5.2-4.7c0,0,0.6,1.1,0.5,1.6C33,108.5,30.8,113.2,28,114.5z"/>
		<path id="Shape_63_" style="&st26;" d="M27.9,114.1c-0.2,0.1-0.3,0.2-0.5,0.2c-3.4,1.5-5.8,1.4-5.7-0.3c0-0.4,0.4-1.1,0.7-1.5
			c0.1-0.1,0.2-0.2,0.3-0.3c0.2-0.2,0.3-0.3,0.5-0.5c0.2-0.2,0.3-0.3,0.5-0.5l0,0c1-1,1.4-2.1,1.9-4.2c0.4-1.6,0.6-3.4,0.3-5.1
			c3-0.8,4.2-1.2,4.2-1.2c0,0.2,2.4,4.2,2.6,4.5l0,0l0,0C33.5,106.7,31.2,112.4,27.9,114.1z"/>
		<path id="Shape_64_" style="&st26;" d="M29,96c-1.2-1-2.2-0.1-3.1,0.9c-0.4,0.5-0.8,1.6-1.4,1.9c-0.4,0.2-1-0.1-1.3,0
			c-0.1,0-0.2,0-0.2,0V99c-0.1,0.3,0.3,1.3,0.4,1.6c0.2,0.5,0.5,0.8,0.8,1c0.1,0.3,0.2,0.6,0.3,0.8c0.4,1,1.4,3.3,2.3,3.8
			c0.7,0.4,0.5-1.1,1.1-0.6c1.2-0.9,2.2-2.2,3.3-3.4c0.3-0.3,0.4-0.3,0.4-0.7c0-0.5-0.7-1.3-0.8-1.8c-0.2-0.7-0.3-1.6-0.7-2.2
			c-0.1-0.2-0.4-0.4-0.4-0.5C29.4,96.9,29.4,96.4,29,96z"/>
		<path id="Shape_65_" style="&st11;" d="M11.8,16.1c-0.3,0.2-0.5,0.4-0.7,0.5c-0.4,0.3-0.7,0.6-1,1.1c0,0.1-0.1,0.1-0.1,0.2
			c1.1,0.2,1.7,0.1,2.1-0.4c0.5-0.6,0.9-1.3,0.9-1.3l0.7-1.2C13.1,14.9,12.9,14.9,11.8,16.1z"/>
		<path id="Shape_66_" style="&st18;" d="M38.4,38.7c-0.2-0.7-0.7-1.4-1.1-2.2c-0.4-0.6-0.7-1.2-1.1-1.8c-0.4-0.6-0.7-1.2-1.1-1.8
			c-0.2-0.3-0.4-0.6-0.6-0.9c-0.2-0.3-0.4-0.6-0.6-0.9c-0.4-0.6-0.8-1.1-1.2-1.7c-0.2-0.3-0.4-0.5-0.7-0.8c-0.2-0.3-0.4-0.5-0.7-0.8
			c-0.5-0.5-0.9-1-1.4-1.5c-0.3-0.3-0.5-0.5-0.8-0.7c-0.1-0.1-0.3-0.2-0.4-0.4c-0.1-0.1-0.3-0.2-0.4-0.3c-0.9-0.7-2.1-0.7-3.1,0
			c-1,0.8-1.2,2.5-0.4,3.5l0.3,0.4c0.1,0.1,0.2,0.2,0.3,0.4c0.2,0.3,0.4,0.5,0.6,0.7c0.4,0.5,0.9,1,1.3,1.5c0.2,0.2,0.4,0.5,0.7,0.7
			l0.7,0.7c0.5,0.5,0.9,1,1.4,1.5l1.4,1.4c0.5,0.5,0.9,1,1.3,1.5c0.4,0.5,0.9,1,1.2,1.5c0.2,0.3,0.4,0.5,0.5,0.8
			c0.1,0.1,0.2,0.3,0.3,0.4c-0.1,0.1-0.2,0.3-0.4,0.5c-0.2,0.2-0.3,0.4-0.5,0.6c-0.2,0.2-0.3,0.5-0.5,0.7L31.1,45
			c-0.4,0.5-0.8,1.1-1.2,1.6s-0.9,1-1.3,1.5c-0.5,0.5-0.9,1-1.5,1.4c-0.1,0.1-0.2,0.1-0.2,0.2c0.7,0.6,1.4,1.2,2.1,1.8
			c0-0.1,0.1-0.1,0.1-0.2c0.4-0.5,0.8-1,1.3-1.5s1-0.9,1.5-1.4c0.5-0.4,1.1-0.8,1.6-1.3c1.6-1.3,4.4-4.3,4.9-6.3
			C38.7,40,38.7,39.3,38.4,38.7z"/>
		<path id="Shape_67_" style="&st27;" d="M39,39.3c0-0.3-0.1-0.7-0.2-1c-0.2-0.4-0.4-0.7-0.5-1.1c-0.2-0.3-0.4-0.7-0.6-1
			c-0.4-0.6-0.8-1.2-1.1-1.8c-0.4-0.6-0.8-1.2-1.2-1.8c-0.4-0.6-0.8-1.2-1.2-1.7c-0.4-0.6-0.8-1.1-1.3-1.7c-0.2-0.3-0.4-0.5-0.7-0.8
			c-0.2-0.3-0.4-0.5-0.7-0.8c-0.5-0.5-0.9-1-1.4-1.5c-0.2-0.2-0.5-0.5-0.8-0.7c-0.1-0.1-0.3-0.2-0.4-0.4c-0.2-0.1-0.3-0.2-0.4-0.3
			c-0.9-0.7-2.3-0.8-3.4,0c-1.1,0.9-1.3,2.6-0.4,3.7l0.3,0.4l0.3,0.4l0.6,0.7c0.4,0.5,0.9,1,1.3,1.5c0.2,0.2,0.4,0.5,0.7,0.7
			c0.2,0.2,0.4,0.5,0.7,0.7l1.3,1.5c0.9,1,1.8,2,2.7,3.1c0.4,0.5,0.8,1,1.2,1.5c0.2,0.2,0.4,0.5,0.5,0.8l0,0c0,0,0,0,0,0.1
			c-0.1,0.3-0.3,0.7-0.5,1c-0.2,0.4-0.4,0.7-0.6,1.1c-0.1,0.2-0.2,0.4-0.3,0.5c-0.1,0.2-0.2,0.3-0.3,0.5l-0.1,0.1
			c-0.4,0.7-0.4,1.5,0.1,2.2c0.7,0.8,1.9,1.2,2.8,0.6c1.3-1,2.4-2.7,3.2-4.1C38.8,41.1,39.1,40.2,39,39.3z"/>
		<path id="Shape_68_" style="&st15;" d="M28.4,49.1c-1.3-0.4-2.3,0-3.4,0.9c-0.9,0.7-1.9,1.1-2.4,1.1c0.1,0.9,1.6,0.5,2.4,0.2
			c-0.8,0.8-2.8,1.8-3.5,2.9c-0.1,0.2-0.4,0.4-0.3,0.6c0.1,0.2,2.3-1.1,3.2-1.7c-1.4,1.2-3.2,2.2-3,2.5c0.1,0.2,0.8,0.4,1,0.4
			c1-0.1,2.3-0.8,3.3-1.4c-0.6,0.6-1.9,1.3-1.8,1.4c0.2,0.1,1.1-0.2,1.3-0.3c0.4-0.2,0.8-0.4,1.2-0.7c0.7-0.6,1.5-1.2,2.1-2
			c0.5-0.5,0.9-1.1,1.1-1.8C29.7,50.8,29.5,49.6,28.4,49.1z"/>
		<path id="Shape_69_" style="&st17;" d="M24.6,2.5C23,0.7,21.3,0.1,19,0.7c-2.7,0.7-2.9,3.9-5.1,5.4c-1.1,0.7-2.2,0.9-2.7,2.2
			c-0.3,0.9,0.1,1.8-0.3,2.9c-0.7,1.7-1.6,2.5,0.5,4.1c4.2,3.1,8.5-6,10.2-8.7L24.6,2.5z"/>
		<path id="Shape_70_" style="&st11;" d="M22.3,10.7L22,19.8c0,1.3-1.1,2.3-2.4,2.2c-1.3,0-2.3-1.1-2.2-2.5v-0.1l0.8-9.1
			c0.1-1.1,1.1-2,2.2-1.9C21.4,8.7,22.3,9.6,22.3,10.7z"/>
		<path id="Shape_71_" style="&st15;" d="M22.1,14.3c-0.7,0.3-1,1.5-2.4,2.1c-2,0.9-3.4,0.7-4.1,0.8c-1.2,0.1-2.2-0.8-2.3-1.5
			c-0.2-1.5-0.1-2.9,0.1-4.4c0.5-3.6,2.3-6.6,3.3-8.1c2.9-2.7,5.3-2.3,8.9-0.1C29.4,5.8,27.6,12,22.1,14.3z"/>
		<path id="Shape_72_" style="&st15;" d="M22.8,12.2c1.8-1.6,2.6,0.1,2.2,0.9c-0.5,1.1-2.4,2.1-3.7,1.4
			C22.1,13.3,22.3,12.7,22.8,12.2z"/>
		<path id="Shape_73_" style="&st17;" d="M18.9,4.8c-1,0-2.1,0.5-2.8,1.4c-1,1.5-0.4,1.3-2.1,2c-1.5,0.7-1.2,1-1.6,2.3
			c-0.4,1.4-0.5,0.8-1.6,1.6c-0.4,0.3-0.8,0.6-1.1,1c-0.1,0.2-0.2,0.5,0,0.7c0.1,0.2,0.6,0.1,0.6-0.2c0,1.6-1.9,0.4-1.1-1.4
			c0.3-0.7,0.9-0.8,1.2-1.3c0.5-0.8,0.3-1,0.3-2c0-1.1,0.1-2.2,1.2-2.9c0.7-0.4,1.5,0.1,2-0.5c0.9-1.3-0.7-4,2.3-4.1
			c1.8-0.1,2.4,1.5,2.8,3L18.9,4.8z"/>
		<path id="Shape_74_" style="&st17;" d="M17.9,4.4c0.7,0.9,5.6-1.1,6.1-2.1c-1.2-0.9-2.2-1.8-4-1.5c-1,0.2-3.3,1-3.1,1.9L17.9,4.4z
			"/>
		<path id="Shape_75_" style="&st16;" d="M18.7,4.7c1.3,1.7-1.8,3.5-1.6,5.2c0.2,1.1,1,1.3,0.4,2.6c-0.5,1-1.3,0.7-1.2,2.2
			c0,0.7,0.3,1.4,0.3,2.1c0,0.3,0,0.7-0.3,0.8c-0.2,0.1-0.5,0-0.7-0.1c-0.3-0.2-0.2-0.5,0-0.8c-1.4,0.1-1,1.6,0.1,1.9
			c2.7,0.7,2-2.3,2.6-3.6c0.4-0.9,1-0.5,1.6-1.1c0.9-0.8,0.5-1.3,0.6-2.3c0.1-1.7,1.3-1.5,1.7-3.2c0.4-1.7-1.3-4.6-3.4-3.8H18.7z"/>
		<path id="Shape_76_" style="&st16;" d="M29.6,12c0.2-0.8-0.5-1.4-0.3-2.5c0.4-1.7,1.1-1.9-0.2-3.7c-1-1.3-1.8-3.2-3.6-3.5
			c-2.6-0.4-5.1,0.7-6.8,2.2c0,0,0.8,1,1,1.8c0.5,2.1,0.8,4.1-0.5,6.1c-1.1,1.8-2,4.1-2.4,6.2c1.3,0.9,1.4,0.1,2.3-0.2
			c1.1-0.4,1.6,0.2,2.7,0.3c-0.7-2.1,1.9,1.3,3.4-0.7c-1.2,0.4-0.7-0.8,0.1-1c0.7-0.2,1.2,0.1,1.9-0.4c0.4-0.4,0.6-0.9,0.5-1.5
			c-0.2-0.5-0.3-0.4-0.2-1C27.8,13,29.4,13,29.6,12z"/>
	</g>
</g>
<g id="dots1">
	<path style="&st28;" d="M238.7,21.3c0-1.5-1.2-2.8-2.8-2.8s-2.8,1.2-2.8,2.8c0,1.5,1.2,2.8,2.8,2.8S238.7,22.8,238.7,21.3z"/>
	<path style="&st28;" d="M103,63c0-1.2,1-2.2,2.2-2.2s2.2,1,2.2,2.2s-1,2.2-2.2,2.2C104,65.2,103,64.3,103,63z"/>
	<path style="&st28;" d="M32.1,62.8c0-1.3,1.1-2.5,2.4-2.5s2.4,1.1,2.4,2.5c0,1.3-1.1,2.5-2.4,2.5C33.2,65.4,32.1,64.3,32.1,62.8z"
		/>
</g>
<g id="dots2">
	<path style="&st28;" d="M40.7,62.8c0-1.3,1.1-2.5,2.4-2.5s2.4,1.1,2.4,2.5c0,1.3-1.1,2.5-2.4,2.5C41.8,65.4,40.7,64.3,40.7,62.8z"
		/>
	<path style="&st28;" d="M110.6,63c0-1.2,1-2.2,2.2-2.2s2.2,1,2.2,2.2s-1,2.2-2.2,2.2C111.6,65.2,110.6,64.3,110.6,63z"/>
	<path style="&st28;" d="M219.5,21.3c0-1.5-1.2-2.8-2.8-2.8c-1.5,0-2.8,1.2-2.8,2.8c0,1.5,1.2,2.8,2.8,2.8
		C218.3,24,219.5,22.8,219.5,21.3z"/>
</g>
<g id="dots3">
	<path style="&st28;" d="M229.1,21.3c0-1.5-1.2-2.8-2.8-2.8s-2.8,1.2-2.8,2.8c0,1.5,1.2,2.8,2.8,2.8S229.1,22.8,229.1,21.3z"/>
	<path style="&st28;" d="M23.5,62.8c0-1.3,1.1-2.5,2.4-2.5c1.3,0,2.4,1.1,2.4,2.5c0,1.3-1.1,2.5-2.4,2.5
		C24.6,65.4,23.5,64.3,23.5,62.8z"/>
	<path style="&st28;" d="M118.4,63c0-1.2,1-2.2,2.2-2.2s2.2,1,2.2,2.2s-1,2.2-2.2,2.2C119.3,65.2,118.4,64.3,118.4,63z"/>
</g>
</svg>
