<?xml version="1.0" encoding="utf-8"?>
<!-- Generator: Adobe Illustrator 22.0.1, SVG Export Plug-In . SVG Version: 6.00 Build 0)  -->
<!DOCTYPE svg PUBLIC "-//W3C//DTD SVG 1.1//EN" "http://www.w3.org/Graphics/SVG/1.1/DTD/svg11.dtd" [
	<!ENTITY st0 "fill:#152129;">
	<!ENTITY st1 "fill:#5D656B;">
	<!ENTITY st2 "fill:#72797E;">
	<!ENTITY st3 "fill:#F8FCFF;">
	<!ENTITY st4 "fill:#B7BFC4;">
	<!ENTITY st5 "fill:#141313;">
	<!ENTITY st6 "fill:#2D373E;">
	<!ENTITY st7 "fill:#7E878C;">
]>
<svg version="1.1" xmlns="http://www.w3.org/2000/svg" xmlns:xlink="http://www.w3.org/1999/xlink" x="0px" y="0px"
	 viewBox="0 0 239 216" style="enable-background:new 0 0 239 216;" xml:space="preserve">
<g id="rhino-left">
	<title>about-page-isometric-01</title>
	<desc>Created with Sketch.</desc>
	<g id="seenit.io_x2F_about" transform="translate(-520.000000, -512.000000)">
		<g id="about-us" transform="translate(0.000000, 344.000000)">
			<g id="about-page-isometric-01" transform="translate(520.000000, 168.000000)">
				<g id="Group_2_" transform="translate(0.000000, 104.982097)">
					<g id="Shape_4_">
						<path style="&st0;" d="M104,39.1c2.3,5.5,2.5,11.2,1.6,16.6c1.2,5,2.5,9.6,0.2,12.9c0.3,0.6,0.6,1.1,0.7,1.7
							c0.1,0.4,0.1,0.8,0.1,1.2c2.2,2,2,4.7-0.9,6.4c-3.2,2-8.3,2-11.5,0c-2.9-1.9-2.1-6-2-6.5c0.4-3.9,3.9-5.5,2.9-10.2
							c-0.6-2.4-2.9-4.1-3.8-6.4c-2.2-5.2-1.9-11.2-1.9-16.7L104,39.1z"/>
						<path style="&st0;" d="M99.6,78.6c0.4-1.8,4.7-3.1,6.2-2.2c-1.7-1,0.5-2.6,1.4-2.9c1.2-0.3,2.1,0.3,2.5,1.3
							c0.1,0.3,0.7,3.3,0.6,3.3c-0.9-0.2-1.9-0.3-2.8-0.4c0.4,0.9,0.7,2.2,0.7,2.7c-1.7,0-5.8,0.6-8-0.6c0.1,0.5,0,0.9,0,1.4
							c-1.6-0.3-5.6-1-5.1-3.6C95.8,74.9,98.2,77.4,99.6,78.6z"/>
						<path style="&st0;" d="M15.8,46c-0.1-2.3-1.4-3.7-1-6.1c0.3-2,1.8-3,2.2-4.8c-1.3-2.3-2.1-4.7-2.3-7c-2.5-8-0.4-21.3,1.9-25.4
							c0.2-0.3,0.4-0.6,0.5-0.8c2.8-9.6,12.7-17,23.5-16.5c1-0.3,2.1-0.7,3.1-0.9c5.3-1.3,10,1,15.7,3.2c4.4,1.7,8.3,2.2,14.2,5.5
							c12.9,7.3,21,18.1,22.9,18.1c2.4,1,4.7,2.7,6.7,4.7c3.7,3.8,6.3,9.2,7.4,14.7c0,0.1,0,0.1,0,0.2c1.5,7.6,0.1,15.6-5.2,20.2
							c-2.4,13.8-12.7,19.6-23,17.6c-4.6-0.8-9.1-3.3-12.9-7.3c-0.7-0.7-1.4-1.6-2.1-2.4c-0.4-0.5-0.7-0.8-0.9-1.3
							c-9.4-0.7-18.3-3.1-23-6.6c-4.8-3.5-9.1-7.7-12.7-12.2c-0.4,0.4-0.7,0.7-0.8,0.8c-1.5,2.3-5.2,5.7-5.7,8.6
							c-0.9,5.9,3.1,5.7,4.2,9.4c-0.7,5.2-10.7,5.4-14.1,1.2C11.8,56.2,16,50.1,15.8,46z"/>
						<path style="&st0;" d="M82.3,51.7c2.3,5.5,2.5,11.2,1.6,16.6c1.2,5,2.5,9.6,0.2,12.9c0.3,0.6,0.6,1.1,0.7,1.7
							c0.1,0.4,0.1,0.8,0.1,1.2c2.2,2,2,4.7-0.9,6.4c-3.2,2-8.3,2-11.5,0c-2.2-1.4-1.8-3.9-0.7-5.5c1.6-2.2,4.2-3.8,3.2-8.5
							c-0.6-2.4-4.5-6.7-5.4-9c-2.2-5.2-1.9-11.2-1.9-16.7L82.3,51.7z"/>
						<path style="&st1;" d="M36.3-12.7c-1.2,5.8-1.4,11.8-1.4,18c1.9-28.3,28.3-17.5,44.9-6.7c5.2,3.4,9.5,6.6,12.1,12.3
							c-3.9,1.4-7.4,3.9-9,7.9c6.4-5,13.5-5.2,20.1-2.7c3.7,3.8,6.3,9.2,7.4,14.7c0,0.1,0,0.1,0,0.2c-6.7-1.4-14.3-3-19.6,2.2
							c0.7-4.9,7-5.7,11.1-6.9c-22.2-2.3-16.4,17.3-10.3,30.7c-5.3-5.7-6.9-13.3-9.7-20.2c-1,7.7,5.1,16.7,7.7,23.5
							c-2.2,0.5-3.7,3-5.1,5.8c-2.7-2.4-5.9-4.5-9.7-3.9c3.9,1,6.3,3.5,7.5,6.7c0.8,2.3,1.1,5,1,7.8c-5.3,0.9-10.9-8.6-13-12.8
							c-0.4-0.7-0.7-1.5-0.9-2.2c-2.2-5.8-1.4-11,1.4-17.1c-3.5,2-4.3,6-4.7,9.8c0-2.2-0.4-4.4-0.5-6.7c-0.2,1.3-0.9,2.9-1.1,4.5
							c-7.5-2.3-16.8-5.9-21.8-12.2c-5.7-7-7.7-16.9-9.1-24.7c-0.7,6,1.8,13.2,3.8,18.7c-1.8-3.7-3.9-6.3-5.1-11.2
							c1.9,9.4-5.1,21.4-11.8,8.9c-4.7-8.7-2.1-25.8,3.1-33.7C26.6-6.8,31.4-10,36.3-12.7z"/>
						<path style="&st0;" d="M114.6,21.8c0.4-0.4,0.7-0.7,1.1-1c0.8,5.2,0.8,8,0.1,9.9c-1.2,3-4.2,3.9-8.6,8.6l-2.1-5.5
							C103.4,31.6,110.2,25.8,114.6,21.8z"/>
						<path style="&st0;" d="M81.9,29.1c3.8,2.1,9.2,3.3,11.3,5.7c0.6,0.6,0.8,1.2,1,2l2,2.7l1.1,1.5c-1.6,0.2-3,0.4-4.4,0.4
							c-0.7,0-1.3,0-2-0.1c-3.4-0.3-6.1-1.3-8-3.6c-0.6-0.7-1-1.5-1.5-2.4c-0.8-1.9-1.3-4.3-1.3-7.3c0.2,0.2,0.5,0.3,0.7,0.5
							C81.3,28.8,81.6,29,81.9,29.1z"/>
						<path style="&st1;" d="M91.2,39.9c0.4-2,1-3.7,2.1-5.1c1.6-2.2,4.1-3.6,7.9-3.7c7.9-0.2,11.1,5.5,13.1,12
							c0.9,1.5,1.8,3.2,2.5,4.5c1.3,2.2,2.1,3.9,2.2,6.5c0,1,0,2,0,2.9c2.2,3.7,6.3,7.7,7.9,11.4c0.4,0.9,0.5,2,0.3,3
							c-0.4,2.2-1.8,4.7-3.9,6c-3.5,2.2-6.3,2.7-9.2,2.2c-1.5-0.3-2.2-1.2-6-3.3c-3.5-1.9-7.7-3.9-9.8-6.4c-2.8-3.2-4.5-6.7-5.2-9.6
							c-1.2-5-2.9-12.8-2.2-19.2C91,40.9,91.1,40.4,91.2,39.9z"/>
						<path style="&st1;" d="M114.6,21.8c-0.5,1.1-1.1,2.2-1.6,3.3c-1.2,2.7-2.1,4.5-1.9,7.5c1.2,0,3.3-0.7,4.7-1.9
							c-1.2,3-4.2,3.9-8.6,8.6l-2.1-5.5C103.4,31.6,110.2,25.8,114.6,21.8z"/>
						<path style="&st2;" d="M114.6,21.8c-0.5,1.1-1.1,2.2-1.6,3.3c-0.7,1.5-1.3,2.7-1.6,4c-0.2,0.1-0.3,0.3-0.5,0.4
							c-1.1,1-2.3,2-3.1,3.2c-0.8,1.3-1.3,2.6-1.7,4l-1.1-3C103.4,31.6,110.2,25.8,114.6,21.8z"/>
						<path style="&st2;" d="M94.3,36.8l2,2.7l1.1,1.5c-0.5,0.1-0.9,0.1-1.4,0.2c-2.3-2.9-6-4.5-8.7-7.1c-1.7-1.6-3.3-3.7-5.3-5.1
							C86.8,31.6,93.7,33,94.3,36.8z"/>
						<path style="&st2;" d="M107.7,33c4,2,6,9.6,7.7,13.5c2.6,5.8,2.6,5.5-3.9,8.1c-1.3,0.5-2.7,1.2-4,1.4
							c-1.6,0.2-1.8-0.5-3.1-1.6c-0.6-0.5-1-0.8-1.1-0.9c-1.5-1.3-1.5-2.8-1.7-4.7c-0.4-3.7-8.3-8-7.3-12.1
							C95.3,32.3,104.4,31.3,107.7,33z"/>
						<path style="&st2;" d="M75.5,29.2C75.4,39.7,66.3,45.6,57,41.2c-9.9-4.7-23.2-19.1-19.3-31.1C45.5-13.4,75.6,13.8,75.5,29.2z"
							/>
						<path style="&st2;" d="M29,1.7c3.1,3.4,2.7,24.2-5.2,17C19.5,14.6,21.9-5.9,29,1.7z"/>
						<path style="&st2;" d="M76.4,46.1l3.3,1.8c6.4,5.8-3.1,15.1-7.5,8.7C69.7,53.2,71.7,45.9,76.4,46.1z"/>
						<path style="&st3;" d="M114.4,55.8c2-2.1,3.8-4.7,4.1-7.6c0.2,0,0.5,0.1,0.7,0.1c0.7,1.7,1.1,3.4,1.4,5.2
							c0.3,2.2,0.3,6.2-1.5,7.8H119c0.1,3.3-5.1,3.7-6.7,0.9c-0.5-0.7-0.6-1.3-0.6-1.9c-0.1-0.2-0.1-0.4-0.1-0.6
							C111.5,58.1,113.2,56.9,114.4,55.8z"/>
						<path style="&st4;" d="M111.8,59.3c1.6,0.6,3.7,0.6,5.1-0.5c2.2-1.5,3.3-3.7,3.6-6c0,0.2,0.1,0.5,0.1,0.7
							c0.3,2.2,0.3,6.2-1.5,7.8H119c0.1,3.3-5.1,3.7-6.7,0.9c-0.5-0.7-0.6-1.3-0.6-1.9c-0.1-0.2-0.1-0.4-0.1-0.6s0-0.4,0-0.6
							C111.7,59.3,111.7,59.3,111.8,59.3z"/>
						<path style="&st3;" d="M123.6,52.3c0.1,0,0.3,0,0.4,0c1,2.6,1.8,5,1.7,7.9c0,2.5-0.1,6.7-2,8.9c-0.4,0.9-1.4,1.6-3.2,1.5
							c-2.1-0.2-3.1-1.5-3.3-2.8c-0.3-0.8-0.4-1.8-0.2-2.7C118,60.4,123.3,57.2,123.6,52.3z"/>
						<path style="&st4;" d="M124.1,65.7c0.6-0.5,1-1.1,1.4-1.7c-0.2,1.9-0.7,3.8-1.8,5.1c-0.4,0.9-1.4,1.6-3.2,1.5
							c-2.1-0.2-3.1-1.5-3.3-2.8c-0.2-0.4-0.3-0.8-0.3-1.3C119.3,67.7,122,67.8,124.1,65.7z"/>
						<path style="&st5;" d="M102.9,59.6c-0.8,0.6-2.3-0.8-2.2-1.6C100.7,55.5,104.6,58.6,102.9,59.6z"/>
						<path style="&st6;" d="M88.8,35.4c1.7,0.9,2,1.1,4,2.9c0.7,0.5,4.1,12.2,4.7,17c0.6,3.8,0.1,5.3,6.9,7.6
							c2.2,0.7,3.5,4.6,4,6.8c1,3.9,0.1,5.5,5.2,6.4c1.4,0.2,3.7,0.4,5.1,0.2c2-0.2,1.1-0.3,3-0.9c0.8-0.3,2.1-0.4,2.8-0.8
							c1.1-0.7,1.4-2.2,2.5-2.9c0.1-0.1,0.2-0.1,0.3-0.2c-0.4,2.2-1.8,4.7-3.9,6c-3.5,2.2-6.3,2.7-9.2,2.2c-1.5-0.3-2.2-1.2-6-3.3
							c-3.5-1.9-7.7-3.9-9.8-6.4c-2.8-3.2-4.5-6.7-5.2-9.6c-1.2-5-2.9-12.8-2.2-19.2c-3.4-0.3-6.1-1.3-8-3.6
							C91.5,41.2,90.8,37.4,88.8,35.4z"/>
						<path style="&st6;" d="M77,90.6c0.4-1.8,4.7-3.1,6.2-2.2c-1.7-1,0.5-2.6,1.4-2.9c1.2-0.3,2.1,0.3,2.5,1.3
							c0.1,0.3,0.7,3.3,0.6,3.3c-0.9-0.2-1.9-0.3-2.8-0.4c0.4,0.9,0.7,2.2,0.7,2.7c-1.7,0.1-5.8,0.6-8-0.6c0.1,0.5,0,0.9,0,1.4
							c-1.6-0.3-5.6-1-5.1-3.6C73.1,86.8,75.6,89.4,77,90.6z"/>
						<path style="&st6;" d="M19.6,60.8c0.4-1.8,4.7-3.1,6.2-2.2c-1.7-1,0.5-2.6,1.4-2.9c1.2-0.3,2.1,0.3,2.5,1.3
							c0.1,0.3,0.7,3.3,0.6,3.3c-0.9-0.2-1.9-0.3-2.8-0.4c0.4,0.9,0.7,2.2,0.7,2.7c-1.7,0.1-5.8,0.6-8-0.6c0.1,0.5,0,0.9,0,1.4
							c-1.6-0.3-5.6-1-5.1-3.6C15.7,57.2,18.1,59.8,19.6,60.8z"/>
					</g>
					<path id="Shape_5_" style="&st7;" d="M102.6,58.5c0.2,0,0.3,0.1,0.3,0.3s-0.1,0.3-0.3,0.3c-0.2,0-0.3-0.1-0.3-0.3
						C102.3,58.7,102.4,58.5,102.6,58.5z"/>
				</g>
			</g>
		</g>
	</g>
</g>
<g id="rhino-right">
	<g id="Group_1_" transform="translate(129.352941, 78.736573)">
		<g id="Shape_2_">
			<path style="&st0;" d="M5.1,3.4C2.8,8.7,2.6,14.1,3.5,19.3C2.4,24.1,1,28.5,3.3,31.7c-0.3,0.6-0.6,1.1-0.7,1.7
				c-0.1,0.4-0.1,0.7-0.1,1.1c-2.2,1.9-1.9,4.5,0.8,6.1c3,1.9,8,1.9,11.1,0c2.8-1.8,2-5.7,1.9-6.2c-0.4-3.7-3.8-5.2-2.7-9.8
				c0.6-2.3,2.7-3.9,3.7-6.1c2.1-5,1.9-10.7,1.8-15.9L5.1,3.4z"/>
			<path style="&st0;" d="M9.3,41.3c-0.4-1.8-4.5-2.9-5.9-2.1c1.6-1-0.5-2.5-1.4-2.8c-1.1-0.3-2,0.3-2.4,1.3
				C-0.6,38-1,40.9-0.9,40.9c0.8-0.2,1.8-0.2,2.7-0.4c-0.4,0.9-0.7,2.1-0.7,2.6c1.7,0,5.6,0.6,7.6-0.5c-0.1,0.5,0,0.9,0,1.3
				c1.6-0.3,5.4-1,4.9-3.4C13,37.7,10.7,40.2,9.3,41.3z"/>
			<path style="&st0;" d="M89.7,10.1c0.1-2.2,1.3-3.5,1-5.9c-0.2-1.9-1.7-2.9-2.2-4.6c1.2-2.2,2-4.5,2.2-6.7
				c2.4-7.6,0.4-20.4-1.8-24.4c-0.2-0.3-0.3-0.6-0.5-0.8C85.9-41.6,76.4-48.7,66-48.1c-0.9-0.3-2-0.6-2.9-0.8c-5.2-1.3-9.6,1-15,3.1
				c-4.2,1.6-8,2.2-13.6,5.3c-12.4,7-20.2,17.3-21.9,17.3c-2.3,1-4.5,2.6-6.4,4.5c-3.6,3.7-6,8.8-7.1,14.1c0,0.1,0,0.1,0,0.2
				C-2.3,2.9-1,10.5,4.1,15c2.3,13.2,12.3,18.7,22,16.9c4.4-0.8,8.7-3.2,12.4-6.9c0.7-0.7,1.4-1.5,2-2.3c0.3-0.4,0.7-0.8,0.9-1.3
				c9-0.7,17.5-3,22-6.3c4.6-3.4,8.7-7.3,12.2-11.7C76,3.6,76.4,4,76.4,4.1c1.4,2.2,5,5.4,5.4,8.3c0.9,5.7-2.9,5.5-4.1,9
				c0.7,4.9,10.2,5.2,13.5,1.1C93.6,19.8,89.5,14,89.7,10.1z"/>
			<path style="&st0;" d="M26,15.6c-2.2,5.2-2.4,10.7-1.6,15.8c-1.1,4.8-2.4,9.2-0.2,12.4c-0.3,0.6-0.6,1.1-0.7,1.7
				c-0.1,0.4-0.1,0.7-0.1,1.1c-2.2,1.9-1.9,4.5,0.8,6.1c3,1.9,8,1.9,11.1,0c2.2-1.3,1.7-3.8,0.7-5.3c-1.5-2.2-4-3.7-3-8.2
				c0.6-2.3,4.3-6.5,5.2-8.6c2.1-5,1.9-10.7,1.8-15.9L26,15.6z"/>
			<path style="&st1;" d="M70-46.2c1.2,5.6,1.4,11.3,1.4,17.2c-1.8-27.1-27.2-16.9-43.1-6.5c-5,3.3-9.1,6.3-11.6,11.8
				c3.7,1.3,7.1,3.7,8.6,7.6c-6.1-4.7-12.9-4.9-19.2-2.6C2.5-14.9,0.1-9.9-1-4.6c0,0.1,0,0.1,0,0.2c6.5-1.4,13.7-2.9,18.8,2.2
				c-0.7-4.6-6.7-5.5-10.6-6.7c21.4-2.2,15.7,16.6,9.9,29.3c5.2-5.5,6.7-12.8,9.4-19.4c1,7.3-4.9,16-7.4,22.6
				c2.1,0.5,3.6,2.9,4.8,5.5c2.6-2.3,5.6-4.3,9.4-3.7c-3.8,0.9-6.1,3.4-7.2,6.5c-0.8,2.2-1.1,4.8-1,7.4c5.2,0.9,10.4-8.2,12.5-12.4
				c0.4-0.7,0.7-1.4,0.9-2.1c2.2-5.6,1.3-10.5-1.4-16.4c3.3,2,4.1,5.8,4.5,9.5c0-2.1,0.4-4.2,0.5-6.4c0.2,1.3,0.9,2.8,1.1,4.3
				c7.2-2.2,16.1-5.6,21-11.7c5.5-6.7,7.4-16.2,8.7-23.6c0.6,5.7-1.8,12.7-3.7,17.8c1.7-3.5,3.7-6,4.9-10.8C72.2-3.5,78.8,8,85.3-4
				c4.5-8.4,2-24.7-2.9-32.2C79.4-40.6,74.8-43.6,70-46.2z"/>
			<path style="&st0;" d="M-5.1-13.2c-0.4-0.4-0.7-0.7-1-1c-0.8,5-0.8,7.6-0.1,9.5c1.1,2.8,4,3.8,8.2,8.2l2-5.3
				C5.7-3.7-0.8-9.3-5.1-13.2z"/>
			<path style="&st0;" d="M26.3-6.1c-3.7,2-8.8,3.2-10.9,5.5c-0.5,0.6-0.8,1.2-0.9,1.9l-1.9,2.6l-1,1.5c1.5,0.2,2.9,0.4,4.2,0.4
				c0.7,0,1.3,0,1.9-0.1c3.2-0.3,5.8-1.3,7.6-3.4c0.6-0.7,1-1.4,1.4-2.3c0.8-1.8,1.2-4.1,1.2-7c-0.2,0.2-0.5,0.3-0.7,0.5
				C26.9-6.5,26.6-6.3,26.3-6.1z"/>
			<path style="&st1;" d="M17.4,4.3c-0.4-1.9-1-3.5-2-4.9C14-2.7,11.5-4.1,7.9-4.2C0.3-4.3-2.7,1.1-4.8,7.4c-0.9,1.4-1.7,3-2.4,4.3
				c-1.3,2.2-2,3.7-2.1,6.3c0,0.9,0,1.9,0,2.8c-2.2,3.6-6.1,7.4-7.5,11c-0.4,0.8-0.5,1.9-0.3,2.9c0.3,2.2,1.7,4.5,3.7,5.7
				c3.3,2.1,6,2.6,8.8,2.2c1.5-0.3,2.2-1.1,5.7-3.1c3.3-1.8,7.4-3.8,9.5-6.1c2.7-3.1,4.3-6.4,5-9.2c1.1-4.8,2.8-12.3,2.1-18.4
				C17.5,5.2,17.5,4.7,17.4,4.3z"/>
			<path style="&st1;" d="M-5.1-13.2c0.5,1.1,1.1,2.2,1.5,3.1c1.2,2.6,2,4.3,1.9,7.2c-1.1,0-3.2-0.7-4.5-1.9c1.1,2.8,4,3.8,8.2,8.2
				l2-5.3C5.7-3.7-0.8-9.3-5.1-13.2z"/>
			<path style="&st2;" d="M-5.1-13.2c0.5,1.1,1.1,2.2,1.5,3.1c0.7,1.5,1.2,2.6,1.5,3.8c0.2,0.1,0.3,0.3,0.5,0.4c1,0.9,2.2,1.9,3,3.1
				C2.2-1.5,2.7-0.2,3,1.1l1-2.8C5.7-3.7-0.8-9.3-5.1-13.2z"/>
			<path style="&st2;" d="M14.4,1.3l-1.9,2.6l-1,1.5c0.5,0.1,0.9,0.1,1.4,0.2c2.2-2.7,5.7-4.3,8.3-6.8c1.6-1.5,3.1-3.5,5.1-4.9
				C21.7-3.7,15-2.4,14.4,1.3z"/>
			<path style="&st2;" d="M1.6-2.5c-3.8,1.9-5.7,9.2-7.4,12.9c-2.5,5.6-2.5,5.3,3.7,7.7c1.2,0.5,2.6,1.2,3.9,1.4
				c1.6,0.2,1.7-0.5,2.9-1.5c0.6-0.5,1-0.8,1-0.9c1.4-1.2,1.5-2.7,1.7-4.5C7.9,9,15.5,5,14.4,1.1C13.5-3,4.8-4,1.6-2.5z"/>
			<path style="&st2;" d="M32.5-6c0,10.2,8.8,15.7,17.7,11.5C59.8,1,72.6-12.8,68.8-24.3C61.3-46.9,32.4-20.8,32.5-6z"/>
			<path style="&st2;" d="M77.2-32.4c-3,3.2-2.6,23.2,5,16.3C86.2-20,83.9-39.7,77.2-32.4z"/>
			<path style="&st2;" d="M31.6,10.2l-3.1,1.7c-6.1,5.6,3,14.5,7.2,8.3C38,16.9,36.1,10.1,31.6,10.2z"/>
			<path style="&st3;" d="M-4.8,19.5c-1.9-2-3.7-4.5-3.9-7.2c-0.2,0-0.5,0.1-0.7,0.1c-0.7,1.6-1.1,3.2-1.3,5.1
				c-0.3,2.1-0.3,5.9,1.5,7.4h0.1c-0.1,3.1,4.9,3.6,6.5,0.9c0.4-0.7,0.6-1.3,0.6-1.8C-2,23.8-2,23.6-2,23.4
				C-2.1,21.7-3.7,20.6-4.8,19.5z"/>
			<path style="&st4;" d="M-2.3,22.9c-1.5,0.6-3.5,0.6-4.9-0.4c-2.1-1.4-3.2-3.6-3.4-5.8c0,0.2-0.1,0.5-0.1,0.7
				c-0.3,2.1-0.3,5.9,1.5,7.4h0.1c-0.1,3.1,4.9,3.6,6.5,0.9c0.4-0.7,0.6-1.3,0.6-1.8C-2,23.8-2,23.6-2,23.4s0-0.4,0-0.6
				C-2.2,22.8-2.2,22.8-2.3,22.9z"/>
			<path style="&st3;" d="M-13.7,16.1c-0.1,0-0.3,0-0.4,0c-1,2.5-1.7,4.8-1.7,7.6c0,2.4,0.1,6.5,1.9,8.5c0.4,0.9,1.3,1.6,3,1.4
				c2-0.2,2.9-1.4,3.1-2.6c0.3-0.7,0.4-1.7,0.2-2.6C-8.2,23.9-13.3,20.8-13.7,16.1z"/>
			<path style="&st4;" d="M-14.1,29c-0.6-0.5-0.9-1-1.3-1.6c0.2,1.8,0.7,3.7,1.7,4.9c0.4,0.9,1.3,1.6,3,1.4c2-0.2,2.9-1.4,3.1-2.6
				c0.2-0.4,0.3-0.8,0.3-1.2C-9.6,30.8-12.1,31-14.1,29z"/>
			<path style="&st5;" d="M6.2,23.1c0.8,0.5,2.2-0.7,2.2-1.6C8.4,19.2,4.6,22.2,6.2,23.1z"/>
			<path style="&st6;" d="M19.8,0c-1.6,0.9-1.9,1.1-3.8,2.7C15.4,3.2,12,14.3,11.4,19c-0.5,3.7-0.1,5.2-6.7,7.3
				c-2.2,0.7-3.4,4.4-3.8,6.6C0,36.7,0.9,38.2-4,39c-1.4,0.2-3.6,0.3-4.9,0.2c-1.9-0.2-1-0.3-2.8-0.9c-0.8-0.3-2-0.3-2.7-0.7
				c-1.1-0.7-1.4-2.2-2.3-2.8c-0.1-0.1-0.2-0.1-0.3-0.1c0.3,2.2,1.7,4.5,3.7,5.7c3.3,2.1,6,2.6,8.8,2.2c1.5-0.3,2.2-1.1,5.7-3.1
				c3.3-1.8,7.4-3.8,9.5-6.1c2.7-3.1,4.3-6.4,5-9.2c1.1-4.8,2.8-12.3,2.1-18.4c3.2-0.3,5.8-1.3,7.6-3.4C17.2,5.6,17.8,1.8,19.8,0z"
				/>
			<path style="&st6;" d="M31.1,52.7c-0.4-1.8-4.5-2.9-5.9-2.1c1.6-1-0.5-2.5-1.4-2.7c-1.1-0.3-2,0.3-2.4,1.3
				c-0.1,0.3-0.6,3.2-0.5,3.2c0.8-0.2,1.8-0.2,2.7-0.4C23.3,53,23,54.1,23,54.7c1.7,0,5.6,0.6,7.6-0.5c-0.1,0.5,0,0.9,0,1.3
				c1.6-0.3,5.4-1,4.9-3.4C34.8,49.3,32.4,51.7,31.1,52.7z"/>
			<path style="&st6;" d="M86.1,24.3c-0.4-1.8-4.5-2.9-5.9-2.1c1.6-1-0.5-2.5-1.4-2.8c-1.1-0.3-2,0.3-2.4,1.3
				c-0.1,0.3-0.6,3.2-0.5,3.2c0.8-0.2,1.8-0.2,2.7-0.4c-0.4,0.9-0.7,2.1-0.7,2.6c1.7,0,5.6,0.6,7.6-0.5c-0.1,0.5,0,0.9,0,1.3
				c1.6-0.3,5.4-1,4.9-3.4C89.9,20.8,87.6,23.3,86.1,24.3z"/>
		</g>
		<path id="Shape_3_" style="&st7;" d="M6.6,22.1c-0.1,0-0.3,0.1-0.3,0.3s0.1,0.3,0.3,0.3c0.1,0,0.3-0.1,0.3-0.3S6.7,22.1,6.6,22.1z
			"/>
	</g>
</g>
</svg>
