<svg xmlns="http://www.w3.org/2000/svg" viewBox="0 0 3000 630"><defs><style>.cls-1{fill:#16222a;}</style></defs><title>seenit_logo_xstrong steel</title><g id="Logo"><polygon class="cls-1" points="674.7 255.31 488.71 26.03 181.07 26.03 510.87 255.31 674.7 255.31"/><polygon class="cls-1" points="0 399.97 186 629.25 495.63 629.25 165.83 399.97 0 399.97"/><polygon class="cls-1" points="13.32 246.32 529.86 605.44 662.39 408.95 145.85 49.83 13.32 246.32"/><path class="cls-1" d="M1036.22,540.29q-42,0-84-15.71T879.38,484l21.76-29.26a262.92,262.92,0,0,0,66,37.14A198.84,198.84,0,0,0,1038.47,505q39,0,65.66-19.46t26.64-53.17v-1.5q0-16.46-8.25-28.46a76.15,76.15,0,0,0-22.51-21,147.45,147.45,0,0,0-32.27-15q-18-6-38.27-12-23.27-6.73-46.9-14.23a188.32,188.32,0,0,1-42.4-19.08,98.6,98.6,0,0,1-30.39-28.83q-11.64-17.22-11.63-42.69v-1.5q0-23.22,9.38-42.3a104.19,104.19,0,0,1,25.89-33.32q16.5-14.23,39.77-22.09t51-7.87q34.5,0,70.91,11.5T1160,185.35l-19.51,30.77a254.07,254.07,0,0,0-56.66-27.77,186.17,186.17,0,0,0-61.16-10.51q-39.78,0-63.41,19.1t-23.64,47.54V246q0,15.72,9,27.33a77.42,77.42,0,0,0,23.63,19.85,189.41,189.41,0,0,0,34.15,14.6q19.5,6.37,39.77,12.36,23.25,6.76,45.77,14.61a170.9,170.9,0,0,1,40.53,20.21,101.86,101.86,0,0,1,28.89,29.59q10.87,17.22,10.88,42.68v1.5q0,25.47-10.13,46.06A103.7,103.7,0,0,1,1130,510a130.31,130.31,0,0,1-42,22.47A165.7,165.7,0,0,1,1036.22,540.29Z"/><path class="cls-1" d="M1447.12,541.79a185.13,185.13,0,0,1-71.82-14.26A181.92,181.92,0,0,1,1315.12,487q-26-26.25-41-63t-15-81.8v-1.5A215.92,215.92,0,0,1,1273,263q13.87-36.39,38.27-63.41a182.26,182.26,0,0,1,57.41-42.77q33-15.76,72-15.76,40.52,0,72.79,15.38a164.09,164.09,0,0,1,55.16,42.4q22.87,27,35.27,63.41t12.38,79.17v7.88a46.8,46.8,0,0,1-.76,7.12H1298.1q2.26,35.85,15.8,63.47t33.85,47a139.37,139.37,0,0,0,46.28,29.5,149.43,149.43,0,0,0,54.54,10.07q45.13,0,76.37-17.26a225.36,225.36,0,0,0,55.3-42.77L1605.77,469a266.77,266.77,0,0,1-66.52,52.16Q1502,541.78,1447.12,541.79Zm130.14-218.37a218,218,0,0,0-11.67-55.9,155.61,155.61,0,0,0-26.33-47.27,126.06,126.06,0,0,0-41.76-33q-24.84-12.38-57.94-12.38a127.87,127.87,0,0,0-53.42,11.25,133.66,133.66,0,0,0-43.26,31.14,168.69,168.69,0,0,0-30.47,47.27,176.8,176.8,0,0,0-14.29,58.91Z"/><path class="cls-1" d="M1885.35,541.79a185.16,185.16,0,0,1-71.83-14.26A181.9,181.9,0,0,1,1753.35,487q-26-26.25-41-63t-15-81.8v-1.5A215.92,215.92,0,0,1,1711.2,263q13.87-36.39,38.27-63.41a182.23,182.23,0,0,1,57.4-42.77q33-15.76,72-15.76,40.52,0,72.79,15.38a164,164,0,0,1,55.15,42.4q22.88,27,35.27,63.41t12.38,79.17v7.88a46.65,46.65,0,0,1-.75,7.12H1736.34q2.25,35.85,15.8,63.47t33.85,47a139.43,139.43,0,0,0,46.28,29.5,149.48,149.48,0,0,0,54.55,10.07q45.12,0,76.36-17.26a225.27,225.27,0,0,0,55.31-42.77L2044,469a266.74,266.74,0,0,1-66.52,52.16Q1940.25,541.78,1885.35,541.79Zm130.13-218.37a218,218,0,0,0-11.67-55.9,155.61,155.61,0,0,0-26.33-47.27,126.08,126.08,0,0,0-41.77-33q-24.84-12.38-57.93-12.38a127.87,127.87,0,0,0-53.42,11.25,133.66,133.66,0,0,0-43.26,31.14,168.56,168.56,0,0,0-30.47,47.27,176.66,176.66,0,0,0-14.29,58.91Z"/><path class="cls-1" d="M2161.82,150.08h36.77v71.29a178.28,178.28,0,0,1,52.53-57q33-23.25,85.55-23.26,36,0,64.53,11.63a134.81,134.81,0,0,1,78.42,82.54q10.13,28.9,10.13,63.41V532.78H2453V305.41q0-59.27-31.52-94.93t-90-35.64q-28.53,0-52.53,10.13a130.5,130.5,0,0,0-42,28.14,127.83,127.83,0,0,0-28.14,43.15q-10.13,25.15-10.13,55.15V532.78h-36.77Z"/><path class="cls-1" d="M2622.55,0h45.78V50.28h-45.78Zm4.51,150.08h36.77v382.7h-36.77Z"/><path class="cls-1" d="M2936.21,539.54a142.47,142.47,0,0,1-42-6,88.15,88.15,0,0,1-57-52.16q-8.27-19.87-8.25-46.9V183.85h-55.53V150.08h55.53V27.77h36.77V150.08H3000v33.77H2865.68v246.3q0,41.2,21.39,57.65t55.15,16.47a123.66,123.66,0,0,0,27-2.84,168.56,168.56,0,0,0,29.26-9.92V526a159.72,159.72,0,0,1-29.64,10.13A145.52,145.52,0,0,1,2936.21,539.54Z"/></g></svg>