<svg xmlns="http://www.w3.org/2000/svg" width="41" height="41" viewBox="0 0 41 41">
    <g fill="none" fill-rule="evenodd">
        <g fill="#ED6529">
            <g>
                <g>
                    <g>
                        <g>
                            <path d="M12.5 9.333l-4.167 2.334L10.667 7.5 8.333 3.333 12.5 5.667l4.167-2.334L14.333 7.5l2.334 4.167L12.5 9.333m20 16.334l4.167-2.334-2.334 4.167 2.334 4.167-4.167-2.334-4.167 2.334 2.334-4.167-2.334-4.167 4.167 2.334m4.167-22.334L34.333 7.5l2.334 4.167L32.5 9.333l-4.167 2.334L30.667 7.5l-2.334-4.167L32.5 5.667l4.167-2.334M22.233 21.3l4.067-4.067-3.533-3.533-4.067 4.067 3.533 3.533m1.717-9.15l3.9 3.9c.65.617.65 1.7 0 2.35L8.4 37.85c-.65.65-1.733.65-2.35 0l-3.9-3.9c-.65-.617-.65-1.7 0-2.35L21.6 12.15c.65-.65 1.733-.65 2.35 0z" transform="translate(-559 -3817) translate(35 2392) translate(96 917) translate(412 492) translate(16.4 16.4)"/>
                        </g>
                    </g>
                </g>
            </g>
        </g>
    </g>
</svg>
