<?xml version="1.0" encoding="UTF-8"?>
<svg width="35px" height="34px" viewBox="0 0 35 34" version="1.1" xmlns="http://www.w3.org/2000/svg" xmlns:xlink="http://www.w3.org/1999/xlink">
    <title>Icon</title>
    <g id="Homepage" stroke="none" stroke-width="1" fill="none" fill-rule="evenodd">
        <g id="Homepage-V2" transform="translate(-162.000000, -3821.000000)" fill="#3A2991">
            <g id="Group-4" transform="translate(35.000000, 2392.000000)">
                <g id="Group" transform="translate(96.000000, 917.000000)">
                    <g id="Duotone-Icon/Blue" transform="translate(12.000000, 492.000000)">
                        <g id="Group" transform="translate(16.400000, 16.400000)">
                            <g id="movie-open" transform="translate(1.666667, 3.333333)">
                                <path d="M33.0666667,0.3 L26.5166667,1.6 L31.0833333,7.5 L34.3666667,6.83333333 L33.0666667,0.3 M21.6166667,2.56666667 L18.3333333,3.21666667 L22.9166667,9.1 L26.1833333,8.45 L21.6166667,2.56666667 M13.45,4.16666667 L10.1666667,4.85 L14.75,10.7333333 L18.0166667,10.0833333 L13.45,4.16666667 M5.26666667,5.83333333 L3.63333333,6.15 C1.83007439,6.51028825 0.659218995,8.26284251 1.01666667,10.0666667 L1.66666667,13.3333333 L9.83333333,11.7166667 L5.26666667,5.83333333 M1.66666667,13.3333333 L1.66666667,30 C1.66666667,31.85 3.16666667,33.3333333 5,33.3333333 L31.6666667,33.3333333 C33.5166667,33.3333333 35,31.85 35,30 L35,13.3333333 L1.66666667,13.3333333 Z" id="Colour"></path>
                            </g>
                        </g>
                    </g>
                </g>
            </g>
        </g>
    </g>
</svg>