<svg xmlns="http://www.w3.org/2000/svg" width="24" height="24" viewBox="0 0 24 24">
    <g fill="none" fill-rule="evenodd">
        <g fill="#FFF">
            <g>
                <g>
                    <g>
                        <g>
                            <path d="M7 19v-2h2v2H7zm4 0v-2h2v2h-2zm4 0v-2h2v2h-2zm-8-4v-2h2v2H7zm4 0v-2h2v2h-2zm4 0v-2h2v2h-2zm-8-4V9h2v2H7zm4 0V9h2v2h-2zm4 0V9h2v2h-2zM7 7V5h2v2H7zm4 0V5h2v2h-2zm4 0V5h2v2h-2z" transform="translate(-360 -4800) translate(231 4660) translate(56 136) translate(65) translate(8 4)"/>
                        </g>
                    </g>
                </g>
            </g>
        </g>
    </g>
</svg>
