<svg xmlns="http://www.w3.org/2000/svg" width="41" height="41" viewBox="0 0 41 41">
    <g fill="none" fill-rule="evenodd">
        <g fill="#D81A43">
            <g>
                <g>
                    <g>
                        <g>
                            <g>
                                <path d="M23.333 10H20V6.667h3.333m0 10H20v-3.334h3.333m0 10H20V20h3.333M6.667 10H3.333V6.667h3.334m0 10H3.333v-3.334h3.334m0 10H3.333V20h3.334M23.333 0v3.333H20V0H6.667v3.333H3.333V0H0v30h3.333v-3.333h3.334V30H20v-3.333h3.333V30h3.334V0h-3.334z" transform="translate(-959 -3817) translate(35 2392) translate(96 917) translate(812 492) translate(16.4 16.4) translate(6.667 5)"/>
                            </g>
                        </g>
                    </g>
                </g>
            </g>
        </g>
    </g>
</svg>
