<?xml version="1.0" encoding="utf-8"?>
<!-- Generator: Adobe Illustrator 25.1.0, SVG Export Plug-In . SVG Version: 6.00 Build 0)  -->
<svg version="1.1" id="Layer_1" xmlns="http://www.w3.org/2000/svg" xmlns:xlink="http://www.w3.org/1999/xlink" x="0px" y="0px"
	 viewBox="0 0 20 20" style="enable-background:new 0 0 20 20;" xml:space="preserve">
<style type="text/css">
	.st0{fill-rule:evenodd;clip-rule:evenodd;fill:#CECECE;}
</style>
<g id="Menu">
	<g id="Menu-Mobile" transform="translate(-337.000000, -763.000000)">
		<g id="Group" transform="translate(0.000000, 569.000000)">
			<g id="List-Action" transform="translate(16.000000, 176.000000)">
				<g id="Icon-Right" transform="translate(319.000000, 16.000000)">
					<path id="Colour" class="st0" d="M13,7h-2v4H7v2h4v4h2v-4h4v-2h-4V7L13,7z M12,2C6.5,2,2,6.5,2,12s4.5,10,10,10s10-4.5,10-10
						S17.5,2,12,2L12,2z M12,20c-4.4,0-8-3.6-8-8s3.6-8,8-8s8,3.6,8,8S16.4,20,12,20L12,20z"/>
				</g>
			</g>
		</g>
	</g>
</g>
</svg>
